if (_typeface_js && _typeface_js.loadFace) _typeface_js.loadFace({"glyphs":{"¦":{"x_min":46.125,"x_max":351.3125,"ha":400,"o":"m 48 562 l 46 1052 l 349 1045 l 349 562 l 48 562 m 54 -99 l 50 360 l 349 360 l 351 -97 l 54 -99 "},"Ő":{"x_min":11.53125,"x_max":889.25,"ha":886,"o":"m 872 478 q 858 359 872 417 q 817 252 844 302 q 752 160 790 202 q 666 88 714 118 q 562 42 618 59 q 442 25 505 25 q 326 41 381 25 q 223 85 271 56 q 135 152 174 113 q 69 241 96 192 q 26 345 42 289 q 11 461 11 400 q 25 576 11 520 q 66 683 40 633 q 131 775 93 733 q 216 848 169 817 q 318 895 263 878 q 434 912 373 912 q 614 882 533 912 q 752 795 695 851 q 841 658 809 738 q 872 478 872 577 m 571 461 q 563 517 571 490 q 538 566 554 545 q 498 601 522 588 q 442 614 474 614 q 385 602 411 614 q 342 571 360 591 q 315 524 324 551 q 305 467 305 497 q 314 411 305 439 q 338 359 322 382 q 378 322 354 336 q 434 307 402 307 q 492 320 466 307 q 535 354 517 333 q 562 403 552 375 q 571 461 571 431 m 889 1123 q 744 1016 815 1070 q 603 902 673 962 l 508 985 q 535 1025 519 1003 q 571 1070 552 1046 q 610 1118 590 1094 q 649 1164 630 1142 q 745 1272 695 1217 l 889 1123 m 631 1169 q 486 1062 557 1116 q 346 947 415 1007 l 249 1031 q 277 1071 260 1049 q 312 1117 293 1093 q 351 1165 331 1141 q 391 1211 371 1189 q 487 1318 436 1263 l 631 1169 "},"Ž":{"x_min":8.140625,"x_max":655.15625,"ha":676,"o":"m 655 744 l 344 325 l 644 325 l 640 37 l 35 13 l 8 279 l 362 740 l 37 716 l 35 988 l 642 988 l 655 744 m 572 1255 q 541 1207 559 1234 q 502 1151 523 1180 q 460 1092 482 1122 q 420 1038 439 1063 l 287 1019 l 91 1234 l 234 1325 l 340 1187 l 423 1320 l 572 1255 "},"Á":{"x_min":-21.703125,"x_max":889.828125,"ha":869,"o":"m 889 58 l 553 14 l 512 168 l 358 168 l 324 14 l -21 48 l 248 952 l 625 971 l 889 58 m 488 375 l 436 611 l 386 375 l 488 375 m 799 1182 q 642 1093 718 1138 q 488 995 565 1048 l 402 1090 q 434 1126 415 1106 q 474 1167 453 1146 q 519 1210 496 1188 q 564 1251 542 1231 q 671 1345 615 1297 l 799 1182 "},"ĥ":{"x_min":28.484375,"x_max":839.640625,"ha":869,"o":"m 839 27 l 500 10 l 497 297 l 341 297 l 332 0 l 28 0 l 54 953 l 377 938 l 356 451 l 507 451 l 508 961 l 817 953 l 839 27 m 531 976 l 425 1115 l 343 983 l 194 1047 q 225 1096 206 1068 q 265 1155 244 1124 q 308 1215 286 1185 q 349 1271 330 1245 l 489 1272 l 675 1065 l 531 976 "},"Î":{"x_min":-19,"x_max":462.53125,"ha":413,"o":"m 400 954 l 326 31 l 40 16 l 40 935 l 400 954 m 318 982 l 212 1121 l 130 989 l -19 1053 q 12 1102 -6 1074 q 52 1161 31 1130 q 95 1221 73 1191 q 136 1277 117 1251 l 276 1278 l 462 1071 l 318 982 "},"e":{"x_min":11.53125,"x_max":791.484375,"ha":801,"o":"m 791 548 q 783 430 791 489 q 552 405 667 422 q 323 373 438 389 q 378 295 341 324 q 468 265 416 265 q 528 276 495 265 q 592 301 560 286 q 653 334 623 316 q 703 366 682 352 l 670 58 q 613 23 644 37 q 549 0 582 9 q 482 -12 516 -8 q 415 -16 448 -16 q 292 2 348 -16 q 192 53 237 20 q 113 130 147 86 q 56 228 79 175 q 23 340 34 281 q 11 459 11 399 q 23 585 11 522 q 57 707 34 649 q 116 815 81 765 q 200 902 152 865 q 307 961 247 940 q 440 982 367 982 q 550 965 500 982 q 639 919 600 948 q 707 849 678 889 q 754 759 735 808 q 782 657 773 711 q 791 548 791 603 m 520 583 q 516 622 520 602 q 502 658 512 642 q 478 685 493 674 q 441 695 463 695 q 393 681 414 695 q 358 644 373 666 q 333 596 343 622 q 319 549 324 571 l 520 568 l 520 583 "},"»":{"x_min":16.28125,"x_max":908.8125,"ha":926,"o":"m 150 157 l 39 366 l 225 489 l 16 609 l 123 830 l 436 622 l 444 373 l 150 157 m 614 157 l 503 366 l 689 489 l 480 609 l 587 830 l 900 622 l 908 373 l 614 157 "},"ļ":{"x_min":29.84375,"x_max":629.390625,"ha":627,"o":"m 629 359 l 600 58 l 29 13 l 51 982 l 404 982 l 354 359 l 629 359 m 422 -122 q 413 -171 422 -144 q 386 -224 403 -198 q 345 -274 369 -251 q 292 -313 321 -298 q 291 -302 292 -313 q 290 -276 291 -292 q 288 -243 289 -261 q 287 -212 287 -226 q 240 -176 257 -201 q 223 -119 223 -150 q 231 -80 223 -98 q 252 -49 239 -62 q 284 -27 266 -35 q 323 -19 302 -19 q 361 -27 343 -19 q 393 -49 380 -35 q 415 -80 407 -62 q 422 -119 422 -98 l 422 -122 "},"Ĕ":{"x_min":29.84375,"x_max":676.859375,"ha":665,"o":"m 676 978 q 669 851 672 914 q 660 725 666 789 l 373 710 l 366 625 l 568 625 l 553 415 l 349 408 l 343 309 l 511 309 l 630 309 q 622 161 626 234 q 614 13 617 87 l 29 0 l 51 978 l 676 978 m 534 1204 q 518 1124 534 1161 q 474 1060 502 1087 q 410 1017 447 1032 q 330 1002 372 1002 q 244 1017 281 1002 q 182 1059 207 1032 q 144 1126 157 1087 q 131 1215 131 1165 q 131 1231 131 1222 q 132 1246 131 1239 l 290 1226 q 290 1201 289 1215 q 297 1175 292 1187 q 311 1153 302 1162 q 336 1144 320 1144 q 352 1149 345 1144 q 362 1163 358 1155 q 368 1180 366 1171 q 370 1197 370 1189 q 365 1235 370 1217 q 355 1271 361 1252 l 519 1300 q 529 1253 525 1278 q 534 1204 534 1228 "},"ò":{"x_min":11.53125,"x_max":872.875,"ha":886,"o":"m 872 519 q 858 400 872 457 q 817 292 844 343 q 752 201 790 242 q 666 129 714 159 q 562 83 618 99 q 442 66 505 66 q 326 82 381 66 q 223 125 271 97 q 135 193 174 153 q 69 281 96 233 q 26 385 42 330 q 11 501 11 441 q 25 617 11 560 q 66 724 40 674 q 131 816 93 774 q 216 889 169 858 q 318 936 263 919 q 434 953 373 953 q 614 923 533 953 q 752 835 695 892 q 841 698 809 779 q 872 519 872 618 m 571 501 q 563 558 571 531 q 538 607 554 585 q 498 641 522 628 q 442 655 474 655 q 385 643 411 655 q 342 612 360 632 q 315 565 324 592 q 305 508 305 538 q 314 451 305 480 q 338 400 322 423 q 378 362 354 377 q 434 348 402 348 q 492 361 466 348 q 535 395 517 373 q 562 444 552 416 q 571 501 571 472 m 342 969 q 193 1073 267 1025 q 40 1168 118 1122 l 174 1327 q 278 1228 228 1276 q 321 1185 299 1207 q 363 1140 343 1162 q 402 1097 384 1118 q 433 1060 420 1077 l 342 969 "},"ţ":{"x_min":5.421875,"x_max":752.828125,"ha":757,"o":"m 752 956 l 746 668 l 543 660 l 519 31 l 233 16 l 207 645 l 5 634 l 13 954 l 752 956 m 469 -129 q 460 -178 469 -151 q 433 -231 450 -205 q 392 -281 416 -258 q 339 -320 368 -305 q 338 -309 339 -320 q 337 -283 338 -299 q 335 -250 336 -268 q 334 -219 334 -233 q 287 -183 304 -208 q 270 -126 270 -157 q 278 -87 270 -105 q 299 -56 286 -69 q 331 -34 313 -42 q 370 -26 349 -26 q 408 -34 390 -26 q 440 -56 427 -42 q 462 -87 454 -69 q 469 -126 469 -105 l 469 -129 "},"^":{"x_min":0,"x_max":674.15625,"ha":674,"o":"m 423 436 q 416 456 422 436 q 402 506 411 476 q 383 572 393 537 q 364 639 373 608 q 350 690 356 670 q 344 712 344 711 q 297 586 320 649 q 255 458 275 522 l 0 518 q 37 603 15 555 q 84 703 59 652 q 132 802 108 754 q 174 889 155 851 q 205 950 193 927 q 218 973 217 973 l 473 979 q 483 953 472 978 q 511 887 494 928 q 551 794 529 846 q 595 687 573 741 q 638 580 617 632 q 674 486 659 528 l 423 436 "},"«":{"x_min":16.28125,"x_max":906.109375,"ha":922,"o":"m 336 157 l 25 366 l 16 615 l 310 830 l 419 625 l 237 500 l 444 379 l 336 157 m 797 157 l 486 366 l 477 615 l 771 830 l 880 625 l 698 500 l 906 379 l 797 157 "},"í":{"x_min":27.8125,"x_max":546.4375,"ha":408,"o":"m 388 954 l 341 31 l 54 16 l 27 935 l 388 954 m 546 1160 q 389 1071 465 1116 q 235 973 312 1026 l 149 1068 q 181 1104 162 1084 q 221 1145 200 1124 q 266 1188 243 1166 q 311 1229 289 1209 q 418 1323 362 1275 l 546 1160 "},"ˆ":{"x_min":0,"x_max":481.53125,"ha":482,"o":"m 337 897 l 231 1036 l 149 904 l 0 968 q 31 1017 12 989 q 71 1076 50 1045 q 114 1136 92 1106 q 155 1192 136 1166 l 295 1193 l 481 986 l 337 897 "},"ū":{"x_min":23.734375,"x_max":843.03125,"ha":849,"o":"m 843 954 q 790 479 812 716 q 749 4 769 243 l 471 -16 l 483 88 q 452 61 470 72 q 413 42 434 49 q 371 32 393 35 q 330 29 349 29 q 243 47 284 30 q 168 93 202 65 q 107 161 134 122 q 62 241 80 199 q 33 328 43 284 q 23 413 23 372 q 26 540 23 474 q 34 671 28 605 q 50 801 40 737 q 75 925 60 866 q 241 917 158 921 q 407 915 324 914 q 376 797 392 856 q 349 677 361 737 q 329 557 337 617 q 322 435 322 497 q 323 394 322 421 q 330 342 324 368 q 348 297 336 316 q 381 278 360 278 q 427 300 407 278 q 463 359 448 322 q 490 445 479 396 q 509 547 501 494 q 522 655 517 600 q 529 757 526 709 q 532 843 531 805 q 533 902 533 881 q 533 928 533 915 q 531 954 532 941 q 618 952 575 953 q 706 952 661 952 q 774 952 739 952 q 843 954 808 952 m 643 989 l 215 995 l 203 1156 l 646 1164 l 643 989 "},"Ẅ":{"x_min":3.390625,"x_max":1258.109375,"ha":1261,"o":"m 1258 941 l 1099 1 l 714 -6 l 631 480 l 548 28 l 163 14 l 3 941 l 339 971 l 407 408 l 498 971 l 763 971 l 868 401 l 923 971 l 1258 941 m 869 1121 q 862 1082 869 1100 q 840 1051 854 1064 q 808 1030 827 1038 q 769 1022 790 1022 q 731 1030 749 1022 q 700 1051 713 1038 q 679 1082 687 1064 q 671 1121 671 1100 q 679 1159 671 1141 q 700 1191 687 1177 q 731 1212 713 1204 q 769 1220 749 1220 q 808 1212 790 1220 q 840 1191 827 1204 q 862 1159 854 1177 q 869 1121 869 1141 m 605 1106 q 596 1064 605 1084 q 573 1029 588 1044 q 539 1006 559 1015 q 498 998 519 998 q 456 1006 475 998 q 422 1029 436 1015 q 399 1064 407 1044 q 391 1106 391 1084 q 399 1146 391 1127 q 422 1180 407 1165 q 456 1203 436 1194 q 498 1212 475 1212 q 539 1203 519 1212 q 573 1180 559 1194 q 596 1146 588 1165 q 605 1106 605 1127 "},"ȷ":{"x_min":-9.5,"x_max":682.296875,"ha":708,"o":"m 682 558 q 682 479 682 518 q 678 400 682 440 q 641 239 670 315 q 562 107 612 164 q 441 16 512 50 q 278 -16 370 -16 q 203 -10 242 -16 q 125 8 164 -4 q 52 38 87 20 q -9 80 17 56 l 32 360 q 121 298 72 322 q 227 274 170 274 q 290 284 265 274 q 333 314 316 295 q 360 359 350 333 q 374 413 370 384 q 380 472 379 442 q 381 533 381 503 q 370 747 381 640 q 351 961 359 854 l 661 982 q 682 558 682 770 "},"ņ":{"x_min":18.984375,"x_max":876.265625,"ha":905,"o":"m 876 343 q 874 191 876 266 q 869 40 872 116 l 478 47 q 514 287 499 167 q 529 529 529 406 q 528 557 529 537 q 525 601 527 577 q 519 652 523 626 q 509 700 516 678 q 494 736 503 722 q 472 750 484 750 q 433 736 448 750 q 406 701 417 722 q 389 653 396 680 q 380 600 383 627 q 376 551 377 574 q 375 512 375 527 q 370 274 372 392 q 364 35 368 155 l 18 20 q 45 496 32 259 q 65 972 57 733 l 385 988 l 382 880 q 423 923 401 903 q 470 958 445 944 q 523 981 495 973 q 583 990 552 990 q 684 971 640 990 q 758 919 727 952 q 811 842 790 887 q 845 748 832 798 q 864 643 857 697 q 873 535 871 588 q 876 433 876 482 q 876 343 876 383 m 517 -109 q 508 -158 517 -131 q 481 -211 498 -185 q 440 -261 464 -238 q 387 -300 416 -285 q 386 -289 387 -300 q 385 -263 386 -279 q 383 -230 384 -248 q 382 -199 382 -213 q 335 -163 352 -188 q 318 -106 318 -137 q 326 -67 318 -85 q 347 -36 334 -49 q 379 -14 361 -22 q 418 -6 397 -6 q 456 -14 438 -6 q 488 -36 475 -22 q 510 -67 502 -49 q 517 -106 517 -85 l 517 -109 "},"µ":{"x_min":29.84375,"x_max":1007.84375,"ha":1039,"o":"m 29 -236 l 99 425 q 113 551 104 486 q 136 681 123 616 q 167 810 149 746 q 207 931 185 873 q 372 920 289 925 q 538 914 455 915 q 495 797 516 855 q 454 679 473 738 q 419 560 434 620 q 397 439 404 500 q 394 400 396 426 q 395 348 392 375 q 407 302 398 322 q 439 282 417 282 q 488 302 465 281 q 531 360 511 324 q 567 444 550 396 q 598 545 584 493 q 623 651 612 598 q 642 752 634 705 q 655 837 650 799 q 663 896 661 875 q 667 948 667 921 q 750 945 706 946 q 837 942 793 943 q 924 940 881 940 q 1007 941 967 940 q 899 471 948 707 q 803 1 849 235 l 493 -10 l 520 90 q 485 64 505 75 q 443 47 465 54 q 400 38 422 41 q 359 36 379 35 l 356 36 l 325 -242 l 29 -236 "},"ỳ":{"x_min":-27.125,"x_max":870.84375,"ha":841,"o":"m 870 918 l 552 397 l 561 13 l 212 13 l 221 394 l -27 897 l 318 941 l 427 648 l 545 941 l 870 918 m 390 929 q 241 1033 315 985 q 88 1128 166 1082 l 222 1287 q 326 1188 276 1236 q 369 1145 347 1167 q 411 1100 391 1122 q 450 1057 432 1078 q 481 1020 468 1037 l 390 929 "},"č":{"x_min":10.171875,"x_max":696.53125,"ha":712,"o":"m 681 926 l 657 640 q 618 647 637 645 q 579 649 599 649 q 487 637 531 649 q 410 600 444 625 q 357 536 377 575 q 337 446 337 498 q 348 380 337 408 q 380 333 359 352 q 430 305 400 314 q 495 295 459 295 q 547 300 520 295 q 600 314 573 305 q 651 335 626 323 q 696 359 675 346 l 685 40 q 628 16 659 27 q 565 -1 598 6 q 501 -13 533 -9 q 440 -17 469 -17 q 264 18 343 -17 q 129 116 185 54 q 41 260 72 178 q 10 435 10 342 q 41 642 10 546 q 134 810 73 739 q 286 921 196 881 q 494 961 377 961 q 589 954 541 961 q 681 926 637 946 m 596 1216 q 565 1168 583 1195 q 526 1112 547 1141 q 484 1053 506 1083 q 444 999 463 1024 l 311 980 l 115 1195 l 258 1286 l 364 1148 l 447 1281 l 596 1216 "},"’":{"x_min":6.78125,"x_max":291.671875,"ha":298,"o":"m 291 855 q 277 785 290 824 q 240 709 264 746 q 181 637 215 671 q 104 581 147 604 q 103 597 104 582 q 102 635 103 613 q 99 682 101 657 q 97 727 98 707 q 31 779 55 742 q 6 859 6 815 q 17 914 6 889 q 48 960 29 940 q 93 990 67 979 q 149 1002 119 1002 q 204 990 178 1002 q 249 960 230 979 q 280 914 269 940 q 291 859 292 889 l 291 855 "},"-":{"x_min":44.078125,"x_max":484.921875,"ha":531,"o":"m 46 374 l 44 577 l 482 598 l 484 366 l 46 374 "},"Q":{"x_min":6.109375,"x_max":946.125,"ha":960,"o":"m 946 504 q 907 307 946 401 q 792 143 869 214 l 886 32 l 638 -127 l 579 32 q 528 24 554 27 q 475 21 501 21 q 350 37 410 21 q 238 83 290 54 q 143 155 186 113 q 70 248 101 197 q 22 360 39 300 q 6 485 6 420 q 22 610 6 550 q 67 725 37 671 q 138 823 96 778 q 231 899 180 867 q 343 949 283 931 q 468 967 402 967 q 661 935 573 967 q 812 843 749 903 q 910 698 875 784 q 946 504 946 612 m 616 485 q 607 546 616 516 q 580 598 598 575 q 536 634 562 621 q 475 648 510 648 q 414 636 441 648 q 367 603 387 624 q 338 554 348 582 q 327 492 327 525 q 336 431 327 461 q 363 376 345 400 q 407 337 381 352 q 468 322 434 322 q 529 336 501 322 q 576 371 556 349 q 605 423 595 394 q 616 485 616 453 "},"M":{"x_min":33.234375,"x_max":1083.125,"ha":1098,"o":"m 1083 988 l 1020 -6 l 711 -20 l 714 504 l 574 81 l 455 81 l 347 459 l 346 20 l 33 10 l 46 948 l 395 961 l 533 512 l 718 988 l 1083 988 "},"̦":{"x_min":9.5,"x_max":208.890625,"ha":219,"o":"m 208 -163 q 199 -212 208 -185 q 172 -265 189 -239 q 131 -315 155 -292 q 78 -354 107 -339 q 77 -343 78 -354 q 76 -317 77 -333 q 74 -284 75 -302 q 73 -253 73 -267 q 26 -217 43 -242 q 9 -160 9 -191 q 17 -121 9 -139 q 38 -90 25 -103 q 70 -68 52 -76 q 109 -60 88 -60 q 147 -68 129 -60 q 179 -90 166 -76 q 201 -121 193 -103 q 208 -160 208 -139 l 208 -163 "},"œ":{"x_min":10.171875,"x_max":1353.046875,"ha":1363,"o":"m 1353 548 q 1344 430 1353 489 q 1114 405 1228 422 q 885 373 999 389 q 940 295 902 324 q 1030 265 978 265 q 1089 276 1057 265 q 1153 301 1121 286 q 1214 334 1185 316 q 1264 366 1243 352 l 1232 58 q 1175 23 1205 37 q 1110 0 1144 9 q 1043 -12 1077 -8 q 977 -16 1009 -16 q 882 -5 926 -16 q 799 25 837 5 q 729 72 760 44 q 672 134 697 100 q 565 84 623 101 q 441 66 507 66 q 325 82 380 66 q 221 125 269 97 q 134 193 173 153 q 67 281 95 233 q 25 385 40 330 q 10 501 10 441 q 24 617 10 560 q 65 724 38 674 q 130 816 92 774 q 215 889 168 858 q 317 936 262 919 q 433 953 372 953 q 591 930 519 953 q 718 864 663 906 q 840 950 770 918 q 1001 982 910 982 q 1111 965 1062 982 q 1200 919 1161 948 q 1268 849 1239 889 q 1316 759 1297 808 q 1343 657 1334 711 q 1353 548 1353 603 m 570 501 q 561 558 570 531 q 537 607 553 585 q 496 641 520 628 q 441 655 472 655 q 384 643 409 655 q 341 612 359 632 q 314 565 323 592 q 304 508 304 538 q 312 451 304 480 q 337 400 320 423 q 377 362 353 377 q 433 348 401 348 q 490 361 465 348 q 533 395 516 373 q 560 444 551 416 q 570 501 570 472 m 1081 583 q 1077 622 1081 602 q 1064 658 1073 642 q 1040 685 1055 674 q 1003 695 1025 695 q 955 681 975 695 q 919 644 934 666 q 895 596 904 622 q 881 549 885 571 l 1081 568 l 1081 583 "},"ě":{"x_min":11.53125,"x_max":791.484375,"ha":801,"o":"m 791 548 q 783 430 791 489 q 552 405 667 422 q 323 373 438 389 q 378 295 341 324 q 468 265 416 265 q 528 276 495 265 q 592 301 560 286 q 653 334 623 316 q 703 366 682 352 l 670 58 q 613 23 644 37 q 549 0 582 9 q 482 -12 516 -8 q 415 -16 448 -16 q 292 2 348 -16 q 192 53 237 20 q 113 130 147 86 q 56 228 79 175 q 23 340 34 281 q 11 459 11 399 q 23 585 11 522 q 57 707 34 649 q 116 815 81 765 q 200 902 152 865 q 307 961 247 940 q 440 982 367 982 q 550 965 500 982 q 639 919 600 948 q 707 849 678 889 q 754 759 735 808 q 782 657 773 711 q 791 548 791 603 m 520 583 q 516 622 520 602 q 502 658 512 642 q 478 685 493 674 q 441 695 463 695 q 393 681 414 695 q 358 644 373 666 q 333 596 343 622 q 319 549 324 571 l 520 568 l 520 583 m 637 1238 q 606 1190 624 1217 q 567 1134 588 1163 q 525 1075 547 1105 q 485 1021 504 1046 l 352 1002 l 156 1217 l 299 1308 l 405 1170 l 488 1303 l 637 1238 "},"ũ":{"x_min":23.734375,"x_max":843.03125,"ha":849,"o":"m 843 954 q 790 479 812 716 q 749 4 769 243 l 471 -16 l 483 88 q 452 61 470 72 q 413 42 434 49 q 371 32 393 35 q 330 29 349 29 q 243 47 284 30 q 168 93 202 65 q 107 161 134 122 q 62 241 80 199 q 33 328 43 284 q 23 413 23 372 q 26 540 23 474 q 34 671 28 605 q 50 801 40 737 q 75 925 60 866 q 241 917 158 921 q 407 915 324 914 q 376 797 392 856 q 349 677 361 737 q 329 557 337 617 q 322 435 322 497 q 323 394 322 421 q 330 342 324 368 q 348 297 336 316 q 381 278 360 278 q 427 300 407 278 q 463 359 448 322 q 490 445 479 396 q 509 547 501 494 q 522 655 517 600 q 529 757 526 709 q 532 843 531 805 q 533 902 533 881 q 533 928 533 915 q 531 954 532 941 q 618 952 575 953 q 706 952 661 952 q 774 952 739 952 q 843 954 808 952 m 708 1166 q 694 1092 708 1126 q 655 1033 680 1058 q 597 994 630 1008 q 525 980 563 980 q 474 991 495 980 q 438 1018 453 1001 q 413 1053 424 1034 q 394 1088 403 1072 q 376 1115 385 1104 q 355 1126 367 1126 q 343 1122 348 1126 q 334 1111 337 1117 q 330 1098 331 1105 q 328 1084 328 1090 q 333 1044 328 1064 q 346 1007 338 1025 l 180 993 q 169 1051 172 1022 q 166 1107 166 1079 q 176 1185 166 1149 q 209 1247 187 1220 q 261 1289 230 1273 q 335 1304 293 1304 q 397 1292 372 1304 q 437 1264 421 1281 q 463 1227 454 1247 q 480 1189 472 1206 q 494 1161 487 1172 q 511 1149 501 1149 q 532 1161 525 1149 q 540 1186 540 1174 q 532 1226 540 1206 q 514 1260 524 1245 l 682 1288 q 701 1228 694 1258 q 708 1166 708 1197 "},"ŭ":{"x_min":23.734375,"x_max":843.03125,"ha":849,"o":"m 843 954 q 790 479 812 716 q 749 4 769 243 l 471 -16 l 483 88 q 452 61 470 72 q 413 42 434 49 q 371 32 393 35 q 330 29 349 29 q 243 47 284 30 q 168 93 202 65 q 107 161 134 122 q 62 241 80 199 q 33 328 43 284 q 23 413 23 372 q 26 540 23 474 q 34 671 28 605 q 50 801 40 737 q 75 925 60 866 q 241 917 158 921 q 407 915 324 914 q 376 797 392 856 q 349 677 361 737 q 329 557 337 617 q 322 435 322 497 q 323 394 322 421 q 330 342 324 368 q 348 297 336 316 q 381 278 360 278 q 427 300 407 278 q 463 359 448 322 q 490 445 479 396 q 509 547 501 494 q 522 655 517 600 q 529 757 526 709 q 532 843 531 805 q 533 902 533 881 q 533 928 533 915 q 531 954 532 941 q 618 952 575 953 q 706 952 661 952 q 774 952 739 952 q 843 954 808 952 m 626 1166 q 610 1086 626 1123 q 566 1022 594 1049 q 502 979 539 994 q 422 964 464 964 q 336 979 373 964 q 274 1021 299 994 q 236 1088 249 1049 q 223 1177 223 1127 q 223 1193 223 1184 q 224 1208 223 1201 l 382 1188 q 382 1163 381 1177 q 389 1137 384 1149 q 403 1115 394 1124 q 428 1106 412 1106 q 444 1111 437 1106 q 454 1125 450 1117 q 460 1142 458 1133 q 462 1159 462 1151 q 457 1197 462 1179 q 447 1233 453 1214 l 611 1262 q 621 1215 617 1240 q 626 1166 626 1190 "},"{":{"x_min":-4.0625,"x_max":604.96875,"ha":570,"o":"m 531 843 q 455 858 495 858 q 393 843 413 858 q 373 797 373 827 q 379 752 373 774 q 393 709 385 731 q 407 666 400 688 q 413 622 413 644 q 374 538 413 566 q 261 511 334 511 q 327 486 297 503 q 379 447 358 470 q 412 397 400 424 q 424 343 424 370 q 416 298 424 320 q 399 254 408 276 q 382 210 389 232 q 374 165 374 188 q 388 126 374 143 q 424 96 402 109 q 473 77 446 84 q 526 67 500 70 l 425 -120 q 315 -103 368 -122 q 219 -53 261 -84 q 152 17 177 -22 q 127 100 127 58 q 135 147 127 124 q 153 192 143 170 q 172 238 164 215 q 180 286 180 261 q 163 331 180 311 q 119 366 146 352 q 60 385 92 379 q -4 389 27 392 l 2 576 q 15 575 10 575 q 28 575 21 575 q 80 581 55 575 q 122 599 104 588 q 151 628 141 611 q 162 667 162 645 q 154 717 162 692 q 137 766 146 741 q 119 815 127 790 q 111 865 111 839 q 136 946 111 908 q 202 1012 161 984 q 297 1055 244 1039 q 408 1071 351 1071 q 511 1058 461 1071 q 604 1024 560 1044 l 531 843 "},"¼":{"x_min":25.765625,"x_max":797.59375,"ha":838,"o":"m 299 803 l 280 417 l 126 423 l 135 678 l 78 649 l 25 741 l 141 808 l 299 803 m 619 843 q 457 458 531 654 q 320 63 383 263 l 179 115 q 258 311 218 213 q 339 506 297 409 q 426 698 381 603 q 522 887 471 794 l 619 843 m 797 225 l 766 223 l 760 107 l 600 96 l 609 222 l 420 218 l 473 455 l 606 455 l 567 290 l 614 291 l 626 497 l 779 497 l 770 295 l 797 297 l 797 225 "},"#":{"x_min":28.484375,"x_max":801.65625,"ha":842,"o":"m 777 518 l 655 520 l 640 412 l 758 413 l 732 230 l 613 230 l 596 112 l 374 115 l 393 230 l 326 230 l 310 142 l 112 146 l 126 230 l 28 229 l 59 411 l 157 411 l 180 531 l 78 533 l 111 709 l 211 706 l 227 811 l 420 798 l 404 704 l 474 704 l 504 868 l 704 861 l 680 698 l 801 697 l 777 518 m 375 527 l 355 411 l 424 412 l 444 526 l 375 527 "},"Ĳ":{"x_min":40.015625,"x_max":1080.296875,"ha":1106,"o":"m 400 954 l 326 31 l 40 16 l 40 935 l 400 954 m 1080 558 q 1080 479 1080 518 q 1076 400 1080 440 q 1039 239 1068 315 q 960 107 1010 164 q 839 16 910 50 q 676 -16 768 -16 q 601 -10 640 -16 q 523 8 562 -4 q 450 38 485 20 q 388 80 415 56 l 430 360 q 519 298 470 322 q 625 274 568 274 q 688 284 663 274 q 731 314 714 295 q 758 359 748 333 q 772 413 768 384 q 778 472 777 442 q 779 533 779 503 q 768 747 779 640 q 749 961 757 854 l 1059 982 q 1080 558 1080 770 "},"Ê":{"x_min":29.84375,"x_max":676.859375,"ha":665,"o":"m 676 978 q 669 851 672 914 q 660 725 666 789 l 373 710 l 366 625 l 568 625 l 553 415 l 349 408 l 343 309 l 511 309 l 630 309 q 622 161 626 234 q 614 13 617 87 l 29 0 l 51 978 l 676 978 m 450 1001 l 344 1140 l 262 1008 l 113 1072 q 144 1121 125 1093 q 184 1180 163 1149 q 227 1240 205 1210 q 268 1296 249 1270 l 408 1297 l 594 1090 l 450 1001 "},")":{"x_min":-40.6875,"x_max":512.734375,"ha":530,"o":"m 512 455 q 503 354 512 406 q 476 249 494 301 q 432 145 459 196 q 370 47 405 94 q 291 -40 335 0 q 195 -112 247 -80 l -40 -6 q 73 87 25 32 q 154 205 122 142 q 201 334 185 267 q 217 461 217 400 q 204 590 217 522 q 166 724 191 658 q 100 851 140 790 q 6 960 61 912 l 248 1058 q 336 981 297 1025 q 404 885 375 936 q 454 778 434 834 q 488 666 475 722 q 506 556 501 610 q 512 455 512 502 "},"Å":{"x_min":-26.453125,"x_max":885.078125,"ha":861,"o":"m 634 1079 q 625 1021 634 1049 q 601 969 617 993 l 620 971 l 885 58 l 548 14 l 507 168 l 353 168 l 319 14 l -26 48 l 243 952 l 267 953 q 234 1011 246 979 q 223 1079 223 1043 q 239 1157 223 1121 q 283 1219 255 1193 q 347 1262 310 1246 q 426 1277 384 1277 q 507 1262 470 1277 q 573 1219 545 1246 q 617 1157 601 1193 q 634 1079 634 1121 m 494 1075 q 490 1104 494 1090 q 478 1128 485 1118 q 460 1145 470 1139 q 437 1151 449 1151 q 414 1145 425 1151 q 395 1128 403 1139 q 382 1104 387 1118 q 377 1075 377 1090 q 382 1045 377 1059 q 395 1020 387 1030 q 414 1004 403 1010 q 437 998 425 998 q 478 1020 461 998 q 494 1075 494 1043 m 483 375 l 432 611 l 381 375 l 483 375 "},"¸":{"x_min":0,"x_max":287.5625,"ha":288,"o":"m 287 -198 q 275 -264 287 -237 q 240 -308 262 -291 q 187 -334 217 -326 q 120 -341 156 -341 q 91 -340 107 -341 q 58 -334 75 -338 q 26 -325 42 -330 q 0 -310 10 -319 l 59 -203 q 78 -210 67 -207 q 99 -212 89 -212 q 123 -205 111 -212 q 135 -184 135 -198 q 129 -167 135 -174 q 114 -157 123 -161 q 94 -151 105 -153 q 77 -150 84 -150 q 50 -152 63 -150 q 23 -157 36 -153 l 32 37 l 149 36 l 147 -63 q 203 -74 177 -65 q 247 -101 229 -84 q 277 -143 266 -118 q 287 -198 287 -167 "},"a":{"x_min":-21.703125,"x_max":889.828125,"ha":869,"o":"m 889 58 l 553 14 l 512 168 l 358 168 l 324 14 l -21 48 l 248 952 l 625 971 l 889 58 m 488 375 l 436 611 l 386 375 l 488 375 "},"Ę":{"x_min":29.84375,"x_max":676.859375,"ha":665,"o":"m 607 -191 q 540 -241 577 -220 q 461 -262 503 -262 q 402 -251 430 -262 q 354 -222 375 -241 q 321 -178 333 -204 q 309 -120 309 -151 q 324 -51 309 -83 q 364 7 340 -19 l 29 0 l 51 978 l 676 978 q 669 851 672 914 q 660 725 666 789 l 373 710 l 366 625 l 568 625 l 553 415 l 349 408 l 343 309 l 630 309 q 622 161 626 234 q 614 13 617 87 l 520 11 q 498 -17 509 -2 q 477 -48 486 -33 q 462 -76 468 -63 q 457 -99 457 -90 q 465 -120 457 -111 q 486 -128 474 -128 q 516 -117 500 -128 q 541 -95 533 -107 l 607 -191 "},"=":{"x_min":49.515625,"x_max":490.359375,"ha":543,"o":"m 52 198 l 49 401 l 487 401 l 490 169 l 52 198 m 52 469 l 49 672 l 487 693 l 490 461 l 52 469 "},"˚":{"x_min":0,"x_max":411,"ha":411,"o":"m 411 1063 q 394 984 411 1021 q 350 921 378 948 q 286 878 323 893 q 207 862 248 862 q 126 878 164 862 q 60 921 88 893 q 16 984 32 948 q 0 1063 0 1021 q 16 1140 0 1104 q 60 1203 32 1176 q 124 1245 87 1230 q 203 1261 161 1261 q 284 1245 246 1261 q 350 1203 322 1230 q 394 1140 378 1176 q 411 1063 411 1104 m 271 1059 q 266 1088 271 1074 q 255 1112 262 1102 q 237 1129 247 1123 q 214 1135 226 1135 q 191 1129 202 1135 q 172 1112 180 1123 q 159 1088 164 1102 q 154 1059 154 1074 q 159 1028 154 1043 q 172 1004 164 1014 q 191 988 180 994 q 214 982 202 982 q 255 1004 238 982 q 271 1059 271 1026 "},"ú":{"x_min":23.734375,"x_max":843.03125,"ha":849,"o":"m 843 954 q 790 479 812 716 q 749 4 769 243 l 471 -16 l 483 88 q 452 61 470 72 q 413 42 434 49 q 371 32 393 35 q 330 29 349 29 q 243 47 284 30 q 168 93 202 65 q 107 161 134 122 q 62 241 80 199 q 33 328 43 284 q 23 413 23 372 q 26 540 23 474 q 34 671 28 605 q 50 801 40 737 q 75 925 60 866 q 241 917 158 921 q 407 915 324 914 q 376 797 392 856 q 349 677 361 737 q 329 557 337 617 q 322 435 322 497 q 323 394 322 421 q 330 342 324 368 q 348 297 336 316 q 381 278 360 278 q 427 300 407 278 q 463 359 448 322 q 490 445 479 396 q 509 547 501 494 q 522 655 517 600 q 529 757 526 709 q 532 843 531 805 q 533 902 533 881 q 533 928 533 915 q 531 954 532 941 q 618 952 575 953 q 706 952 661 952 q 774 952 739 952 q 843 954 808 952 m 790 1141 q 633 1052 709 1097 q 479 954 556 1007 l 393 1049 q 425 1085 406 1065 q 465 1126 444 1105 q 510 1169 487 1147 q 555 1210 533 1190 q 662 1304 606 1256 l 790 1141 "},"¯":{"x_min":0,"x_max":443.5625,"ha":444,"o":"m 440 1011 l 12 1017 l 0 1178 l 443 1186 l 440 1011 "},"Z":{"x_min":8.140625,"x_max":655.15625,"ha":676,"o":"m 655 744 l 344 325 l 644 325 l 640 37 l 35 13 l 8 279 l 362 740 l 37 716 l 35 988 l 642 988 l 655 744 "},"u":{"x_min":23.734375,"x_max":843.03125,"ha":849,"o":"m 843 954 q 790 479 812 716 q 749 4 769 243 l 471 -16 l 483 88 q 452 61 470 72 q 413 42 434 49 q 371 32 393 35 q 330 29 349 29 q 243 47 284 30 q 168 93 202 65 q 107 161 134 122 q 62 241 80 199 q 33 328 43 284 q 23 413 23 372 q 26 540 23 474 q 34 671 28 605 q 50 801 40 737 q 75 925 60 866 q 241 917 158 921 q 407 915 324 914 q 376 797 392 856 q 349 677 361 737 q 329 557 337 617 q 322 435 322 497 q 323 394 322 421 q 330 342 324 368 q 348 297 336 316 q 381 278 360 278 q 427 300 407 278 q 463 359 448 322 q 490 445 479 396 q 509 547 501 494 q 522 655 517 600 q 529 757 526 709 q 532 843 531 805 q 533 902 533 881 q 533 928 533 915 q 531 954 532 941 q 618 952 575 953 q 706 952 661 952 q 774 952 739 952 q 843 954 808 952 "},"k":{"x_min":29.84375,"x_max":868.125,"ha":837,"o":"m 868 876 l 568 519 l 843 52 l 529 -2 l 322 276 l 311 10 l 29 0 l 51 971 l 367 953 l 343 674 l 539 957 l 868 876 "},"Ù":{"x_min":22.375,"x_max":845.75,"ha":865,"o":"m 845 754 q 841 643 845 704 q 825 518 836 583 q 797 388 814 454 q 754 261 779 322 q 694 146 728 200 q 615 53 659 93 q 516 -8 571 14 q 394 -31 461 -31 q 257 -5 315 -31 q 158 62 199 19 q 90 163 116 105 q 48 284 63 220 q 28 415 33 348 q 22 543 22 482 q 31 733 22 638 q 59 922 41 828 l 376 910 q 344 696 358 803 q 331 480 331 588 q 332 445 331 468 q 336 395 333 423 q 344 337 339 366 q 358 283 349 307 q 379 243 366 259 q 408 227 392 227 q 444 246 428 227 q 471 296 459 265 q 492 368 483 327 q 507 453 501 408 q 517 541 513 497 q 523 623 520 585 q 526 690 525 661 q 526 733 526 719 q 525 839 526 786 q 520 944 523 891 l 837 944 q 845 754 845 850 m 408 946 q 259 1050 333 1002 q 106 1145 184 1099 l 240 1304 q 344 1205 294 1253 q 387 1162 365 1184 q 429 1117 409 1139 q 468 1074 450 1095 q 499 1037 486 1054 l 408 946 "},"Ů":{"x_min":22.375,"x_max":845.75,"ha":865,"o":"m 845 754 q 841 643 845 704 q 825 518 836 583 q 797 388 814 454 q 754 261 779 322 q 694 146 728 200 q 615 53 659 93 q 516 -8 571 14 q 394 -31 461 -31 q 257 -5 315 -31 q 158 62 199 19 q 90 163 116 105 q 48 284 63 220 q 28 415 33 348 q 22 543 22 482 q 31 733 22 638 q 59 922 41 828 l 376 910 q 344 696 358 803 q 331 480 331 588 q 332 445 331 468 q 336 395 333 423 q 344 337 339 366 q 358 283 349 307 q 379 243 366 259 q 408 227 392 227 q 444 246 428 227 q 471 296 459 265 q 492 368 483 327 q 507 453 501 408 q 517 541 513 497 q 523 623 520 585 q 526 690 525 661 q 526 733 526 719 q 525 839 526 786 q 520 944 523 891 l 837 944 q 845 754 845 850 m 635 1167 q 618 1088 635 1125 q 574 1025 602 1052 q 510 982 547 997 q 431 966 472 966 q 350 982 388 966 q 284 1025 312 997 q 240 1088 256 1052 q 224 1167 224 1125 q 240 1244 224 1208 q 284 1307 256 1280 q 348 1349 311 1334 q 427 1365 385 1365 q 508 1349 470 1365 q 574 1307 546 1334 q 618 1244 602 1280 q 635 1167 635 1208 m 495 1163 q 490 1192 495 1178 q 479 1216 486 1206 q 461 1233 471 1227 q 438 1239 450 1239 q 415 1233 426 1239 q 396 1216 404 1227 q 383 1192 388 1206 q 378 1163 378 1178 q 383 1132 378 1147 q 396 1108 388 1118 q 415 1092 404 1098 q 438 1086 426 1086 q 479 1108 462 1086 q 495 1163 495 1130 "},"¢":{"x_min":27.8125,"x_max":547.328125,"ha":586,"o":"m 263 -99 l 270 169 q 170 207 215 181 q 93 270 125 233 q 45 352 62 307 q 27 447 27 397 q 43 554 27 503 q 89 645 59 604 q 164 716 120 686 q 267 762 209 746 l 255 1052 l 342 1045 l 333 774 q 394 778 361 778 q 464 774 428 778 q 535 756 501 770 l 516 576 q 487 580 501 579 q 457 581 473 581 q 389 574 421 581 q 331 550 356 566 q 290 510 305 534 q 276 453 276 486 q 307 382 276 406 q 395 359 339 359 q 474 371 433 359 q 547 398 515 383 l 539 198 q 496 183 519 189 q 448 171 472 176 q 399 164 423 166 q 352 161 374 161 l 333 161 l 343 -97 l 263 -99 "},"Ş":{"x_min":18.3125,"x_max":729.09375,"ha":737,"o":"m 524 -166 q 511 -232 524 -205 q 476 -277 499 -259 q 423 -302 454 -294 q 357 -309 393 -309 q 328 -308 344 -309 q 295 -302 311 -306 q 263 -293 278 -299 q 236 -278 247 -287 l 296 -171 q 315 -178 304 -175 q 335 -181 326 -181 q 360 -173 347 -181 q 372 -152 372 -166 q 366 -135 372 -142 q 350 -125 360 -129 q 331 -120 341 -121 q 314 -118 321 -118 q 286 -120 300 -118 q 259 -125 273 -122 l 265 -4 q 200 9 233 0 q 134 31 166 19 q 71 55 101 42 q 18 78 42 67 l 48 358 q 175 305 105 323 q 314 287 246 287 q 345 288 326 287 q 380 294 363 289 q 408 309 396 299 q 419 339 419 320 q 411 361 419 352 q 390 376 403 370 q 361 384 377 381 q 329 389 345 387 q 300 390 314 390 q 278 390 286 390 q 172 411 220 390 q 90 467 124 431 q 37 553 56 503 q 18 661 18 603 q 50 805 18 741 q 136 913 82 868 q 260 981 190 957 q 404 1005 330 1005 q 473 1002 438 1005 q 543 994 508 1000 q 611 978 578 988 q 674 954 644 969 l 649 679 q 552 705 602 695 q 453 716 501 716 q 431 715 444 716 q 401 713 417 715 q 370 708 386 712 q 343 699 355 705 q 323 684 330 693 q 316 661 316 674 q 327 637 317 647 q 355 623 338 628 q 391 616 371 618 q 431 614 411 614 q 467 614 451 613 q 495 613 484 614 q 593 590 550 609 q 667 537 636 570 q 713 460 697 505 q 729 360 729 415 q 702 212 729 277 q 630 102 676 147 q 521 29 584 56 q 384 -5 458 2 l 384 -31 q 440 -42 414 -33 q 484 -69 465 -52 q 513 -111 503 -86 q 524 -166 524 -135 "},"é":{"x_min":11.53125,"x_max":791.484375,"ha":801,"o":"m 791 548 q 783 430 791 489 q 552 405 667 422 q 323 373 438 389 q 378 295 341 324 q 468 265 416 265 q 528 276 495 265 q 592 301 560 286 q 653 334 623 316 q 703 366 682 352 l 670 58 q 613 23 644 37 q 549 0 582 9 q 482 -12 516 -8 q 415 -16 448 -16 q 292 2 348 -16 q 192 53 237 20 q 113 130 147 86 q 56 228 79 175 q 23 340 34 281 q 11 459 11 399 q 23 585 11 522 q 57 707 34 649 q 116 815 81 765 q 200 902 152 865 q 307 961 247 940 q 440 982 367 982 q 550 965 500 982 q 639 919 600 948 q 707 849 678 889 q 754 759 735 808 q 782 657 773 711 q 791 548 791 603 m 520 583 q 516 622 520 602 q 502 658 512 642 q 478 685 493 674 q 441 695 463 695 q 393 681 414 695 q 358 644 373 666 q 333 596 343 622 q 319 549 324 571 l 520 568 l 520 583 m 764 1194 q 607 1105 683 1150 q 453 1007 530 1060 l 367 1102 q 399 1138 380 1118 q 439 1179 418 1158 q 484 1222 461 1200 q 529 1263 507 1243 q 636 1357 580 1309 l 764 1194 "},"B":{"x_min":35.953125,"x_max":824.046875,"ha":825,"o":"m 824 241 q 803 144 824 185 q 748 75 782 103 q 668 28 713 46 q 574 0 623 10 q 476 -12 525 -9 q 384 -16 427 -16 q 297 -13 342 -16 q 207 -2 252 -10 q 119 17 162 4 q 37 48 75 29 l 35 922 q 116 950 73 937 q 203 971 159 963 q 292 984 248 980 q 377 988 336 988 q 475 982 425 988 q 569 962 524 976 q 654 925 615 948 q 723 869 693 902 q 769 792 752 836 q 786 690 786 748 q 775 619 786 652 q 744 559 764 585 q 694 514 723 533 q 628 486 665 495 q 709 453 672 475 q 770 398 745 430 q 810 326 796 366 q 824 241 824 286 m 479 628 q 471 661 479 647 q 451 684 463 675 q 425 697 439 693 q 400 701 411 701 q 374 697 387 701 q 349 687 361 693 l 345 537 q 383 539 360 537 q 428 551 406 542 q 464 578 449 560 q 479 628 479 596 m 383 406 q 345 402 363 406 l 342 248 q 362 244 352 246 q 381 242 372 242 q 413 245 396 242 q 444 258 430 248 q 469 282 459 267 q 479 324 479 298 q 469 366 479 349 q 445 391 459 382 q 414 403 431 400 q 383 406 397 406 "},"…":{"x_min":12.203125,"x_max":1056.671875,"ha":1068,"o":"m 297 139 q 285 84 297 109 q 254 39 274 58 q 209 8 235 19 q 154 -2 183 -2 q 99 8 124 -2 q 53 39 73 19 q 23 84 34 58 q 12 139 12 109 q 23 195 12 168 q 53 241 34 221 q 99 271 73 260 q 154 283 124 283 q 209 271 183 283 q 254 241 235 260 q 285 195 274 221 q 297 139 297 168 m 676 139 q 665 84 676 109 q 634 39 653 58 q 589 8 615 19 q 534 -2 563 -2 q 478 8 504 -2 q 433 39 453 19 q 403 84 414 58 q 392 139 392 109 q 403 195 392 168 q 433 241 414 221 q 478 271 453 260 q 534 283 504 283 q 589 271 563 283 q 634 241 615 260 q 665 195 653 221 q 676 139 676 168 m 1056 139 q 1045 84 1056 109 q 1014 39 1033 58 q 969 8 994 19 q 914 -2 943 -2 q 858 8 884 -2 q 813 39 832 19 q 783 84 794 58 q 771 139 771 109 q 783 195 771 168 q 813 241 794 221 q 858 271 832 260 q 914 283 884 283 q 969 271 943 283 q 1014 241 994 260 q 1045 195 1033 221 q 1056 139 1056 168 "},"ē":{"x_min":11.53125,"x_max":791.484375,"ha":801,"o":"m 791 548 q 783 430 791 489 q 552 405 667 422 q 323 373 438 389 q 378 295 341 324 q 468 265 416 265 q 528 276 495 265 q 592 301 560 286 q 653 334 623 316 q 703 366 682 352 l 670 58 q 613 23 644 37 q 549 0 582 9 q 482 -12 516 -8 q 415 -16 448 -16 q 292 2 348 -16 q 192 53 237 20 q 113 130 147 86 q 56 228 79 175 q 23 340 34 281 q 11 459 11 399 q 23 585 11 522 q 57 707 34 649 q 116 815 81 765 q 200 902 152 865 q 307 961 247 940 q 440 982 367 982 q 550 965 500 982 q 639 919 600 948 q 707 849 678 889 q 754 759 735 808 q 782 657 773 711 q 791 548 791 603 m 520 583 q 516 622 520 602 q 502 658 512 642 q 478 685 493 674 q 441 695 463 695 q 393 681 414 695 q 358 644 373 666 q 333 596 343 622 q 319 549 324 571 l 520 568 l 520 583 m 650 1014 l 222 1020 l 210 1181 l 653 1189 l 650 1014 "},"H":{"x_min":28.484375,"x_max":839.640625,"ha":869,"o":"m 839 0 l 500 -16 l 497 297 l 341 297 l 332 0 l 28 0 l 54 953 l 377 938 l 356 451 l 507 451 l 508 975 l 817 967 l 839 0 "},"î":{"x_min":-32,"x_max":449.53125,"ha":408,"o":"m 388 954 l 341 31 l 54 16 l 27 935 l 388 954 m 305 977 l 199 1116 l 117 984 l -32 1048 q 0 1097 -19 1069 q 39 1156 18 1125 q 82 1216 60 1186 q 123 1272 104 1246 l 263 1273 l 449 1066 l 305 977 "},"−":{"x_min":44.078125,"x_max":484.921875,"ha":531,"o":"m 46 374 l 44 577 l 482 598 l 484 366 l 46 374 "},"≠":{"x_min":45.4375,"x_max":486.28125,"ha":532,"o":"m 339 463 l 320 401 l 483 401 l 486 169 l 252 184 l 223 84 l 87 122 l 114 193 l 48 198 l 45 401 l 198 401 l 224 465 l 48 469 l 45 672 l 312 685 l 368 816 l 436 771 q 426 741 432 763 q 410 689 420 719 l 483 693 l 486 461 l 339 463 "},"¥":{"x_min":29.84375,"x_max":682.296875,"ha":710,"o":"m 453 313 l 457 184 l 204 184 l 207 317 l 113 320 l 115 374 l 208 373 l 210 412 l 113 415 l 111 455 l 183 458 l 29 714 l 280 740 l 359 565 l 444 740 l 682 727 l 493 473 l 549 476 l 552 406 l 450 408 l 451 371 l 549 371 l 552 311 l 453 313 "},"Ĥ":{"x_min":28.484375,"x_max":839.640625,"ha":869,"o":"m 839 0 l 500 -16 l 497 297 l 341 297 l 332 0 l 28 0 l 54 953 l 377 938 l 356 451 l 507 451 l 508 975 l 817 967 l 839 0 m 531 989 l 425 1128 l 343 996 l 194 1060 q 225 1109 206 1081 q 265 1168 244 1137 q 308 1228 286 1198 q 349 1284 330 1258 l 489 1285 l 675 1078 l 531 989 "},"U":{"x_min":22.375,"x_max":845.75,"ha":865,"o":"m 845 754 q 841 643 845 704 q 825 518 836 583 q 797 388 814 454 q 754 261 779 322 q 694 146 728 200 q 615 53 659 93 q 516 -8 571 14 q 394 -31 461 -31 q 257 -5 315 -31 q 158 62 199 19 q 90 163 116 105 q 48 284 63 220 q 28 415 33 348 q 22 543 22 482 q 31 733 22 638 q 59 922 41 828 l 376 910 q 344 696 358 803 q 331 480 331 588 q 332 445 331 468 q 336 395 333 423 q 344 337 339 366 q 358 283 349 307 q 379 243 366 259 q 408 227 392 227 q 444 246 428 227 q 471 296 459 265 q 492 368 483 327 q 507 453 501 408 q 517 541 513 497 q 523 623 520 585 q 526 690 525 661 q 526 733 526 719 q 525 839 526 786 q 520 944 523 891 l 837 944 q 845 754 845 850 "},"Ñ":{"x_min":27.8125,"x_max":956.96875,"ha":977,"o":"m 956 972 l 908 52 l 552 20 l 362 512 l 333 10 l 27 10 l 52 972 l 391 988 l 626 500 l 636 961 l 956 972 m 762 1188 q 748 1114 762 1148 q 709 1055 734 1080 q 651 1016 684 1030 q 579 1002 617 1002 q 528 1013 549 1002 q 492 1040 507 1023 q 467 1075 478 1056 q 448 1110 457 1094 q 430 1137 439 1126 q 409 1148 421 1148 q 397 1144 402 1148 q 388 1133 391 1139 q 384 1120 385 1127 q 382 1106 382 1112 q 387 1066 382 1086 q 400 1029 392 1047 l 234 1015 q 223 1073 226 1044 q 220 1129 220 1101 q 230 1207 220 1171 q 263 1269 241 1242 q 315 1311 284 1295 q 389 1326 347 1326 q 451 1314 426 1326 q 491 1286 475 1303 q 517 1249 508 1269 q 534 1211 526 1228 q 548 1183 541 1194 q 565 1171 555 1171 q 586 1183 579 1171 q 594 1208 594 1196 q 586 1248 594 1228 q 568 1282 578 1267 l 736 1310 q 755 1250 748 1280 q 762 1188 762 1219 "},"F":{"x_min":29.84375,"x_max":676.859375,"ha":677,"o":"m 676 978 q 669 851 672 914 q 660 725 666 789 l 373 710 l 373 625 l 622 625 l 609 415 l 371 408 l 373 6 l 29 0 l 51 978 l 676 978 "},"̒":{"x_min":6.734375,"x_max":206.1875,"ha":211,"o":"m 6 776 q 16 825 6 798 q 42 878 25 852 q 83 928 59 905 q 137 967 107 952 q 139 931 138 948 q 140 897 139 915 q 142 866 141 880 q 188 830 171 855 q 206 773 206 804 q 198 734 206 752 q 177 703 190 716 q 145 681 163 689 q 106 673 126 673 q 67 681 86 673 q 35 703 49 689 q 13 734 21 716 q 6 773 6 752 l 6 776 "},"ĵ":{"x_min":-9.5,"x_max":733.53125,"ha":708,"o":"m 682 558 q 682 479 682 518 q 678 400 682 440 q 641 239 670 315 q 562 107 612 164 q 441 16 512 50 q 278 -16 370 -16 q 203 -10 242 -16 q 125 8 164 -4 q 52 38 87 20 q -9 80 17 56 l 32 360 q 121 298 72 322 q 227 274 170 274 q 290 284 265 274 q 333 314 316 295 q 360 359 350 333 q 374 413 370 384 q 380 472 379 442 q 381 533 381 503 q 370 747 381 640 q 351 961 359 854 l 661 982 q 682 558 682 770 m 589 1001 l 483 1140 l 401 1008 l 252 1072 q 283 1121 264 1093 q 323 1180 302 1149 q 366 1240 344 1210 q 407 1296 388 1270 l 547 1297 l 733 1090 l 589 1001 "},"ā":{"x_min":-21.703125,"x_max":889.828125,"ha":869,"o":"m 889 58 l 553 14 l 512 168 l 358 168 l 324 14 l -21 48 l 248 952 l 625 971 l 889 58 m 488 375 l 436 611 l 386 375 l 488 375 m 653 1011 l 225 1017 l 213 1178 l 656 1186 l 653 1011 "},"Ĩ":{"x_min":-64,"x_max":478.578125,"ha":413,"o":"m 400 954 l 326 31 l 40 16 l 40 935 l 400 954 m 478 1162 q 464 1088 478 1122 q 425 1029 450 1054 q 367 990 400 1004 q 295 976 333 976 q 244 987 265 976 q 208 1014 223 997 q 183 1049 194 1030 q 164 1084 173 1068 q 146 1111 155 1100 q 125 1122 137 1122 q 113 1118 118 1122 q 104 1107 107 1113 q 100 1094 101 1101 q 98 1080 98 1086 q 103 1040 98 1060 q 116 1003 108 1021 l -49 989 q -60 1047 -57 1018 q -64 1103 -64 1075 q -53 1181 -64 1145 q -20 1243 -42 1216 q 31 1285 0 1269 q 105 1300 63 1300 q 167 1288 142 1300 q 207 1260 191 1277 q 233 1223 224 1243 q 250 1185 242 1202 q 264 1157 257 1168 q 281 1145 271 1145 q 302 1157 295 1145 q 310 1182 310 1170 q 302 1222 310 1202 q 284 1256 294 1241 l 452 1284 q 471 1224 464 1254 q 478 1162 478 1193 "},"ă":{"x_min":-21.703125,"x_max":889.828125,"ha":869,"o":"m 889 58 l 553 14 l 512 168 l 358 168 l 324 14 l -21 48 l 248 952 l 625 971 l 889 58 m 488 375 l 436 611 l 386 375 l 488 375 m 636 1194 q 620 1114 636 1151 q 576 1050 604 1077 q 512 1007 549 1022 q 432 992 474 992 q 346 1007 383 992 q 284 1049 309 1022 q 246 1116 259 1077 q 233 1205 233 1155 q 233 1221 233 1212 q 234 1236 233 1229 l 392 1216 q 392 1191 391 1205 q 399 1165 394 1177 q 413 1143 404 1152 q 438 1134 422 1134 q 454 1139 447 1134 q 464 1153 460 1145 q 470 1170 468 1161 q 472 1187 472 1179 q 467 1225 472 1207 q 457 1261 463 1242 l 621 1290 q 631 1243 627 1268 q 636 1194 636 1218 "},"*":{"x_min":27.8125,"x_max":712.8125,"ha":753,"o":"m 550 623 l 678 463 l 502 321 l 375 515 l 251 310 l 75 446 l 198 596 l 27 663 l 110 859 l 254 788 l 250 990 l 475 998 l 467 779 l 612 888 l 712 687 l 550 623 "},"†":{"x_min":31.203125,"x_max":659.234375,"ha":687,"o":"m 184 -126 l 179 609 l 32 609 l 31 843 l 177 843 l 176 1025 l 493 1018 l 493 843 l 659 843 l 653 607 l 493 607 l 495 -124 l 184 -126 "},"°":{"x_min":9.5,"x_max":420.5,"ha":430,"o":"m 420 769 q 404 690 420 727 q 360 626 387 653 q 295 583 333 599 q 217 568 258 568 q 135 583 173 568 q 70 626 98 599 q 25 690 42 653 q 9 769 9 727 q 25 846 9 810 q 69 909 42 882 q 133 951 96 935 q 212 967 170 967 q 294 951 256 967 q 359 909 331 935 q 404 846 387 882 q 420 769 420 810 m 280 765 q 276 793 280 779 q 264 818 271 807 q 246 834 257 828 q 223 841 236 841 q 200 834 211 841 q 181 818 189 828 q 168 793 173 807 q 164 765 164 779 q 168 734 164 748 q 181 710 173 720 q 200 693 189 699 q 223 687 211 687 q 264 710 248 687 q 280 765 280 732 "},"å":{"x_min":-26.453125,"x_max":885.078125,"ha":861,"o":"m 634 1063 q 611 969 634 1013 l 620 971 l 885 58 l 548 14 l 507 168 l 353 168 l 319 14 l -26 48 l 243 952 l 257 952 q 231 1003 240 975 q 223 1063 223 1031 q 239 1140 223 1104 q 283 1203 255 1176 q 347 1245 310 1230 q 426 1261 384 1261 q 507 1245 470 1261 q 573 1203 545 1230 q 617 1140 601 1176 q 634 1063 634 1104 m 494 1059 q 490 1088 494 1074 q 478 1112 485 1102 q 460 1129 470 1123 q 437 1135 449 1135 q 414 1129 425 1135 q 395 1112 403 1123 q 382 1088 387 1102 q 377 1059 377 1074 q 382 1028 377 1043 q 395 1004 387 1014 q 414 988 403 994 q 437 982 425 982 q 478 1004 461 982 q 494 1059 494 1026 m 483 375 l 432 611 l 381 375 l 483 375 "},"0":{"x_min":19.671875,"x_max":859.3125,"ha":879,"o":"m 859 485 q 846 366 859 425 q 807 253 832 307 q 746 152 782 199 q 663 71 710 105 q 560 16 616 36 q 440 -2 504 -2 q 318 16 375 -2 q 216 71 262 36 q 132 152 169 105 q 71 253 96 199 q 32 367 46 307 q 19 485 19 426 q 32 604 19 544 q 71 718 46 663 q 132 819 96 772 q 216 901 169 866 q 319 955 262 935 q 440 975 375 975 q 560 955 504 975 q 663 901 616 935 q 746 819 710 866 q 807 718 782 772 q 846 604 832 663 q 859 485 859 544 m 573 465 q 564 531 573 495 q 539 600 556 568 q 496 653 522 632 q 433 675 470 675 q 369 653 396 675 q 325 600 343 632 q 300 531 308 568 q 292 465 292 495 q 300 398 292 435 q 325 330 308 362 q 369 276 343 298 q 433 255 396 255 q 496 276 470 255 q 539 330 522 298 q 564 398 556 362 q 573 465 573 435 "},"ō":{"x_min":11.53125,"x_max":872.875,"ha":886,"o":"m 872 519 q 858 400 872 457 q 817 292 844 343 q 752 201 790 242 q 666 129 714 159 q 562 83 618 99 q 442 66 505 66 q 326 82 381 66 q 223 125 271 97 q 135 193 174 153 q 69 281 96 233 q 26 385 42 330 q 11 501 11 441 q 25 617 11 560 q 66 724 40 674 q 131 816 93 774 q 216 889 169 858 q 318 936 263 919 q 434 953 373 953 q 614 923 533 953 q 752 835 695 892 q 841 698 809 779 q 872 519 872 618 m 571 501 q 563 558 571 531 q 538 607 554 585 q 498 641 522 628 q 442 655 474 655 q 385 643 411 655 q 342 612 360 632 q 315 565 324 592 q 305 508 305 538 q 314 451 305 480 q 338 400 322 423 q 378 362 354 377 q 434 348 402 348 q 492 361 466 348 q 535 395 517 373 q 562 444 552 416 q 571 501 571 472 m 661 983 l 233 989 l 221 1150 l 664 1158 l 661 983 "},"”":{"x_min":6.78125,"x_max":610.4375,"ha":617,"o":"m 291 855 q 277 785 290 824 q 240 709 264 746 q 181 637 215 671 q 104 581 147 604 q 103 597 104 582 q 102 635 103 613 q 99 682 101 657 q 97 727 98 707 q 31 779 55 742 q 6 859 6 815 q 17 914 6 889 q 48 960 29 940 q 93 990 67 979 q 149 1002 119 1002 q 204 990 178 1002 q 249 960 230 979 q 280 914 269 940 q 291 859 292 889 l 291 855 m 610 855 q 596 785 609 824 q 558 709 583 746 q 500 637 534 671 q 423 581 465 604 q 422 597 423 582 q 420 635 421 613 q 418 682 419 657 q 416 727 417 707 q 349 779 374 742 q 325 859 325 815 q 336 914 325 889 q 367 960 347 940 q 412 990 386 979 q 467 1002 438 1002 q 523 990 497 1002 q 568 960 549 979 q 599 914 588 940 q 610 859 611 889 l 610 855 "},"ŵ":{"x_min":4.75,"x_max":1259.453125,"ha":1264,"o":"m 1259 941 l 1100 28 l 715 20 l 632 480 l 550 55 l 164 42 l 4 914 l 341 944 l 408 408 l 499 903 l 764 903 l 870 401 l 924 971 l 1259 941 m 728 932 l 622 1071 l 540 939 l 391 1003 q 422 1052 403 1024 q 462 1111 441 1080 q 505 1171 483 1141 q 546 1227 527 1201 l 686 1228 l 872 1021 l 728 932 "},"Ķ":{"x_min":29.15625,"x_max":894.578125,"ha":853,"o":"m 894 971 l 567 519 l 843 39 l 528 -16 l 322 276 l 311 -29 l 29 -40 l 50 998 l 366 980 l 342 674 l 552 998 l 894 971 m 517 -163 q 508 -212 517 -185 q 481 -265 498 -239 q 440 -315 464 -292 q 387 -354 416 -339 q 386 -343 387 -354 q 385 -317 386 -333 q 383 -284 384 -302 q 382 -253 382 -267 q 335 -217 352 -242 q 318 -160 318 -191 q 326 -121 318 -139 q 347 -90 334 -103 q 379 -68 361 -76 q 418 -60 397 -60 q 456 -68 438 -60 q 488 -90 475 -76 q 510 -121 502 -103 q 517 -160 517 -139 l 517 -163 "},"ö":{"x_min":11.53125,"x_max":872.875,"ha":886,"o":"m 872 519 q 858 400 872 457 q 817 292 844 343 q 752 201 790 242 q 666 129 714 159 q 562 83 618 99 q 442 66 505 66 q 326 82 381 66 q 223 125 271 97 q 135 193 174 153 q 69 281 96 233 q 26 385 42 330 q 11 501 11 441 q 25 617 11 560 q 66 724 40 674 q 131 816 93 774 q 216 889 169 858 q 318 936 263 919 q 434 953 373 953 q 614 923 533 953 q 752 835 695 892 q 841 698 809 779 q 872 519 872 618 m 571 501 q 563 558 571 531 q 538 607 554 585 q 498 641 522 628 q 442 655 474 655 q 385 643 411 655 q 342 612 360 632 q 315 565 324 592 q 305 508 305 538 q 314 451 305 480 q 338 400 322 423 q 378 362 354 377 q 434 348 402 348 q 492 361 466 348 q 535 395 517 373 q 562 444 552 416 q 571 501 571 472 m 659 1095 q 652 1056 659 1074 q 630 1025 644 1038 q 598 1004 617 1012 q 559 996 580 996 q 521 1004 539 996 q 490 1025 503 1012 q 469 1056 477 1038 q 461 1095 461 1074 q 469 1133 461 1115 q 490 1165 477 1151 q 521 1186 503 1178 q 559 1194 539 1194 q 598 1186 580 1194 q 630 1165 617 1178 q 652 1133 644 1151 q 659 1095 659 1115 m 395 1080 q 386 1038 395 1058 q 363 1003 378 1018 q 329 980 349 989 q 288 972 309 972 q 246 980 265 972 q 212 1003 226 989 q 189 1038 197 1018 q 181 1080 181 1058 q 189 1120 181 1101 q 212 1154 197 1139 q 246 1177 226 1168 q 288 1186 265 1186 q 329 1177 309 1186 q 363 1154 349 1168 q 386 1120 378 1139 q 395 1080 395 1101 "},"ǽ":{"x_min":-21.703125,"x_max":1265.5625,"ha":1275,"o":"m 1265 548 q 1257 430 1265 489 q 1027 405 1141 422 q 798 373 912 389 l 803 358 q 857 290 821 315 q 942 265 894 265 q 1002 276 969 265 q 1066 301 1034 286 q 1127 334 1098 316 q 1177 366 1156 352 l 1144 58 q 1087 23 1118 37 q 1023 0 1056 9 q 956 -12 990 -8 q 889 -16 922 -16 q 756 0 819 -16 q 645 42 694 16 q 564 101 596 68 q 522 168 531 134 l 360 168 l 324 14 l -21 48 l 248 952 l 625 971 l 651 883 q 766 955 701 929 q 914 982 831 982 q 1024 965 974 982 q 1113 919 1074 948 q 1181 849 1152 889 q 1228 759 1209 808 q 1256 657 1247 711 q 1265 548 1265 603 m 994 583 q 990 622 994 602 q 976 658 986 642 q 952 685 967 674 q 915 695 937 695 q 867 681 888 695 q 832 644 847 666 q 807 596 817 622 q 793 549 798 571 l 994 568 l 994 583 m 488 375 l 436 611 l 386 375 l 488 375 m 997 1163 q 840 1074 916 1119 q 686 976 763 1029 l 600 1071 q 632 1107 613 1087 q 672 1148 651 1127 q 717 1191 694 1169 q 762 1232 740 1212 q 869 1326 813 1278 l 997 1163 "},"Ļ":{"x_min":31.203125,"x_max":630.75,"ha":628,"o":"m 630 386 l 602 85 l 31 40 q 40 511 35 277 q 52 982 45 745 l 405 982 q 375 685 389 833 q 355 386 361 537 q 418 385 387 385 q 481 385 449 385 q 556 385 519 385 q 630 386 592 386 m 422 -88 q 413 -137 422 -110 q 386 -190 403 -164 q 345 -240 369 -217 q 292 -279 321 -264 q 291 -268 292 -279 q 290 -242 291 -258 q 288 -209 289 -227 q 287 -178 287 -192 q 240 -142 257 -167 q 223 -85 223 -116 q 231 -46 223 -64 q 252 -15 239 -28 q 284 6 266 -1 q 323 14 302 14 q 361 6 343 14 q 393 -15 380 -1 q 415 -46 407 -28 q 422 -85 422 -64 l 422 -88 "},"Õ":{"x_min":11.53125,"x_max":872.875,"ha":886,"o":"m 872 478 q 858 359 872 417 q 817 252 844 302 q 752 160 790 202 q 666 88 714 118 q 562 42 618 59 q 442 25 505 25 q 326 41 381 25 q 223 85 271 56 q 135 152 174 113 q 69 241 96 192 q 26 345 42 289 q 11 461 11 400 q 25 576 11 520 q 66 683 40 633 q 131 775 93 733 q 216 848 169 817 q 318 895 263 878 q 434 912 373 912 q 614 882 533 912 q 752 795 695 851 q 841 658 809 738 q 872 478 872 577 m 571 461 q 563 517 571 490 q 538 566 554 545 q 498 601 522 588 q 442 614 474 614 q 385 602 411 614 q 342 571 360 591 q 315 524 324 551 q 305 467 305 497 q 314 411 305 439 q 338 359 322 382 q 378 322 354 336 q 434 307 402 307 q 492 320 466 307 q 535 354 517 333 q 562 403 552 375 q 571 461 571 431 m 712 1131 q 698 1057 712 1091 q 659 998 684 1023 q 601 959 634 973 q 529 945 567 945 q 478 956 499 945 q 442 983 457 966 q 417 1018 428 999 q 398 1053 407 1037 q 380 1080 389 1069 q 359 1091 371 1091 q 347 1087 352 1091 q 338 1076 341 1082 q 334 1063 335 1070 q 332 1049 332 1055 q 337 1009 332 1029 q 350 972 342 990 l 184 958 q 173 1016 176 987 q 170 1072 170 1044 q 180 1150 170 1114 q 213 1212 191 1185 q 265 1254 234 1238 q 339 1269 297 1269 q 401 1257 376 1269 q 441 1229 425 1246 q 467 1192 458 1212 q 484 1154 476 1171 q 498 1126 491 1137 q 515 1114 505 1114 q 536 1126 529 1114 q 544 1151 544 1139 q 536 1191 544 1171 q 518 1225 528 1210 l 686 1253 q 705 1193 698 1223 q 712 1131 712 1162 "},"ć":{"x_min":10.171875,"x_max":696.53125,"ha":712,"o":"m 681 926 l 657 640 q 618 647 637 645 q 579 649 599 649 q 487 637 531 649 q 410 600 444 625 q 357 536 377 575 q 337 446 337 498 q 348 380 337 408 q 380 333 359 352 q 430 305 400 314 q 495 295 459 295 q 547 300 520 295 q 600 314 573 305 q 651 335 626 323 q 696 359 675 346 l 685 40 q 628 16 659 27 q 565 -1 598 6 q 501 -13 533 -9 q 440 -17 469 -17 q 264 18 343 -17 q 129 116 185 54 q 41 260 72 178 q 10 435 10 342 q 41 642 10 546 q 134 810 73 739 q 286 921 196 881 q 494 961 377 961 q 589 954 541 961 q 681 926 637 946 m 670 1169 q 513 1080 589 1125 q 359 982 436 1035 l 273 1077 q 305 1113 286 1093 q 345 1154 324 1133 q 390 1197 367 1175 q 435 1238 413 1218 q 542 1332 486 1284 l 670 1169 "},"þ":{"x_min":39.34375,"x_max":827.4375,"ha":832,"o":"m 39 969 l 394 992 l 386 817 l 398 817 q 503 809 451 817 q 603 782 555 800 q 692 736 651 764 q 763 671 733 709 q 810 584 792 633 q 827 476 827 535 q 807 359 827 410 q 753 270 788 308 q 673 205 719 231 q 574 163 627 179 q 465 139 522 146 q 355 130 409 131 l 355 -9 l 39 -9 l 39 969 m 526 453 q 499 521 526 497 q 430 546 472 546 q 400 544 415 546 q 371 538 385 541 l 363 340 q 381 339 373 339 q 400 339 390 339 q 447 347 424 339 q 487 370 470 355 q 515 406 505 385 q 526 453 526 427 "},"]":{"x_min":-5.421875,"x_max":465.265625,"ha":507,"o":"m 465 731 q 458 318 465 523 q 440 -94 452 112 q 336 -99 388 -98 q 231 -100 284 -100 q 112 -98 171 -100 q -5 -90 54 -96 l 6 90 l 187 85 l 208 869 l 16 870 l 18 1060 q 132 1057 75 1058 q 246 1055 189 1055 q 354 1057 301 1055 q 461 1062 408 1058 q 464 896 463 978 q 465 731 465 815 "},"ẁ":{"x_min":4.75,"x_max":1259.453125,"ha":1264,"o":"m 1259 941 l 1100 28 l 715 20 l 632 480 l 550 55 l 164 42 l 4 914 l 341 944 l 408 408 l 499 903 l 764 903 l 870 401 l 924 971 l 1259 941 m 567 926 q 418 1030 492 982 q 265 1125 343 1079 l 399 1284 q 503 1185 453 1233 q 546 1142 524 1164 q 588 1097 568 1119 q 627 1054 609 1075 q 658 1017 645 1034 l 567 926 "},"ĭ":{"x_min":6.328125,"x_max":409.1875,"ha":409,"o":"m 388 954 l 341 31 l 54 16 l 27 935 l 388 954 m 409 1178 q 393 1098 409 1135 q 349 1034 377 1061 q 285 991 322 1006 q 205 976 247 976 q 119 991 156 976 q 57 1033 82 1006 q 19 1100 32 1061 q 6 1189 6 1139 q 6 1205 6 1196 q 7 1220 6 1213 l 165 1200 q 165 1175 164 1189 q 172 1149 167 1161 q 186 1127 177 1136 q 211 1118 195 1118 q 227 1123 220 1118 q 237 1137 233 1129 q 243 1154 241 1145 q 245 1171 245 1163 q 240 1209 245 1191 q 230 1245 236 1226 l 394 1274 q 404 1227 400 1252 q 409 1178 409 1202 "},"8":{"x_min":19.671875,"x_max":773.859375,"ha":794,"o":"m 773 299 q 758 201 773 244 q 717 124 744 158 q 656 67 691 90 q 578 28 620 43 q 489 5 535 12 q 394 -1 442 -1 q 258 16 325 -1 q 138 72 191 35 q 52 166 85 110 q 19 299 19 223 q 27 362 19 330 q 48 422 34 394 q 84 474 63 451 q 134 512 106 497 q 67 604 90 552 q 45 716 45 656 q 76 838 45 786 q 157 926 107 891 q 269 980 206 962 q 394 998 331 998 q 477 990 435 998 q 557 966 518 982 q 629 927 596 950 q 688 871 663 903 q 727 801 712 840 q 741 716 741 762 q 718 604 741 656 q 651 512 696 552 q 745 425 716 478 q 773 299 773 371 m 506 651 q 496 691 506 673 q 470 722 486 709 q 434 741 454 735 q 394 748 414 748 q 352 741 373 748 q 316 722 332 735 q 289 691 299 709 q 280 651 280 673 q 289 610 280 628 q 316 580 299 592 q 352 561 332 568 q 394 554 373 554 q 434 561 414 554 q 470 580 454 568 q 496 610 486 592 q 506 651 506 628 m 505 332 q 495 372 505 354 q 470 402 485 390 q 434 421 454 415 q 394 428 414 428 q 353 421 373 428 q 317 402 333 415 q 291 372 301 390 q 281 332 281 354 q 291 292 281 310 q 317 263 301 275 q 353 244 333 250 q 394 237 373 237 q 434 244 414 237 q 470 263 454 250 q 495 292 485 275 q 505 332 505 310 "},"R":{"x_min":29.15625,"x_max":829.46875,"ha":842,"o":"m 829 653 q 820 557 829 600 q 791 478 811 514 q 740 412 771 442 q 665 354 709 381 l 826 66 l 521 6 l 417 295 l 333 293 l 320 10 l 29 10 q 35 318 32 165 q 42 626 38 472 q 45 781 44 704 q 50 935 46 857 q 144 965 98 953 q 237 983 190 976 q 331 991 283 989 q 429 994 379 994 q 578 972 506 994 q 706 908 651 951 q 795 802 762 866 q 829 653 829 738 m 525 632 q 517 684 525 660 q 494 725 510 708 q 456 752 479 742 q 403 762 434 762 q 377 760 389 762 q 352 755 364 758 l 341 503 l 357 503 q 416 510 386 503 q 471 533 446 518 q 510 573 495 549 q 525 632 525 598 "},"ť":{"x_min":5.421875,"x_max":752.828125,"ha":756,"o":"m 752 956 l 746 668 l 543 660 l 519 31 l 233 16 l 207 645 l 5 634 l 13 954 l 752 956 m 595 1235 q 564 1187 582 1214 q 525 1131 546 1160 q 483 1072 505 1102 q 443 1018 462 1043 l 310 999 l 114 1214 l 257 1305 l 363 1167 l 446 1300 l 595 1235 "},"Ľ":{"x_min":31.203125,"x_max":685.625,"ha":687,"o":"m 630 386 l 602 85 l 31 40 q 40 511 35 277 q 52 982 45 745 l 405 982 q 375 685 389 833 q 355 386 361 537 q 418 385 387 385 q 481 385 449 385 q 556 385 519 385 q 630 386 592 386 m 685 925 q 674 868 685 899 q 644 807 663 837 q 597 750 624 777 q 535 705 569 723 q 535 718 535 706 q 533 748 534 730 q 531 785 532 765 q 530 821 530 806 q 476 863 496 834 q 457 928 457 893 q 466 972 457 951 q 490 1008 475 993 q 526 1033 506 1024 q 571 1042 547 1042 q 615 1033 594 1042 q 652 1008 636 1024 q 676 972 667 993 q 685 928 686 951 l 685 925 "},"Ż":{"x_min":8.140625,"x_max":655.15625,"ha":676,"o":"m 655 744 l 344 325 l 644 325 l 640 37 l 35 13 l 8 279 l 362 740 l 37 716 l 35 988 l 642 988 l 655 744 m 483 1148 q 472 1096 483 1120 q 443 1055 462 1073 q 401 1027 425 1037 q 349 1016 376 1016 q 294 1027 319 1016 q 250 1055 268 1037 q 222 1096 232 1073 q 212 1148 212 1120 q 222 1200 212 1175 q 250 1242 232 1224 q 292 1270 268 1260 q 344 1281 317 1281 q 399 1270 374 1281 q 443 1242 424 1260 q 472 1200 462 1224 q 483 1148 483 1175 "},"o":{"x_min":11.53125,"x_max":872.875,"ha":886,"o":"m 872 519 q 858 400 872 457 q 817 292 844 343 q 752 201 790 242 q 666 129 714 159 q 562 83 618 99 q 442 66 505 66 q 326 82 381 66 q 223 125 271 97 q 135 193 174 153 q 69 281 96 233 q 26 385 42 330 q 11 501 11 441 q 25 617 11 560 q 66 724 40 674 q 131 816 93 774 q 216 889 169 858 q 318 936 263 919 q 434 953 373 953 q 614 923 533 953 q 752 835 695 892 q 841 698 809 779 q 872 519 872 618 m 571 501 q 563 558 571 531 q 538 607 554 585 q 498 641 522 628 q 442 655 474 655 q 385 643 411 655 q 342 612 360 632 q 315 565 324 592 q 305 508 305 538 q 314 451 305 480 q 338 400 322 423 q 378 362 354 377 q 434 348 402 348 q 492 361 466 348 q 535 395 517 373 q 562 444 552 416 q 571 501 571 472 "},"5":{"x_min":17.640625,"x_max":722.984375,"ha":737,"o":"m 722 341 q 691 188 722 253 q 605 80 659 123 q 478 16 551 37 q 321 -4 404 -4 q 242 1 281 -4 q 166 17 204 7 q 91 40 128 27 q 17 67 54 52 l 43 337 q 95 312 67 324 q 152 292 123 301 q 212 280 182 284 q 271 275 242 275 q 312 278 288 275 q 359 289 337 281 q 397 313 381 298 q 413 351 413 327 q 401 389 413 373 q 368 416 388 406 q 323 433 348 427 q 272 442 298 439 q 224 446 247 446 q 187 447 202 447 q 125 444 156 447 q 63 434 93 442 l 90 982 l 640 996 l 655 713 l 314 732 l 307 611 q 368 622 338 619 q 430 626 399 626 q 544 606 491 626 q 637 549 598 586 q 700 459 677 512 q 722 341 722 406 "},"ħ":{"x_min":28.484375,"x_max":839.640625,"ha":869,"o":"m 839 27 l 500 10 l 497 297 l 341 297 l 332 0 l 28 0 l 54 953 l 377 938 l 367 712 l 507 714 l 508 961 l 817 953 l 839 27 m 507 451 l 507 543 l 360 545 l 356 451 l 507 451 "},"õ":{"x_min":11.53125,"x_max":872.875,"ha":886,"o":"m 872 519 q 858 400 872 457 q 817 292 844 343 q 752 201 790 242 q 666 129 714 159 q 562 83 618 99 q 442 66 505 66 q 326 82 381 66 q 223 125 271 97 q 135 193 174 153 q 69 281 96 233 q 26 385 42 330 q 11 501 11 441 q 25 617 11 560 q 66 724 40 674 q 131 816 93 774 q 216 889 169 858 q 318 936 263 919 q 434 953 373 953 q 614 923 533 953 q 752 835 695 892 q 841 698 809 779 q 872 519 872 618 m 571 501 q 563 558 571 531 q 538 607 554 585 q 498 641 522 628 q 442 655 474 655 q 385 643 411 655 q 342 612 360 632 q 315 565 324 592 q 305 508 305 538 q 314 451 305 480 q 338 400 322 423 q 378 362 354 377 q 434 348 402 348 q 492 361 466 348 q 535 395 517 373 q 562 444 552 416 q 571 501 571 472 m 712 1162 q 698 1088 712 1122 q 659 1029 684 1054 q 601 990 634 1004 q 529 976 567 976 q 478 987 499 976 q 442 1014 457 997 q 417 1049 428 1030 q 398 1084 407 1068 q 380 1111 389 1100 q 359 1122 371 1122 q 347 1118 352 1122 q 338 1107 341 1113 q 334 1094 335 1101 q 332 1080 332 1086 q 337 1040 332 1060 q 350 1003 342 1021 l 184 989 q 173 1047 176 1018 q 170 1103 170 1075 q 180 1181 170 1145 q 213 1243 191 1216 q 265 1285 234 1269 q 339 1300 297 1300 q 401 1288 376 1300 q 441 1260 425 1277 q 467 1223 458 1243 q 484 1185 476 1202 q 498 1157 491 1168 q 515 1145 505 1145 q 536 1157 529 1145 q 544 1182 544 1170 q 536 1222 544 1202 q 518 1256 528 1241 l 686 1284 q 705 1224 698 1254 q 712 1162 712 1193 "},",":{"x_min":10.859375,"x_max":295.734375,"ha":309,"o":"m 295 150 q 281 80 295 118 q 244 3 268 41 q 185 -67 219 -33 q 108 -123 151 -101 q 107 -107 108 -122 q 106 -70 107 -92 q 103 -23 105 -48 q 101 21 102 2 q 35 73 59 37 q 10 154 10 110 q 22 209 10 183 q 52 254 33 235 q 97 285 71 274 q 153 297 123 297 q 208 285 182 297 q 254 254 234 274 q 284 209 273 235 q 295 154 296 183 l 295 150 "},"d":{"x_min":29.84375,"x_max":803.015625,"ha":810,"o":"m 803 538 q 778 368 803 443 q 710 235 754 293 q 606 136 666 177 q 474 69 545 95 q 321 31 402 43 q 154 18 240 18 q 92 20 122 18 q 29 25 61 22 l 48 908 q 202 942 123 932 q 359 952 281 952 q 537 925 456 952 q 678 845 619 897 q 770 715 737 792 q 803 538 803 638 m 341 278 q 416 302 382 284 q 474 348 449 321 q 511 411 498 376 q 524 485 524 446 q 516 557 524 524 q 490 616 508 591 q 442 655 472 640 q 368 671 412 670 l 341 278 "},"\"":{"x_min":5.421875,"x_max":671.4375,"ha":666,"o":"m 332 1096 l 256 683 l 47 676 l 5 1089 l 332 1096 m 671 1055 l 595 642 l 386 636 l 344 1048 l 671 1055 "},"˙":{"x_min":0,"x_max":271.296875,"ha":271,"o":"m 271 1025 q 260 973 271 997 q 231 932 250 950 q 189 904 213 914 q 137 893 164 893 q 82 904 107 893 q 38 932 56 914 q 10 973 20 950 q 0 1025 0 997 q 10 1077 0 1052 q 38 1119 20 1101 q 80 1147 56 1137 q 132 1158 105 1158 q 187 1147 162 1158 q 231 1119 212 1137 q 260 1077 250 1101 q 271 1025 271 1052 "},"ê":{"x_min":11.53125,"x_max":791.484375,"ha":801,"o":"m 791 548 q 783 430 791 489 q 552 405 667 422 q 323 373 438 389 q 378 295 341 324 q 468 265 416 265 q 528 276 495 265 q 592 301 560 286 q 653 334 623 316 q 703 366 682 352 l 670 58 q 613 23 644 37 q 549 0 582 9 q 482 -12 516 -8 q 415 -16 448 -16 q 292 2 348 -16 q 192 53 237 20 q 113 130 147 86 q 56 228 79 175 q 23 340 34 281 q 11 459 11 399 q 23 585 11 522 q 57 707 34 649 q 116 815 81 765 q 200 902 152 865 q 307 961 247 940 q 440 982 367 982 q 550 965 500 982 q 639 919 600 948 q 707 849 678 889 q 754 759 735 808 q 782 657 773 711 q 791 548 791 603 m 520 583 q 516 622 520 602 q 502 658 512 642 q 478 685 493 674 q 441 695 463 695 q 393 681 414 695 q 358 644 373 666 q 333 596 343 622 q 319 549 324 571 l 520 568 l 520 583 m 498 997 l 392 1136 l 310 1004 l 161 1068 q 192 1117 173 1089 q 232 1176 211 1145 q 275 1236 253 1206 q 316 1292 297 1266 l 456 1293 l 642 1086 l 498 997 "},"„":{"x_min":13.5625,"x_max":617.21875,"ha":632,"o":"m 298 96 q 284 25 297 64 q 246 -50 271 -12 q 188 -121 222 -88 q 111 -177 153 -155 q 110 -161 111 -177 q 108 -124 109 -146 q 106 -77 107 -102 q 104 -32 105 -52 q 37 19 62 -16 q 13 100 13 56 q 24 155 13 129 q 55 200 35 181 q 100 231 74 219 q 155 242 126 242 q 211 231 185 242 q 256 200 237 219 q 287 155 276 181 q 298 100 299 129 l 298 96 m 617 96 q 603 25 616 64 q 565 -50 590 -12 q 506 -121 541 -88 q 430 -177 472 -155 q 429 -161 430 -177 q 427 -124 428 -146 q 425 -77 426 -102 q 423 -32 423 -52 q 356 19 381 -16 q 332 100 332 56 q 343 155 332 129 q 374 200 354 181 q 419 231 393 219 q 474 242 444 242 q 530 231 503 242 q 575 200 556 219 q 606 155 594 181 q 617 100 617 129 l 617 96 "},"ľ":{"x_min":29.84375,"x_max":685.625,"ha":687,"o":"m 629 359 l 600 58 l 29 13 l 51 982 l 404 982 l 354 359 l 629 359 m 685 925 q 674 868 685 899 q 644 807 663 837 q 597 750 624 777 q 535 705 569 723 q 535 718 535 706 q 533 748 534 730 q 531 785 532 765 q 530 821 530 806 q 476 863 496 834 q 457 928 457 893 q 466 972 457 951 q 490 1008 475 993 q 526 1033 506 1024 q 571 1042 547 1042 q 615 1033 594 1042 q 652 1008 636 1024 q 676 972 667 993 q 685 928 686 951 l 685 925 "},"Â":{"x_min":-21.703125,"x_max":889.828125,"ha":869,"o":"m 889 58 l 553 14 l 512 168 l 358 168 l 324 14 l -21 48 l 248 952 l 625 971 l 889 58 m 488 375 l 436 611 l 386 375 l 488 375 m 530 989 l 424 1128 l 342 996 l 193 1060 q 224 1109 205 1081 q 264 1168 243 1137 q 307 1228 285 1198 q 348 1284 329 1258 l 488 1285 l 674 1078 l 530 989 "},"Į":{"x_min":33.234375,"x_max":400.828125,"ha":413,"o":"m 331 -185 q 264 -234 301 -213 q 185 -255 227 -255 q 126 -245 153 -255 q 78 -216 99 -234 q 45 -171 57 -197 q 33 -113 33 -145 q 50 -41 33 -74 q 92 18 67 -8 l 40 16 l 40 935 l 400 954 l 326 31 l 251 27 q 227 -3 240 12 q 204 -35 215 -19 q 187 -67 194 -52 q 181 -92 181 -82 q 189 -113 181 -105 q 210 -121 198 -121 q 240 -110 224 -121 q 265 -88 257 -100 l 331 -185 "},"ė":{"x_min":11.53125,"x_max":791.484375,"ha":801,"o":"m 791 548 q 783 430 791 489 q 552 405 667 422 q 323 373 438 389 q 378 295 341 324 q 468 265 416 265 q 528 276 495 265 q 592 301 560 286 q 653 334 623 316 q 703 366 682 352 l 670 58 q 613 23 644 37 q 549 0 582 9 q 482 -12 516 -8 q 415 -16 448 -16 q 292 2 348 -16 q 192 53 237 20 q 113 130 147 86 q 56 228 79 175 q 23 340 34 281 q 11 459 11 399 q 23 585 11 522 q 57 707 34 649 q 116 815 81 765 q 200 902 152 865 q 307 961 247 940 q 440 982 367 982 q 550 965 500 982 q 639 919 600 948 q 707 849 678 889 q 754 759 735 808 q 782 657 773 711 q 791 548 791 603 m 520 583 q 516 622 520 602 q 502 658 512 642 q 478 685 493 674 q 441 695 463 695 q 393 681 414 695 q 358 644 373 666 q 333 596 343 622 q 319 549 324 571 l 520 568 l 520 583 m 555 1151 q 544 1099 555 1123 q 515 1058 534 1076 q 473 1030 497 1040 q 421 1019 448 1019 q 366 1030 391 1019 q 322 1058 340 1040 q 294 1099 304 1076 q 284 1151 284 1123 q 294 1203 284 1178 q 322 1245 304 1227 q 364 1273 340 1263 q 416 1284 389 1284 q 471 1273 446 1284 q 515 1245 496 1263 q 544 1203 534 1227 q 555 1151 555 1178 "},"Ţ":{"x_min":4.0625,"x_max":751.46875,"ha":754,"o":"m 751 969 l 744 682 l 542 674 l 491 31 l 204 16 l 206 659 l 4 648 l 12 968 l 751 969 m 442 -143 q 433 -192 442 -165 q 406 -245 423 -219 q 365 -295 389 -272 q 312 -334 341 -319 q 311 -323 312 -334 q 310 -297 311 -313 q 308 -264 309 -282 q 307 -233 307 -247 q 260 -197 277 -222 q 243 -140 243 -171 q 251 -101 243 -119 q 272 -70 259 -83 q 304 -48 286 -56 q 343 -40 322 -40 q 381 -48 363 -40 q 413 -70 400 -56 q 435 -101 427 -83 q 442 -140 442 -119 l 442 -143 "},"Í":{"x_min":40.015625,"x_max":571.4375,"ha":413,"o":"m 400 954 l 326 31 l 40 16 l 40 935 l 400 954 m 571 1177 q 414 1088 490 1133 q 260 990 337 1043 l 174 1085 q 206 1121 187 1101 q 246 1162 225 1141 q 291 1205 268 1183 q 336 1246 314 1226 q 443 1340 387 1292 l 571 1177 "},"´":{"x_min":0,"x_max":397.4375,"ha":397,"o":"m 397 1113 q 240 1024 316 1069 q 86 926 163 979 l 0 1021 q 32 1057 13 1037 q 72 1098 51 1077 q 117 1141 94 1119 q 162 1182 140 1162 q 269 1276 213 1228 l 397 1113 "},"Ú":{"x_min":22.375,"x_max":845.75,"ha":865,"o":"m 845 754 q 841 643 845 704 q 825 518 836 583 q 797 388 814 454 q 754 261 779 322 q 694 146 728 200 q 615 53 659 93 q 516 -8 571 14 q 394 -31 461 -31 q 257 -5 315 -31 q 158 62 199 19 q 90 163 116 105 q 48 284 63 220 q 28 415 33 348 q 22 543 22 482 q 31 733 22 638 q 59 922 41 828 l 376 910 q 344 696 358 803 q 331 480 331 588 q 332 445 331 468 q 336 395 333 423 q 344 337 339 366 q 358 283 349 307 q 379 243 366 259 q 408 227 392 227 q 444 246 428 227 q 471 296 459 265 q 492 368 483 327 q 507 453 501 408 q 517 541 513 497 q 523 623 520 585 q 526 690 525 661 q 526 733 526 719 q 525 839 526 786 q 520 944 523 891 l 837 944 q 845 754 845 850 m 794 1129 q 637 1040 713 1085 q 483 942 560 995 l 397 1037 q 429 1073 410 1053 q 469 1114 448 1093 q 514 1157 491 1135 q 559 1198 537 1178 q 666 1292 610 1244 l 794 1129 "},"Ŷ":{"x_min":8.140625,"x_max":906.109375,"ha":843,"o":"m 906 918 l 533 397 l 515 -27 l 193 -27 l 202 394 l 8 897 l 354 941 l 408 648 l 580 941 l 906 918 m 546 961 l 440 1100 l 358 968 l 209 1032 q 240 1081 221 1053 q 280 1140 259 1109 q 323 1200 301 1170 q 364 1256 345 1230 l 504 1257 l 690 1050 l 546 961 "},"ŝ":{"x_min":18.984375,"x_max":729.765625,"ha":739,"o":"m 729 347 q 697 186 729 254 q 609 75 665 119 q 478 11 553 31 q 317 -9 403 -9 q 244 0 284 -9 q 164 21 204 8 q 85 49 123 34 q 18 78 48 65 l 48 344 q 176 291 106 309 q 314 274 246 274 q 345 275 327 274 q 380 281 364 276 q 408 296 397 286 q 420 325 420 306 q 412 347 420 338 q 391 362 404 356 q 362 371 378 368 q 330 375 345 374 q 301 377 314 377 q 279 377 287 377 q 173 395 221 377 q 91 447 125 413 q 37 528 56 480 q 18 634 18 576 q 51 778 18 714 q 137 886 83 841 q 261 954 191 930 q 405 978 330 978 q 474 975 438 978 q 544 967 509 973 q 612 951 579 961 q 675 927 645 942 l 649 652 q 553 678 603 668 q 454 689 502 689 q 431 688 445 689 q 402 686 417 688 q 371 681 387 685 q 343 672 356 678 q 324 657 331 666 q 317 634 316 647 q 328 611 318 619 q 355 599 339 603 q 392 596 372 596 q 432 597 412 596 q 468 599 451 598 q 496 599 485 600 q 594 576 550 596 q 667 524 637 556 q 713 446 697 491 q 729 347 729 401 m 465 998 l 359 1137 l 277 1005 l 128 1069 q 159 1118 140 1090 q 199 1177 178 1146 q 242 1237 220 1207 q 283 1293 264 1267 l 423 1294 l 609 1087 l 465 998 "},"Ý":{"x_min":8.140625,"x_max":906.109375,"ha":843,"o":"m 906 918 l 533 397 l 515 -27 l 193 -27 l 202 394 l 8 897 l 354 941 l 408 648 l 580 941 l 906 918 m 822 1129 q 665 1040 741 1085 q 511 942 588 995 l 425 1037 q 457 1073 438 1053 q 497 1114 476 1093 q 542 1157 519 1135 q 587 1198 565 1178 q 694 1292 638 1244 l 822 1129 "},"Ĉ":{"x_min":9.5,"x_max":706.703125,"ha":715,"o":"m 706 953 l 668 667 q 629 674 649 672 q 590 676 609 676 q 494 663 539 676 q 414 623 448 650 q 358 555 379 596 q 337 459 337 514 q 348 398 337 424 q 380 356 360 373 q 428 330 400 339 q 489 322 456 322 q 541 328 514 322 q 595 342 569 333 q 647 362 621 351 q 693 386 672 374 l 666 67 q 608 43 639 54 q 545 25 577 33 q 480 13 512 17 q 417 9 447 9 q 257 41 331 9 q 127 128 182 73 q 41 260 72 184 q 9 423 9 335 q 42 641 9 539 q 140 822 75 744 q 300 944 204 899 q 519 988 395 988 q 615 981 566 988 q 706 953 664 973 m 456 1005 l 350 1144 l 268 1012 l 119 1076 q 150 1125 131 1097 q 190 1184 169 1153 q 233 1244 211 1214 q 274 1300 255 1274 l 414 1301 l 600 1094 l 456 1005 "},"̕":{"x_min":4.75,"x_max":204.140625,"ha":209,"o":"m 204 870 q 194 820 204 847 q 168 767 185 794 q 127 717 151 741 q 73 678 103 694 q 72 689 73 678 q 71 715 72 700 q 70 748 71 731 q 68 779 69 766 q 21 816 38 790 q 4 873 4 842 q 12 911 4 893 q 33 943 20 929 q 65 965 47 956 q 104 973 84 973 q 143 965 124 973 q 174 943 161 956 q 196 911 188 929 q 204 873 204 893 l 204 870 "},"ą":{"x_min":-21.703125,"x_max":889.828125,"ha":869,"o":"m 870 -163 q 803 -212 841 -191 q 724 -233 766 -233 q 665 -223 693 -233 q 617 -194 638 -212 q 584 -149 596 -175 q 572 -91 572 -123 q 584 -30 572 -59 q 616 23 596 -2 l 553 14 l 512 168 l 358 168 l 324 14 l -21 48 l 248 952 l 625 971 l 889 58 l 787 44 q 764 14 776 30 q 742 -16 752 -1 q 726 -46 733 -32 q 720 -71 720 -61 q 729 -91 720 -83 q 750 -99 737 -99 q 779 -89 763 -99 q 804 -67 796 -78 l 870 -163 m 488 375 l 436 611 l 386 375 l 488 375 "},"Ö":{"x_min":11.53125,"x_max":872.875,"ha":886,"o":"m 872 478 q 858 359 872 417 q 817 252 844 302 q 752 160 790 202 q 666 88 714 118 q 562 42 618 59 q 442 25 505 25 q 326 41 381 25 q 223 85 271 56 q 135 152 174 113 q 69 241 96 192 q 26 345 42 289 q 11 461 11 400 q 25 576 11 520 q 66 683 40 633 q 131 775 93 733 q 216 848 169 817 q 318 895 263 878 q 434 912 373 912 q 614 882 533 912 q 752 795 695 851 q 841 658 809 738 q 872 478 872 577 m 571 461 q 563 517 571 490 q 538 566 554 545 q 498 601 522 588 q 442 614 474 614 q 385 602 411 614 q 342 571 360 591 q 315 524 324 551 q 305 467 305 497 q 314 411 305 439 q 338 359 322 382 q 378 322 354 336 q 434 307 402 307 q 492 320 466 307 q 535 354 517 333 q 562 403 552 375 q 571 461 571 431 m 681 1060 q 674 1021 681 1039 q 652 990 666 1003 q 620 969 639 977 q 581 961 602 961 q 543 969 561 961 q 512 990 525 977 q 491 1021 499 1003 q 483 1060 483 1039 q 491 1098 483 1080 q 512 1130 499 1116 q 543 1151 525 1143 q 581 1159 561 1159 q 620 1151 602 1159 q 652 1130 639 1143 q 674 1098 666 1116 q 681 1060 681 1080 m 417 1045 q 408 1003 417 1023 q 385 968 400 983 q 351 945 371 954 q 310 937 331 937 q 268 945 287 937 q 234 968 248 954 q 211 1003 219 983 q 203 1045 203 1023 q 211 1085 203 1066 q 234 1119 219 1104 q 268 1142 248 1133 q 310 1151 287 1151 q 351 1142 331 1151 q 385 1119 371 1133 q 408 1085 400 1104 q 417 1045 417 1066 "},"z":{"x_min":23.734375,"x_max":670.765625,"ha":688,"o":"m 670 717 l 360 325 l 646 325 l 655 37 l 50 13 l 23 279 l 377 713 l 26 689 l 23 961 l 658 961 l 670 717 "},"™":{"x_min":14.921875,"x_max":908.140625,"ha":918,"o":"m 381 929 l 377 788 l 278 784 l 253 469 l 113 462 l 113 777 l 14 771 l 18 929 l 381 929 m 908 939 l 877 451 l 726 444 l 727 701 l 659 494 l 600 494 l 548 679 l 547 464 l 394 459 l 400 918 l 571 925 l 638 705 l 729 939 l 908 939 "},"Ř":{"x_min":29.15625,"x_max":829.46875,"ha":842,"o":"m 829 653 q 820 557 829 600 q 791 478 811 514 q 740 412 771 442 q 665 354 709 381 l 826 66 l 521 6 l 417 295 l 333 293 l 320 10 l 29 10 q 35 318 32 165 q 42 626 38 472 q 45 781 44 704 q 50 935 46 857 q 144 965 98 953 q 237 983 190 976 q 331 991 283 989 q 429 994 379 994 q 578 972 506 994 q 706 908 651 951 q 795 802 762 866 q 829 653 829 738 m 525 632 q 517 684 525 660 q 494 725 510 708 q 456 752 479 742 q 403 762 434 762 q 377 760 389 762 q 352 755 364 758 l 341 503 l 357 503 q 416 510 386 503 q 471 533 446 518 q 510 573 495 549 q 525 632 525 598 m 661 1255 q 630 1207 648 1234 q 591 1151 612 1180 q 549 1092 571 1122 q 509 1038 528 1063 l 376 1019 l 180 1234 l 323 1325 l 429 1187 l 512 1320 l 661 1255 "},"ã":{"x_min":-21.703125,"x_max":889.828125,"ha":869,"o":"m 889 58 l 553 14 l 512 168 l 358 168 l 324 14 l -21 48 l 248 952 l 625 971 l 889 58 m 488 375 l 436 611 l 386 375 l 488 375 m 705 1175 q 691 1101 705 1135 q 652 1042 677 1067 q 594 1003 627 1017 q 522 989 560 989 q 471 1000 492 989 q 435 1027 450 1010 q 410 1062 421 1043 q 391 1097 400 1081 q 373 1124 382 1113 q 352 1135 364 1135 q 340 1131 345 1135 q 331 1120 334 1126 q 327 1107 328 1114 q 325 1093 325 1099 q 330 1053 325 1073 q 343 1016 335 1034 l 177 1002 q 166 1060 169 1031 q 163 1116 163 1088 q 173 1194 163 1158 q 206 1256 184 1229 q 258 1298 227 1282 q 332 1313 290 1313 q 394 1301 369 1313 q 434 1273 418 1290 q 460 1236 451 1256 q 477 1198 469 1215 q 491 1170 484 1181 q 508 1158 498 1158 q 529 1170 522 1158 q 537 1195 537 1183 q 529 1235 537 1215 q 511 1269 521 1254 l 679 1297 q 698 1237 691 1267 q 705 1175 705 1206 "},"Ň":{"x_min":27.8125,"x_max":956.96875,"ha":977,"o":"m 956 972 l 908 52 l 552 20 l 362 512 l 333 10 l 27 10 l 52 972 l 391 988 l 626 500 l 636 961 l 956 972 m 757 1229 q 726 1181 744 1208 q 687 1125 708 1154 q 645 1066 667 1096 q 605 1012 624 1037 l 472 993 l 276 1208 l 419 1299 l 525 1161 l 608 1294 l 757 1229 "},"æ":{"x_min":-21.703125,"x_max":1265.5625,"ha":1275,"o":"m 1265 548 q 1257 430 1265 489 q 1027 405 1141 422 q 798 373 912 389 l 803 358 q 857 290 821 315 q 942 265 894 265 q 1002 276 969 265 q 1066 301 1034 286 q 1127 334 1098 316 q 1177 366 1156 352 l 1144 58 q 1087 23 1118 37 q 1023 0 1056 9 q 956 -12 990 -8 q 889 -16 922 -16 q 756 0 819 -16 q 645 42 694 16 q 564 101 596 68 q 522 168 531 134 l 360 168 l 324 14 l -21 48 l 248 952 l 625 971 l 651 883 q 766 955 701 929 q 914 982 831 982 q 1024 965 974 982 q 1113 919 1074 948 q 1181 849 1152 889 q 1228 759 1209 808 q 1256 657 1247 711 q 1265 548 1265 603 m 994 583 q 990 622 994 602 q 976 658 986 642 q 952 685 967 674 q 915 695 937 695 q 867 681 888 695 q 832 644 847 666 q 807 596 817 622 q 793 549 798 571 l 994 568 l 994 583 m 488 375 l 436 611 l 386 375 l 488 375 "},"ĩ":{"x_min":-72,"x_max":470.578125,"ha":409,"o":"m 388 954 l 341 31 l 54 16 l 27 935 l 388 954 m 470 1162 q 456 1088 470 1122 q 417 1029 442 1054 q 359 990 392 1004 q 287 976 325 976 q 236 987 257 976 q 200 1014 215 997 q 175 1049 186 1030 q 156 1084 165 1068 q 138 1111 147 1100 q 117 1122 129 1122 q 105 1118 110 1122 q 96 1107 99 1113 q 92 1094 93 1101 q 90 1080 90 1086 q 95 1040 90 1060 q 108 1003 100 1021 l -57 989 q -68 1047 -65 1018 q -72 1103 -72 1075 q -61 1181 -72 1145 q -28 1243 -50 1216 q 23 1285 -7 1269 q 97 1300 55 1300 q 159 1288 134 1300 q 199 1260 183 1277 q 225 1223 216 1243 q 242 1185 234 1202 q 256 1157 249 1168 q 273 1145 263 1145 q 294 1157 287 1145 q 302 1182 302 1170 q 294 1222 302 1202 q 276 1256 286 1241 l 444 1284 q 463 1224 456 1254 q 470 1162 470 1193 "},"É":{"x_min":29.84375,"x_max":687.4375,"ha":665,"o":"m 676 978 q 669 851 672 914 q 660 725 666 789 l 373 710 l 366 625 l 568 625 l 553 415 l 349 408 l 343 309 l 511 309 l 630 309 q 622 161 626 234 q 614 13 617 87 l 29 0 l 51 978 l 676 978 m 687 1184 q 530 1095 606 1140 q 376 997 453 1050 l 290 1092 q 322 1128 303 1108 q 362 1169 341 1148 q 407 1212 384 1190 q 452 1253 430 1233 q 559 1347 503 1299 l 687 1184 "},"ŀ":{"x_min":29.84375,"x_max":721.78125,"ha":722,"o":"m 629 359 l 600 58 l 29 13 l 51 982 l 404 982 l 354 359 l 629 359 m 721 605 q 710 549 721 575 q 679 504 698 523 q 634 473 660 485 q 579 462 608 462 q 523 473 549 462 q 478 504 497 485 q 448 549 459 523 q 436 605 436 575 q 448 660 436 634 q 478 706 459 687 q 523 737 497 725 q 579 748 549 748 q 634 737 608 748 q 679 706 660 725 q 710 660 698 687 q 721 605 721 634 "},"~":{"x_min":20.34375,"x_max":784.03125,"ha":800,"o":"m 735 755 q 770 658 756 708 q 784 558 784 609 q 764 454 784 504 q 709 365 744 404 q 626 303 674 326 q 522 280 578 280 q 455 295 483 280 q 407 331 427 309 q 372 379 387 354 q 343 427 356 405 q 318 464 330 449 q 288 478 305 478 q 270 473 278 478 q 259 459 263 467 q 253 442 255 451 q 252 424 252 432 q 262 367 252 396 q 282 311 271 338 l 48 282 q 28 371 36 326 q 20 461 20 416 q 36 571 20 520 q 85 656 53 621 q 163 712 117 692 q 269 732 210 732 q 346 719 315 732 q 399 686 377 706 q 433 643 420 666 q 457 600 446 620 q 477 568 467 581 q 501 554 487 554 q 519 559 512 554 q 533 570 527 563 q 541 586 538 577 q 543 603 543 595 q 529 658 543 631 q 500 706 514 685 l 735 755 "},"Ċ":{"x_min":9.5,"x_max":706.703125,"ha":715,"o":"m 706 953 l 668 667 q 629 674 649 672 q 590 676 609 676 q 494 663 539 676 q 414 623 448 650 q 358 555 379 596 q 337 459 337 514 q 348 398 337 424 q 380 356 360 373 q 428 330 400 339 q 489 322 456 322 q 541 328 514 322 q 595 342 569 333 q 647 362 621 351 q 693 386 672 374 l 666 67 q 608 43 639 54 q 545 25 577 33 q 480 13 512 17 q 417 9 447 9 q 257 41 331 9 q 127 128 182 73 q 41 260 72 184 q 9 423 9 335 q 42 641 9 539 q 140 822 75 744 q 300 944 204 899 q 519 988 395 988 q 615 981 566 988 q 706 953 664 973 m 493 1137 q 482 1085 493 1109 q 453 1044 472 1062 q 411 1016 435 1026 q 359 1005 386 1005 q 304 1016 329 1005 q 260 1044 278 1026 q 232 1085 242 1062 q 222 1137 222 1109 q 232 1189 222 1164 q 260 1231 242 1213 q 302 1259 278 1249 q 354 1270 327 1270 q 409 1259 384 1270 q 453 1231 434 1249 q 482 1189 472 1213 q 493 1137 493 1164 "},"³":{"x_min":23.0625,"x_max":386.59375,"ha":406,"o":"m 386 554 q 371 492 386 518 q 329 447 356 465 q 265 422 303 430 q 184 413 228 413 q 100 424 143 413 q 23 451 57 435 l 36 561 q 66 548 49 554 q 100 537 82 542 q 137 529 118 532 q 172 526 155 526 q 192 527 182 526 q 211 531 203 528 q 225 540 219 534 q 230 556 230 546 q 223 567 230 562 q 206 575 216 572 q 186 581 196 579 q 169 583 176 583 q 157 582 164 583 q 142 581 149 582 q 129 579 135 581 q 119 576 122 578 l 120 653 q 132 652 126 652 q 143 652 138 652 q 171 654 156 652 q 198 660 185 655 q 218 673 210 665 q 226 693 226 680 q 220 707 226 701 q 204 716 213 713 q 184 720 195 719 q 164 721 172 721 q 108 714 135 721 q 59 691 81 707 l 29 790 q 103 821 61 811 q 187 831 145 831 q 260 823 225 831 q 322 798 295 814 q 365 757 349 781 q 381 701 381 733 q 368 663 381 682 q 337 633 355 644 q 376 600 366 623 q 386 554 386 578 "},"¡":{"x_min":20.34375,"x_max":352.671875,"ha":387,"o":"m 20 -293 l 75 420 l 326 420 l 352 -293 l 20 -293 m 65 629 q 76 684 65 658 q 107 730 88 710 q 152 760 126 749 q 207 771 178 771 q 262 760 236 771 q 308 730 288 749 q 338 684 327 710 q 349 629 349 658 q 338 573 349 599 q 308 528 327 547 q 262 497 288 508 q 207 485 236 485 q 152 497 178 485 q 107 528 126 508 q 76 573 88 547 q 65 629 65 599 "},"ẅ":{"x_min":4.75,"x_max":1259.453125,"ha":1264,"o":"m 1259 941 l 1100 28 l 715 20 l 632 480 l 550 55 l 164 42 l 4 914 l 341 944 l 408 408 l 499 903 l 764 903 l 870 401 l 924 971 l 1259 941 m 867 1052 q 860 1013 867 1031 q 838 982 852 995 q 806 961 825 969 q 767 953 788 953 q 729 961 747 953 q 698 982 711 969 q 677 1013 685 995 q 669 1052 669 1031 q 677 1090 669 1072 q 698 1122 685 1108 q 729 1143 711 1135 q 767 1151 747 1151 q 806 1143 788 1151 q 838 1122 825 1135 q 860 1090 852 1108 q 867 1052 867 1072 m 603 1037 q 594 995 603 1015 q 571 960 586 975 q 537 937 557 946 q 496 929 517 929 q 454 937 473 929 q 420 960 434 946 q 397 995 405 975 q 389 1037 389 1015 q 397 1077 389 1058 q 420 1111 405 1096 q 454 1134 434 1125 q 496 1143 473 1143 q 537 1134 517 1143 q 571 1111 557 1125 q 594 1077 586 1096 q 603 1037 603 1058 "},"[":{"x_min":42.734375,"x_max":513.421875,"ha":508,"o":"m 499 873 l 319 877 l 299 94 l 489 93 l 487 -99 q 374 -94 431 -95 q 259 -93 317 -93 q 153 -94 206 -93 q 46 -100 99 -96 q 42 233 42 66 q 49 646 42 440 q 65 1056 55 851 q 170 1061 118 1060 q 274 1062 222 1062 q 395 1060 336 1062 q 513 1052 453 1058 l 499 873 "},"%":{"x_min":27.8125,"x_max":978.671875,"ha":1006,"o":"m 978 288 q 963 218 978 252 q 920 155 948 183 q 851 110 891 128 q 760 93 811 93 q 669 110 710 93 q 601 155 629 128 q 558 218 573 183 q 543 288 543 252 q 558 359 543 324 q 601 422 573 394 q 669 466 629 449 q 760 484 710 484 q 851 466 811 484 q 920 422 891 449 q 963 359 948 394 q 978 288 978 324 m 825 290 q 821 313 825 301 q 809 337 817 326 q 789 356 801 348 q 758 363 776 363 q 728 356 741 363 q 707 337 715 348 q 695 313 699 326 q 691 290 691 301 q 695 266 691 279 q 707 243 699 254 q 728 224 715 231 q 758 217 741 217 q 789 224 776 217 q 809 243 801 231 q 821 266 817 254 q 825 290 825 279 m 463 625 q 448 554 463 589 q 404 492 433 519 q 336 447 376 464 q 244 430 295 430 q 154 447 194 430 q 85 492 113 464 q 42 554 57 519 q 27 625 27 589 q 42 695 27 660 q 85 758 57 731 q 154 803 113 786 q 244 820 194 820 q 336 803 295 820 q 404 758 376 786 q 448 695 433 731 q 463 625 463 660 m 309 626 q 306 650 309 637 q 294 673 302 662 q 273 692 286 685 q 243 699 261 699 q 212 692 225 699 q 191 673 200 685 q 179 650 183 662 q 175 626 175 637 q 179 603 175 615 q 191 579 183 590 q 212 560 200 568 q 243 553 225 553 q 273 560 261 553 q 294 579 286 568 q 306 603 302 590 q 309 626 309 615 m 734 843 q 573 458 647 654 q 434 63 499 263 l 293 115 q 373 311 333 213 q 454 506 413 409 q 541 698 496 603 q 636 887 585 794 l 734 843 "},"P":{"x_min":36.625,"x_max":824.71875,"ha":827,"o":"m 824 652 q 805 535 824 586 q 751 446 785 484 q 670 382 716 408 q 572 339 624 356 q 463 315 519 322 q 352 306 406 307 l 352 -9 l 36 -9 q 37 299 36 145 q 39 610 37 453 q 40 775 40 693 q 43 942 39 858 q 217 981 130 968 q 396 994 303 994 q 500 985 448 994 q 600 959 552 977 q 689 913 648 940 q 760 847 730 885 q 807 761 790 809 q 824 652 824 712 m 523 629 q 496 698 523 673 q 427 722 470 722 q 397 720 413 722 q 368 714 382 718 l 360 516 q 379 515 370 515 q 397 515 387 515 q 444 523 421 515 q 484 546 467 531 q 513 582 502 562 q 523 629 523 603 "},"_":{"x_min":-10.859375,"x_max":430,"ha":419,"o":"m -8 -287 l -10 -84 l 427 -63 l 430 -295 l -8 -287 "},"Ŕ":{"x_min":29.15625,"x_max":829.46875,"ha":842,"o":"m 829 653 q 820 557 829 600 q 791 478 811 514 q 740 412 771 442 q 665 354 709 381 l 826 66 l 521 6 l 417 295 l 333 293 l 320 10 l 29 10 q 35 318 32 165 q 42 626 38 472 q 45 781 44 704 q 50 935 46 857 q 144 965 98 953 q 237 983 190 976 q 331 991 283 989 q 429 994 379 994 q 578 972 506 994 q 706 908 651 951 q 795 802 762 866 q 829 653 829 738 m 525 632 q 517 684 525 660 q 494 725 510 708 q 456 752 479 742 q 403 762 434 762 q 377 760 389 762 q 352 755 364 758 l 341 503 l 357 503 q 416 510 386 503 q 471 533 446 518 q 510 573 495 549 q 525 632 525 598 m 780 1196 q 623 1107 699 1152 q 469 1009 546 1062 l 383 1104 q 415 1140 396 1120 q 455 1181 434 1160 q 500 1224 477 1202 q 545 1265 523 1245 q 652 1359 596 1311 l 780 1196 "},"ñ":{"x_min":18.984375,"x_max":876.265625,"ha":905,"o":"m 876 343 q 874 191 876 266 q 869 40 872 116 l 478 47 q 514 287 499 167 q 529 529 529 406 q 528 557 529 537 q 525 601 527 577 q 519 652 523 626 q 509 700 516 678 q 494 736 503 722 q 472 750 484 750 q 433 736 448 750 q 406 701 417 722 q 389 653 396 680 q 380 600 383 627 q 376 551 377 574 q 375 512 375 527 q 370 274 372 392 q 364 35 368 155 l 18 20 q 45 496 32 259 q 65 972 57 733 l 385 988 l 382 880 q 423 923 401 903 q 470 958 445 944 q 523 981 495 973 q 583 990 552 990 q 684 971 640 990 q 758 919 727 952 q 811 842 790 887 q 845 748 832 798 q 864 643 857 697 q 873 535 871 588 q 876 433 876 482 q 876 343 876 383 m 718 1198 q 704 1124 718 1158 q 665 1065 690 1090 q 607 1026 640 1040 q 535 1012 573 1012 q 484 1023 505 1012 q 448 1050 463 1033 q 423 1085 434 1066 q 404 1120 413 1104 q 386 1147 395 1136 q 365 1158 377 1158 q 353 1154 358 1158 q 344 1143 347 1149 q 340 1130 341 1137 q 338 1116 338 1122 q 343 1076 338 1096 q 356 1039 348 1057 l 190 1025 q 179 1083 182 1054 q 176 1139 176 1111 q 186 1217 176 1181 q 219 1279 197 1252 q 271 1321 240 1305 q 345 1336 303 1336 q 407 1324 382 1336 q 447 1296 431 1313 q 473 1259 464 1279 q 490 1221 482 1238 q 504 1193 497 1204 q 521 1181 511 1181 q 542 1193 535 1181 q 550 1218 550 1206 q 542 1258 550 1238 q 524 1292 534 1277 l 692 1320 q 711 1260 704 1290 q 718 1198 718 1229 "},"‚":{"x_min":13.5625,"x_max":298.453125,"ha":313,"o":"m 298 96 q 284 25 297 64 q 246 -50 271 -12 q 188 -121 222 -88 q 111 -177 153 -155 q 110 -161 111 -177 q 108 -124 109 -146 q 106 -77 107 -102 q 104 -32 105 -52 q 37 19 62 -16 q 13 100 13 56 q 24 155 13 129 q 55 200 35 181 q 100 231 74 219 q 155 242 126 242 q 211 231 185 242 q 256 200 237 219 q 287 155 276 181 q 298 100 299 129 l 298 96 "},"Æ":{"x_min":-33.90625,"x_max":1177.390625,"ha":1166,"o":"m 556 375 l 562 611 l 454 375 l 556 375 m 1177 978 q 1169 851 1173 914 q 1161 725 1166 789 l 873 710 l 866 625 l 1068 625 l 1053 415 l 850 408 l 843 309 l 1131 309 q 1122 161 1127 234 q 1115 13 1118 87 l 530 0 l 535 168 l 370 168 l 302 14 l -33 48 l 459 952 l 1177 978 "},"ğ":{"x_min":6.78125,"x_max":854.5625,"ha":872,"o":"m 854 151 q 775 82 822 111 q 675 32 729 52 q 565 3 621 12 q 458 -6 509 -6 q 277 26 360 -6 q 134 119 194 59 q 40 260 74 178 q 6 439 6 342 q 23 583 6 513 q 72 714 40 653 q 149 826 103 775 q 252 913 194 876 q 378 970 309 950 q 524 990 447 990 q 587 987 554 990 q 653 979 620 985 q 717 963 686 973 q 774 938 748 953 l 755 679 q 677 698 717 693 q 598 704 636 704 q 496 689 543 704 q 414 646 449 674 q 359 575 379 617 q 339 476 339 532 q 348 407 339 440 q 377 349 358 375 q 425 308 396 324 q 492 293 454 293 q 545 299 518 293 q 592 322 573 306 l 595 375 l 432 378 l 440 581 q 642 587 541 585 q 846 594 744 590 l 854 151 m 627 1216 q 611 1136 627 1173 q 567 1072 595 1099 q 503 1029 540 1044 q 423 1014 465 1014 q 337 1029 374 1014 q 275 1071 300 1044 q 237 1138 250 1099 q 224 1227 224 1177 q 224 1243 224 1234 q 225 1258 224 1251 l 383 1238 q 383 1213 382 1227 q 390 1187 385 1199 q 404 1165 395 1174 q 429 1156 413 1156 q 445 1161 438 1156 q 455 1175 451 1167 q 461 1192 459 1183 q 463 1209 463 1201 q 458 1247 463 1229 q 448 1283 454 1264 l 612 1312 q 622 1265 618 1290 q 627 1216 627 1240 "},"Ū":{"x_min":22.375,"x_max":845.75,"ha":865,"o":"m 845 754 q 841 643 845 704 q 825 518 836 583 q 797 388 814 454 q 754 261 779 322 q 694 146 728 200 q 615 53 659 93 q 516 -8 571 14 q 394 -31 461 -31 q 257 -5 315 -31 q 158 62 199 19 q 90 163 116 105 q 48 284 63 220 q 28 415 33 348 q 22 543 22 482 q 31 733 22 638 q 59 922 41 828 l 376 910 q 344 696 358 803 q 331 480 331 588 q 332 445 331 468 q 336 395 333 423 q 344 337 339 366 q 358 283 349 307 q 379 243 366 259 q 408 227 392 227 q 444 246 428 227 q 471 296 459 265 q 492 368 483 327 q 507 453 501 408 q 517 541 513 497 q 523 623 520 585 q 526 690 525 661 q 526 733 526 719 q 525 839 526 786 q 520 944 523 891 l 837 944 q 845 754 845 850 m 651 980 l 223 986 l 211 1147 l 654 1155 l 651 980 "},"ª":{"x_min":-5.421875,"x_max":622.609375,"ha":620,"o":"m 622 374 l 390 348 l 364 447 l 256 447 l 233 348 l -5 368 l 180 910 l 440 922 l 622 374 m 347 564 l 310 706 l 276 564 l 347 564 "},"Œ":{"x_min":9.5,"x_max":1211.3125,"ha":1200,"o":"m 1211 978 q 1203 851 1207 914 q 1195 725 1200 789 l 907 710 l 900 625 l 1102 625 l 1087 415 l 884 408 l 877 309 l 1165 309 q 1156 161 1161 234 q 1148 13 1152 87 l 564 0 l 564 43 q 504 30 535 35 q 440 25 473 25 q 324 41 379 25 q 221 85 269 56 q 133 152 172 113 q 67 241 94 192 q 24 345 39 289 q 9 461 9 400 q 23 576 9 520 q 64 683 37 633 q 129 775 91 733 q 214 848 167 817 q 316 895 261 878 q 432 912 371 912 q 511 907 473 912 q 583 891 548 901 l 585 978 l 1211 978 m 569 461 q 561 517 569 490 q 536 566 552 545 q 496 601 520 588 q 440 614 472 614 q 383 602 408 614 q 340 571 358 591 q 313 524 322 551 q 303 467 303 497 q 311 411 303 439 q 336 359 320 382 q 376 322 352 336 q 432 307 400 307 q 490 320 464 307 q 533 354 515 333 q 560 403 550 375 q 569 461 569 431 "},"Ą":{"x_min":-21.703125,"x_max":889.828125,"ha":869,"o":"m 874 -159 q 807 -208 844 -187 q 727 -229 769 -229 q 669 -219 696 -229 q 620 -190 641 -208 q 588 -145 600 -171 q 575 -87 575 -119 q 587 -28 575 -56 q 617 23 598 -1 l 553 14 l 512 168 l 358 168 l 324 14 l -21 48 l 248 952 l 625 971 l 889 58 l 787 44 q 765 15 776 31 q 744 -14 753 0 q 729 -43 735 -29 q 723 -67 723 -56 q 732 -87 723 -79 q 753 -95 741 -95 q 783 -85 767 -95 q 807 -63 799 -74 l 874 -159 m 488 375 l 436 611 l 386 375 l 488 375 "},"T":{"x_min":4.0625,"x_max":751.46875,"ha":754,"o":"m 751 969 l 744 682 l 542 674 l 491 31 l 204 16 l 206 659 l 4 648 l 12 968 l 751 969 "},"š":{"x_min":18.984375,"x_max":729.765625,"ha":739,"o":"m 729 347 q 697 186 729 254 q 609 75 665 119 q 478 11 553 31 q 317 -9 403 -9 q 244 0 284 -9 q 164 21 204 8 q 85 49 123 34 q 18 78 48 65 l 48 344 q 176 291 106 309 q 314 274 246 274 q 345 275 327 274 q 380 281 364 276 q 408 296 397 286 q 420 325 420 306 q 412 347 420 338 q 391 362 404 356 q 362 371 378 368 q 330 375 345 374 q 301 377 314 377 q 279 377 287 377 q 173 395 221 377 q 91 447 125 413 q 37 528 56 480 q 18 634 18 576 q 51 778 18 714 q 137 886 83 841 q 261 954 191 930 q 405 978 330 978 q 474 975 438 978 q 544 967 509 973 q 612 951 579 961 q 675 927 645 942 l 649 652 q 553 678 603 668 q 454 689 502 689 q 431 688 445 689 q 402 686 417 688 q 371 681 387 685 q 343 672 356 678 q 324 657 331 666 q 317 634 316 647 q 328 611 318 619 q 355 599 339 603 q 392 596 372 596 q 432 597 412 596 q 468 599 451 598 q 496 599 485 600 q 594 576 550 596 q 667 524 637 556 q 713 446 697 491 q 729 347 729 401 m 614 1244 q 583 1196 601 1223 q 544 1140 565 1169 q 502 1081 524 1111 q 462 1027 481 1052 l 329 1008 l 133 1223 l 276 1314 l 382 1176 l 465 1309 l 614 1244 "},"Þ":{"x_min":39.34375,"x_max":827.4375,"ha":832,"o":"m 39 969 l 394 992 l 386 817 l 398 817 q 503 809 451 817 q 603 782 555 800 q 692 736 651 764 q 763 671 733 709 q 810 584 792 633 q 827 476 827 535 q 807 359 827 410 q 753 270 788 308 q 673 205 719 231 q 574 163 627 179 q 465 139 522 146 q 355 130 409 131 l 355 -9 l 39 -9 l 39 969 m 526 453 q 499 521 526 497 q 430 546 472 546 q 400 544 415 546 q 371 538 385 541 l 363 340 q 381 339 373 339 q 400 339 390 339 q 447 347 424 339 q 487 370 470 355 q 515 406 505 385 q 526 453 526 427 "},"j":{"x_min":-9.5,"x_max":682.296875,"ha":708,"o":"m 682 558 q 682 479 682 518 q 678 400 682 440 q 641 239 670 315 q 562 107 612 164 q 441 16 512 50 q 278 -16 370 -16 q 203 -10 242 -16 q 125 8 164 -4 q 52 38 87 20 q -9 80 17 56 l 32 360 q 121 298 72 322 q 227 274 170 274 q 290 284 265 274 q 333 314 316 295 q 360 359 350 333 q 374 413 370 384 q 380 472 379 442 q 381 533 381 503 q 370 747 381 640 q 351 961 359 854 l 661 982 q 682 558 682 770 "},"1":{"x_min":-20.34375,"x_max":508.671875,"ha":539,"o":"m 508 975 l 469 10 l 173 24 l 189 666 l 81 591 l -20 823 l 200 988 l 508 975 "},"›":{"x_min":16.28125,"x_max":444.921875,"ha":462,"o":"m 150 157 l 39 366 l 225 489 l 16 609 l 123 830 l 436 622 l 444 373 l 150 157 "},"<":{"x_min":30.515625,"x_max":600.234375,"ha":632,"o":"m 489 70 l 40 339 l 30 588 l 487 877 l 583 647 l 251 473 l 600 303 l 489 70 "},"t":{"x_min":5.421875,"x_max":752.828125,"ha":757,"o":"m 752 956 l 746 668 l 543 660 l 519 31 l 233 16 l 207 645 l 5 634 l 13 954 l 752 956 "},"¬":{"x_min":38.65625,"x_max":691.109375,"ha":743,"o":"m 426 202 l 421 409 l 46 401 l 38 657 l 681 668 l 691 218 l 426 202 "},"ù":{"x_min":23.734375,"x_max":843.03125,"ha":849,"o":"m 843 954 q 790 479 812 716 q 749 4 769 243 l 471 -16 l 483 88 q 452 61 470 72 q 413 42 434 49 q 371 32 393 35 q 330 29 349 29 q 243 47 284 30 q 168 93 202 65 q 107 161 134 122 q 62 241 80 199 q 33 328 43 284 q 23 413 23 372 q 26 540 23 474 q 34 671 28 605 q 50 801 40 737 q 75 925 60 866 q 241 917 158 921 q 407 915 324 914 q 376 797 392 856 q 349 677 361 737 q 329 557 337 617 q 322 435 322 497 q 323 394 322 421 q 330 342 324 368 q 348 297 336 316 q 381 278 360 278 q 427 300 407 278 q 463 359 448 322 q 490 445 479 396 q 509 547 501 494 q 522 655 517 600 q 529 757 526 709 q 532 843 531 805 q 533 902 533 881 q 533 928 533 915 q 531 954 532 941 q 618 952 575 953 q 706 952 661 952 q 774 952 739 952 q 843 954 808 952 m 444 929 q 295 1033 369 985 q 142 1128 220 1082 l 276 1287 q 380 1188 330 1236 q 423 1145 401 1167 q 465 1100 445 1122 q 504 1057 486 1078 q 535 1020 522 1037 l 444 929 "},"ĉ":{"x_min":10.171875,"x_max":696.53125,"ha":712,"o":"m 681 926 l 657 640 q 618 647 637 645 q 579 649 599 649 q 487 637 531 649 q 410 600 444 625 q 357 536 377 575 q 337 446 337 498 q 348 380 337 408 q 380 333 359 352 q 430 305 400 314 q 495 295 459 295 q 547 300 520 295 q 600 314 573 305 q 651 335 626 323 q 696 359 675 346 l 685 40 q 628 16 659 27 q 565 -1 598 6 q 501 -13 533 -9 q 440 -17 469 -17 q 264 18 343 -17 q 129 116 185 54 q 41 260 72 178 q 10 435 10 342 q 41 642 10 546 q 134 810 73 739 q 286 921 196 881 q 494 961 377 961 q 589 954 541 961 q 681 926 637 946 m 456 984 l 350 1123 l 268 991 l 119 1055 q 150 1104 131 1076 q 190 1163 169 1132 q 233 1223 211 1193 q 274 1279 255 1253 l 414 1280 l 600 1073 l 456 984 "},"ï":{"x_min":-31,"x_max":447.828125,"ha":408,"o":"m 388 954 l 341 31 l 54 16 l 27 935 l 388 954 m 447 1105 q 440 1066 447 1084 q 418 1035 432 1048 q 386 1014 405 1022 q 347 1006 368 1006 q 309 1014 327 1006 q 278 1035 291 1022 q 257 1066 265 1048 q 249 1105 249 1084 q 257 1143 249 1125 q 278 1175 265 1161 q 309 1196 291 1188 q 347 1204 327 1204 q 386 1196 368 1204 q 418 1175 405 1188 q 440 1143 432 1161 q 447 1105 447 1125 m 183 1090 q 174 1048 183 1068 q 151 1013 166 1028 q 117 990 137 999 q 76 982 97 982 q 34 990 53 982 q 0 1013 14 999 q -22 1048 -14 1028 q -31 1090 -31 1068 q -22 1130 -31 1111 q 0 1164 -14 1149 q 34 1187 14 1178 q 76 1196 53 1196 q 117 1187 97 1196 q 151 1164 137 1178 q 174 1130 166 1149 q 183 1090 183 1111 "},"ī":{"x_min":-16,"x_max":427.5625,"ha":409,"o":"m 388 954 l 341 31 l 54 16 l 27 935 l 388 954 m 424 987 l -3 993 l -16 1154 l 427 1162 l 424 987 "},"Ò":{"x_min":11.53125,"x_max":872.875,"ha":886,"o":"m 872 478 q 858 359 872 417 q 817 252 844 302 q 752 160 790 202 q 666 88 714 118 q 562 42 618 59 q 442 25 505 25 q 326 41 381 25 q 223 85 271 56 q 135 152 174 113 q 69 241 96 192 q 26 345 42 289 q 11 461 11 400 q 25 576 11 520 q 66 683 40 633 q 131 775 93 733 q 216 848 169 817 q 318 895 263 878 q 434 912 373 912 q 614 882 533 912 q 752 795 695 851 q 841 658 809 738 q 872 478 872 577 m 571 461 q 563 517 571 490 q 538 566 554 545 q 498 601 522 588 q 442 614 474 614 q 385 602 411 614 q 342 571 360 591 q 315 524 324 551 q 305 467 305 497 q 314 411 305 439 q 338 359 322 382 q 378 322 354 336 q 434 307 402 307 q 492 320 466 307 q 535 354 517 333 q 562 403 552 375 q 571 461 571 431 m 373 952 q 224 1056 298 1008 q 71 1151 149 1105 l 205 1310 q 309 1211 259 1259 q 352 1168 330 1190 q 394 1123 374 1145 q 433 1080 415 1101 q 464 1043 451 1060 l 373 952 "},"Ď":{"x_min":29.84375,"x_max":803.015625,"ha":809,"o":"m 803 538 q 778 367 803 443 q 710 231 754 290 q 606 129 666 172 q 474 59 545 86 q 321 18 402 31 q 154 5 240 5 q 92 7 122 5 q 29 12 61 8 l 48 922 q 202 955 123 946 q 359 965 281 965 q 537 936 456 965 q 678 852 619 907 q 770 718 737 797 q 803 538 803 638 m 524 495 q 517 565 525 531 q 489 625 508 599 q 440 667 470 651 q 368 685 410 683 l 341 264 q 415 291 382 270 q 473 342 448 311 q 510 409 497 372 q 524 485 523 446 l 524 495 m 629 1238 q 598 1190 616 1217 q 559 1134 580 1163 q 517 1075 539 1105 q 477 1021 496 1046 l 344 1002 l 148 1217 l 291 1308 l 397 1170 l 480 1303 l 629 1238 "},"&":{"x_min":9.34375,"x_max":892.546875,"ha":875,"o":"m 736 66 q 689 101 712 84 q 641 137 665 118 q 566 86 608 110 q 477 44 524 61 q 379 17 430 26 q 276 13 328 8 q 166 36 217 17 q 78 86 115 56 q 23 156 42 117 q 10 240 4 196 q 35 312 16 277 q 82 379 54 347 q 145 439 110 411 q 215 493 179 468 q 167 546 189 518 q 128 605 144 575 q 104 667 111 635 q 101 731 96 698 q 137 813 108 774 q 211 879 166 851 q 312 922 256 907 q 428 931 368 936 q 532 905 484 927 q 613 849 579 883 q 664 776 647 816 q 675 695 681 735 q 654 634 670 663 q 614 580 638 606 q 562 532 591 555 q 504 485 533 508 q 559 443 533 463 q 613 404 585 423 q 636 440 625 421 q 657 480 648 459 l 859 431 q 824 355 846 393 q 775 280 802 316 q 834 239 805 259 q 892 198 862 219 l 736 66 m 421 709 q 413 748 423 733 q 381 765 402 763 q 342 755 358 768 q 324 718 326 743 q 326 687 322 703 q 336 656 329 671 q 350 627 342 640 q 366 602 358 613 q 384 625 375 612 q 401 652 393 638 q 414 681 408 666 q 421 709 420 695 m 443 264 q 401 314 423 288 q 359 364 379 340 q 339 341 350 355 q 319 313 328 328 q 301 281 309 297 q 293 250 294 265 q 304 215 291 231 q 336 196 316 198 q 365 201 350 194 q 395 218 381 207 q 422 241 409 229 q 443 264 434 254 "},"˝":{"x_min":0,"x_max":640.25,"ha":640,"o":"m 640 1128 q 495 1021 566 1075 q 354 907 424 967 l 259 990 q 286 1030 270 1008 q 322 1075 303 1051 q 361 1123 341 1099 q 400 1169 381 1147 q 496 1277 446 1222 l 640 1128 m 382 1174 q 237 1067 308 1121 q 97 952 166 1012 l 0 1036 q 28 1076 11 1054 q 63 1122 44 1098 q 102 1170 82 1146 q 142 1216 122 1194 q 238 1323 187 1268 l 382 1174 "},"I":{"x_min":40.015625,"x_max":400.828125,"ha":413,"o":"m 400 954 l 326 31 l 40 16 l 40 935 l 400 954 "},"G":{"x_min":5.421875,"x_max":853.203125,"ha":870,"o":"m 853 138 q 774 68 821 98 q 674 18 727 38 q 564 -10 620 0 q 457 -20 507 -20 q 276 14 358 -20 q 133 112 193 50 q 39 258 73 174 q 5 439 5 342 q 22 584 5 513 q 70 717 39 655 q 147 833 102 780 q 250 923 193 885 q 377 982 308 961 q 523 1003 445 1003 q 585 1001 552 1003 q 652 993 619 999 q 716 977 685 987 q 773 952 747 967 l 754 693 q 675 712 716 707 q 596 717 635 717 q 495 700 542 717 q 413 653 448 684 q 358 577 378 621 q 337 476 337 532 q 347 407 337 440 q 376 349 356 375 q 424 308 395 324 q 491 293 453 293 q 544 299 516 293 q 591 322 571 306 l 594 375 l 431 378 l 439 581 q 641 587 540 585 q 845 594 742 590 l 853 138 "},"`":{"x_min":0,"x_max":393.375,"ha":393,"o":"m 302 926 q 153 1030 227 982 q 0 1125 78 1079 l 134 1284 q 238 1185 188 1233 q 281 1142 259 1164 q 323 1097 303 1119 q 362 1054 344 1075 q 393 1017 380 1034 l 302 926 "},"·":{"x_min":14.921875,"x_max":299.78125,"ha":313,"o":"m 299 472 q 288 416 299 442 q 257 371 276 390 q 212 340 238 352 q 157 329 186 329 q 101 340 127 329 q 56 371 75 352 q 26 416 37 390 q 14 472 14 442 q 26 527 14 501 q 56 573 37 554 q 101 604 75 592 q 157 615 127 615 q 212 604 186 615 q 257 573 238 592 q 288 527 276 554 q 299 472 299 501 "},"ŏ":{"x_min":11.53125,"x_max":872.875,"ha":886,"o":"m 872 519 q 858 400 872 457 q 817 292 844 343 q 752 201 790 242 q 666 129 714 159 q 562 83 618 99 q 442 66 505 66 q 326 82 381 66 q 223 125 271 97 q 135 193 174 153 q 69 281 96 233 q 26 385 42 330 q 11 501 11 441 q 25 617 11 560 q 66 724 40 674 q 131 816 93 774 q 216 889 169 858 q 318 936 263 919 q 434 953 373 953 q 614 923 533 953 q 752 835 695 892 q 841 698 809 779 q 872 519 872 618 m 571 501 q 563 558 571 531 q 538 607 554 585 q 498 641 522 628 q 442 655 474 655 q 385 643 411 655 q 342 612 360 632 q 315 565 324 592 q 305 508 305 538 q 314 451 305 480 q 338 400 322 423 q 378 362 354 377 q 434 348 402 348 q 492 361 466 348 q 535 395 517 373 q 562 444 552 416 q 571 501 571 472 m 635 1191 q 619 1111 635 1148 q 575 1047 603 1074 q 511 1004 548 1019 q 431 989 473 989 q 345 1004 382 989 q 283 1046 308 1019 q 245 1113 258 1074 q 232 1202 232 1152 q 232 1218 232 1209 q 233 1233 232 1226 l 391 1213 q 391 1188 390 1202 q 398 1162 393 1174 q 412 1140 403 1149 q 437 1131 421 1131 q 453 1136 446 1131 q 463 1150 459 1142 q 469 1167 467 1158 q 471 1184 471 1176 q 466 1222 471 1204 q 456 1258 462 1239 l 620 1287 q 630 1240 626 1265 q 635 1191 635 1215 "},"¿":{"x_min":40.6875,"x_max":754.1875,"ha":781,"o":"m 343 443 l 572 443 q 563 322 576 370 q 529 242 551 274 q 479 190 507 210 q 426 155 452 170 q 379 127 400 141 q 352 93 359 113 q 349 65 347 81 q 363 35 352 49 q 398 11 375 21 q 459 1 421 1 q 517 5 484 1 q 588 19 551 10 q 660 41 624 28 q 724 71 695 54 l 754 -193 q 697 -225 729 -209 q 628 -253 666 -240 q 545 -274 590 -265 q 448 -282 500 -282 q 291 -259 365 -282 q 161 -191 217 -236 q 73 -81 105 -146 q 40 69 40 -15 q 59 172 40 133 q 105 236 77 211 q 169 278 134 261 q 238 315 204 295 q 300 364 271 335 q 343 443 328 394 m 309 622 q 320 677 309 651 q 351 723 332 704 q 396 753 370 742 q 451 765 422 765 q 506 753 480 765 q 552 723 533 742 q 582 677 571 704 q 594 622 594 651 q 582 566 594 592 q 552 521 571 540 q 506 490 533 501 q 451 478 480 478 q 396 490 422 478 q 351 521 370 501 q 320 566 332 540 q 309 622 309 592 "},"ý":{"x_min":-27.125,"x_max":870.84375,"ha":841,"o":"m 870 918 l 552 397 l 561 13 l 212 13 l 221 394 l -27 897 l 318 941 l 427 648 l 545 941 l 870 918 m 792 1113 q 635 1024 711 1069 q 481 926 558 979 l 395 1021 q 427 1057 408 1037 q 467 1098 446 1077 q 512 1141 489 1119 q 557 1182 535 1162 q 664 1276 608 1228 l 792 1113 "},"º":{"x_min":8.140625,"x_max":602.265625,"ha":612,"o":"m 602 651 q 580 545 602 595 q 518 459 558 496 q 425 400 479 421 q 306 378 370 378 q 188 398 242 378 q 93 454 133 419 q 30 538 53 490 q 8 640 8 585 q 30 742 8 693 q 90 829 52 791 q 183 889 129 866 q 299 911 236 911 q 424 893 368 911 q 519 840 480 874 q 580 758 559 807 q 602 651 602 710 m 394 640 q 388 673 394 657 q 372 703 383 690 q 344 724 360 716 q 306 732 327 732 q 266 725 284 732 q 236 706 248 718 q 217 677 223 693 q 210 644 210 661 q 216 609 210 626 q 232 578 221 592 q 261 556 244 564 q 299 548 278 548 q 339 555 322 548 q 369 576 357 563 q 388 605 381 589 q 394 640 394 622 "},"ź":{"x_min":23.734375,"x_max":670.765625,"ha":688,"o":"m 670 717 l 360 325 l 646 325 l 655 37 l 50 13 l 23 279 l 377 713 l 26 689 l 23 961 l 658 961 l 670 717 m 665 1173 q 508 1084 584 1129 q 354 986 431 1039 l 268 1081 q 300 1117 281 1097 q 340 1158 319 1137 q 385 1201 362 1179 q 430 1242 408 1222 q 537 1336 481 1288 l 665 1173 "},"ű":{"x_min":23.734375,"x_max":909.25,"ha":849,"o":"m 843 954 q 790 479 812 716 q 749 4 769 243 l 471 -16 l 483 88 q 452 61 470 72 q 413 42 434 49 q 371 32 393 35 q 330 29 349 29 q 243 47 284 30 q 168 93 202 65 q 107 161 134 122 q 62 241 80 199 q 33 328 43 284 q 23 413 23 372 q 26 540 23 474 q 34 671 28 605 q 50 801 40 737 q 75 925 60 866 q 241 917 158 921 q 407 915 324 914 q 376 797 392 856 q 349 677 361 737 q 329 557 337 617 q 322 435 322 497 q 323 394 322 421 q 330 342 324 368 q 348 297 336 316 q 381 278 360 278 q 427 300 407 278 q 463 359 448 322 q 490 445 479 396 q 509 547 501 494 q 522 655 517 600 q 529 757 526 709 q 532 843 531 805 q 533 902 533 881 q 533 928 533 915 q 531 954 532 941 q 618 952 575 953 q 706 952 661 952 q 774 952 739 952 q 843 954 808 952 m 909 1191 q 764 1084 835 1138 q 623 970 693 1030 l 528 1053 q 555 1093 539 1071 q 591 1138 572 1114 q 630 1186 610 1162 q 669 1232 650 1210 q 765 1340 715 1285 l 909 1191 m 651 1237 q 506 1130 577 1184 q 366 1015 435 1075 l 269 1099 q 297 1139 280 1117 q 332 1185 313 1161 q 371 1233 351 1209 q 411 1279 391 1257 q 507 1386 456 1331 l 651 1237 "},"Ǽ":{"x_min":-33.90625,"x_max":1177.390625,"ha":1166,"o":"m 556 375 l 562 611 l 454 375 l 556 375 m 1177 978 q 1169 851 1173 914 q 1161 725 1166 789 l 873 710 l 866 625 l 1068 625 l 1053 415 l 850 408 l 843 309 l 1131 309 q 1122 161 1127 234 q 1115 13 1118 87 l 530 0 l 535 168 l 370 168 l 302 14 l -33 48 l 459 952 l 1177 978 m 1033 1177 q 876 1088 952 1133 q 722 990 799 1043 l 636 1085 q 668 1121 649 1101 q 708 1162 687 1141 q 753 1205 730 1183 q 798 1246 776 1226 q 905 1340 849 1292 l 1033 1177 "},"ń":{"x_min":18.984375,"x_max":876.265625,"ha":905,"o":"m 876 343 q 874 191 876 266 q 869 40 872 116 l 478 47 q 514 287 499 167 q 529 529 529 406 q 528 557 529 537 q 525 601 527 577 q 519 652 523 626 q 509 700 516 678 q 494 736 503 722 q 472 750 484 750 q 433 736 448 750 q 406 701 417 722 q 389 653 396 680 q 380 600 383 627 q 376 551 377 574 q 375 512 375 527 q 370 274 372 392 q 364 35 368 155 l 18 20 q 45 496 32 259 q 65 972 57 733 l 385 988 l 382 880 q 423 923 401 903 q 470 958 445 944 q 523 981 495 973 q 583 990 552 990 q 684 971 640 990 q 758 919 727 952 q 811 842 790 887 q 845 748 832 798 q 864 643 857 697 q 873 535 871 588 q 876 433 876 482 q 876 343 876 383 m 764 1189 q 607 1100 683 1145 q 453 1002 530 1055 l 367 1097 q 399 1133 380 1113 q 439 1174 418 1153 q 484 1217 461 1195 q 529 1258 507 1238 q 636 1352 580 1304 l 764 1189 "},";":{"x_min":28.484375,"x_max":313.375,"ha":343,"o":"m 313 150 q 299 80 312 118 q 261 3 286 41 q 203 -67 237 -33 q 126 -123 168 -101 q 125 -107 126 -122 q 123 -70 124 -92 q 121 -23 122 -48 q 119 21 120 2 q 52 73 77 37 q 28 154 28 110 q 39 209 28 183 q 70 254 50 235 q 115 285 89 274 q 170 297 141 297 q 226 285 200 297 q 271 254 252 274 q 302 209 290 235 q 313 154 314 183 l 313 150 m 313 573 q 301 518 313 543 q 270 473 290 492 q 225 442 251 453 q 170 431 200 431 q 115 442 141 431 q 70 473 89 453 q 39 518 50 492 q 28 573 28 543 q 39 629 28 602 q 70 675 50 655 q 115 706 89 694 q 170 717 141 717 q 225 706 200 717 q 270 675 251 694 q 301 629 290 655 q 313 573 313 602 "},"Ġ":{"x_min":5.421875,"x_max":853.203125,"ha":870,"o":"m 853 138 q 774 68 821 98 q 674 18 727 38 q 564 -10 620 0 q 457 -20 507 -20 q 276 14 358 -20 q 133 112 193 50 q 39 258 73 174 q 5 439 5 342 q 22 584 5 513 q 70 717 39 655 q 147 833 102 780 q 250 923 193 885 q 377 982 308 961 q 523 1003 445 1003 q 585 1001 552 1003 q 652 993 619 999 q 716 977 685 987 q 773 952 747 967 l 754 693 q 675 712 716 707 q 596 717 635 717 q 495 700 542 717 q 413 653 448 684 q 358 577 378 621 q 337 476 337 532 q 347 407 337 440 q 376 349 356 375 q 424 308 395 324 q 491 293 453 293 q 544 299 516 293 q 591 322 571 306 l 594 375 l 431 378 l 439 581 q 641 587 540 585 q 845 594 742 590 l 853 138 m 555 1161 q 544 1109 555 1133 q 515 1068 534 1086 q 473 1040 497 1050 q 421 1029 448 1029 q 366 1040 391 1029 q 322 1068 340 1050 q 294 1109 304 1086 q 284 1161 284 1133 q 294 1213 284 1188 q 322 1255 304 1237 q 364 1283 340 1273 q 416 1294 389 1294 q 471 1283 446 1294 q 515 1255 496 1273 q 544 1213 534 1237 q 555 1161 555 1188 "},"6":{"x_min":21.703125,"x_max":785.375,"ha":796,"o":"m 785 345 q 756 195 785 263 q 675 80 727 128 q 554 6 624 32 q 401 -20 483 -20 q 280 -2 334 -20 q 184 48 226 16 q 111 126 141 81 q 60 223 80 170 q 31 333 40 275 q 21 451 21 392 q 32 594 21 524 q 66 725 43 663 q 124 837 88 786 q 210 925 160 889 q 323 983 259 962 q 467 1003 387 1003 q 527 1001 497 1003 q 588 992 558 999 q 648 976 619 986 q 702 950 676 966 l 682 683 q 578 719 634 707 q 469 732 522 732 q 396 719 427 732 q 345 684 366 707 q 312 629 324 661 q 297 557 300 596 q 392 598 341 583 q 496 613 443 613 q 609 594 556 613 q 700 541 661 576 q 762 457 739 507 q 785 345 785 408 m 527 325 q 518 363 527 346 q 494 391 509 379 q 461 409 480 403 q 423 416 442 416 q 385 409 404 416 q 353 391 367 403 q 329 363 338 379 q 320 325 320 346 q 329 288 320 305 q 353 260 338 271 q 385 242 367 248 q 423 236 404 236 q 461 242 442 236 q 494 260 480 248 q 518 288 509 271 q 527 325 527 305 "},"n":{"x_min":18.984375,"x_max":876.265625,"ha":905,"o":"m 876 343 q 874 191 876 266 q 869 40 872 116 l 478 47 q 514 287 499 167 q 529 529 529 406 q 528 557 529 537 q 525 601 527 577 q 519 652 523 626 q 509 700 516 678 q 494 736 503 722 q 472 750 484 750 q 433 736 448 750 q 406 701 417 722 q 389 653 396 680 q 380 600 383 627 q 376 551 377 574 q 375 512 375 527 q 370 274 372 392 q 364 35 368 155 l 18 20 q 45 496 32 259 q 65 972 57 733 l 385 988 l 382 880 q 423 923 401 903 q 470 958 445 944 q 523 981 495 973 q 583 990 552 990 q 684 971 640 990 q 758 919 727 952 q 811 842 790 887 q 845 748 832 798 q 864 643 857 697 q 873 535 871 588 q 876 433 876 482 q 876 343 876 383 "},"ģ":{"x_min":6.78125,"x_max":854.5625,"ha":872,"o":"m 854 151 q 775 82 822 111 q 675 32 729 52 q 565 3 621 12 q 458 -6 509 -6 q 277 26 360 -6 q 134 119 194 59 q 40 260 74 178 q 6 439 6 342 q 23 583 6 513 q 72 714 40 653 q 149 826 103 775 q 252 913 194 876 q 378 970 309 950 q 524 990 447 990 q 587 987 554 990 q 653 979 620 985 q 717 963 686 973 q 774 938 748 953 l 755 679 q 677 698 717 693 q 598 704 636 704 q 496 689 543 704 q 414 646 449 674 q 359 575 379 617 q 339 476 339 532 q 348 407 339 440 q 377 349 358 375 q 425 308 396 324 q 492 293 454 293 q 545 299 518 293 q 592 322 573 306 l 595 375 l 432 378 l 440 581 q 642 587 541 585 q 846 594 744 590 l 854 151 m 557 -163 q 548 -212 557 -185 q 521 -265 538 -239 q 480 -315 504 -292 q 427 -354 456 -339 q 426 -343 427 -354 q 425 -317 426 -333 q 423 -284 424 -302 q 422 -253 422 -267 q 375 -217 392 -242 q 358 -160 358 -191 q 366 -121 358 -139 q 387 -90 374 -103 q 419 -68 401 -76 q 458 -60 437 -60 q 496 -68 478 -60 q 528 -90 515 -76 q 550 -121 542 -103 q 557 -160 557 -139 l 557 -163 "},"¤":{"x_min":16.953125,"x_max":577.171875,"ha":594,"o":"m 349 480 q 344 509 349 495 q 333 534 340 523 q 315 550 325 544 q 292 556 304 556 q 269 550 280 556 q 250 534 258 544 q 237 509 242 523 q 232 480 232 495 q 237 450 232 464 q 250 425 242 436 q 269 409 258 415 q 292 403 280 403 q 333 425 316 403 q 349 480 349 448 m 16 360 l 85 430 q 78 484 78 457 q 80 515 78 500 q 86 543 82 529 l 23 609 l 166 755 l 246 679 q 263 681 255 680 q 281 682 271 682 q 305 681 293 682 q 328 677 317 680 l 403 751 l 567 618 l 482 531 q 489 484 489 509 q 486 457 489 471 l 577 373 l 414 207 l 334 289 q 285 284 309 284 q 265 285 275 284 q 245 287 255 286 l 167 207 l 16 360 "},"∂":{"x_min":27.8125,"x_max":791.484375,"ha":838,"o":"m 27 345 q 50 457 27 408 q 112 541 73 507 q 203 594 151 576 q 316 613 256 613 q 420 598 369 613 q 516 557 471 583 q 507 628 515 594 q 487 692 499 662 q 458 749 474 722 q 426 798 442 775 q 339 891 387 849 l 588 1018 q 627 963 605 992 q 672 897 649 933 q 716 817 694 861 q 754 718 737 773 q 781 597 771 663 q 791 451 791 531 q 781 333 791 392 q 752 223 772 275 q 701 126 732 170 q 629 48 671 81 q 532 -2 586 16 q 411 -20 478 -20 q 258 6 328 -20 q 137 80 188 32 q 56 195 86 128 q 27 345 27 263 m 285 325 q 294 288 285 305 q 318 260 303 271 q 351 242 333 248 q 389 236 370 236 q 427 242 408 236 q 460 260 445 248 q 483 288 474 271 q 493 325 493 305 q 483 363 493 346 q 460 391 474 379 q 427 409 445 403 q 389 416 408 416 q 351 409 370 416 q 318 391 333 403 q 294 363 303 379 q 285 325 285 346 "},"Ĝ":{"x_min":5.421875,"x_max":853.203125,"ha":870,"o":"m 853 138 q 774 68 821 98 q 674 18 727 38 q 564 -10 620 0 q 457 -20 507 -20 q 276 14 358 -20 q 133 112 193 50 q 39 258 73 174 q 5 439 5 342 q 22 584 5 513 q 70 717 39 655 q 147 833 102 780 q 250 923 193 885 q 377 982 308 961 q 523 1003 445 1003 q 585 1001 552 1003 q 652 993 619 999 q 716 977 685 987 q 773 952 747 967 l 754 693 q 675 712 716 707 q 596 717 635 717 q 495 700 542 717 q 413 653 448 684 q 358 577 378 621 q 337 476 337 532 q 347 407 337 440 q 376 349 356 375 q 424 308 395 324 q 491 293 453 293 q 544 299 516 293 q 591 322 571 306 l 594 375 l 431 378 l 439 581 q 641 587 540 585 q 845 594 742 590 l 853 138 m 528 1023 l 422 1162 l 340 1030 l 191 1094 q 222 1143 203 1115 q 262 1202 241 1171 q 305 1262 283 1232 q 346 1318 327 1292 l 486 1319 l 672 1112 l 528 1023 "},"p":{"x_min":36.625,"x_max":824.71875,"ha":829,"o":"m 824 625 q 805 508 824 559 q 751 419 785 457 q 670 355 716 381 q 572 312 624 328 q 463 287 519 295 q 352 279 406 280 l 352 -9 l 36 -9 q 36 141 36 67 q 37 286 37 214 q 38 432 37 358 q 39 583 38 505 q 40 748 40 666 q 43 915 39 831 q 217 954 130 941 q 396 967 303 967 q 500 958 448 967 q 600 931 552 950 q 689 886 648 913 q 760 820 730 858 q 807 733 790 782 q 824 625 824 685 m 523 602 q 496 671 523 646 q 427 695 470 695 q 397 693 413 695 q 368 687 382 691 l 360 489 q 379 488 370 488 q 397 488 387 488 q 444 496 421 488 q 484 519 467 504 q 513 555 502 535 q 523 602 523 576 "},"‡":{"x_min":42.734375,"x_max":670.765625,"ha":712,"o":"m 653 73 l 486 73 l 486 -124 l 216 -126 l 215 70 l 52 70 l 53 306 l 213 307 l 210 609 l 44 609 l 42 843 l 209 843 l 208 1025 l 484 1018 l 484 843 l 670 843 l 665 607 l 484 607 l 486 309 l 662 310 l 653 73 "},"ň":{"x_min":18.984375,"x_max":876.265625,"ha":905,"o":"m 876 343 q 874 191 876 266 q 869 40 872 116 l 478 47 q 514 287 499 167 q 529 529 529 406 q 528 557 529 537 q 525 601 527 577 q 519 652 523 626 q 509 700 516 678 q 494 736 503 722 q 472 750 484 750 q 433 736 448 750 q 406 701 417 722 q 389 653 396 680 q 380 600 383 627 q 376 551 377 574 q 375 512 375 527 q 370 274 372 392 q 364 35 368 155 l 18 20 q 45 496 32 259 q 65 972 57 733 l 385 988 l 382 880 q 423 923 401 903 q 470 958 445 944 q 523 981 495 973 q 583 990 552 990 q 684 971 640 990 q 758 919 727 952 q 811 842 790 887 q 845 748 832 798 q 864 643 857 697 q 873 535 871 588 q 876 433 876 482 q 876 343 876 383 m 709 1240 q 678 1192 696 1219 q 639 1136 660 1165 q 597 1077 619 1107 q 557 1023 576 1048 l 424 1004 l 228 1219 l 371 1310 l 477 1172 l 560 1305 l 709 1240 "},"ę":{"x_min":11.53125,"x_max":791.484375,"ha":801,"o":"m 656 -193 q 589 -243 626 -222 q 510 -264 552 -264 q 451 -253 478 -264 q 403 -224 423 -243 q 370 -180 382 -206 q 358 -122 358 -153 q 368 -65 358 -92 q 396 -15 379 -39 q 228 29 300 -11 q 108 137 156 71 q 35 287 60 203 q 11 459 11 370 q 23 585 11 522 q 57 707 34 649 q 116 815 81 765 q 200 902 152 865 q 307 961 247 940 q 440 982 367 982 q 550 965 500 982 q 639 919 600 948 q 707 849 678 889 q 754 759 735 808 q 782 657 773 711 q 791 548 791 603 q 783 430 791 489 q 552 405 667 422 q 323 373 438 389 q 378 295 341 324 q 468 265 416 265 q 528 276 495 265 q 592 301 560 286 q 653 334 623 316 q 703 366 682 352 l 670 58 q 566 5 624 23 q 544 -23 555 -8 q 525 -52 533 -37 q 511 -79 516 -66 q 505 -101 505 -92 q 514 -122 505 -113 q 535 -130 523 -130 q 565 -119 549 -130 q 590 -97 581 -109 l 656 -193 m 520 583 q 516 622 520 602 q 502 658 512 642 q 478 685 493 674 q 441 695 463 695 q 393 681 414 695 q 358 644 373 666 q 333 596 343 622 q 319 549 324 571 l 520 568 l 520 583 "},"S":{"x_min":18.3125,"x_max":729.09375,"ha":737,"o":"m 729 360 q 696 198 729 267 q 608 82 664 128 q 477 13 552 36 q 316 -9 402 -9 q 243 0 283 -9 q 163 21 204 8 q 85 49 122 34 q 18 78 47 65 l 48 358 q 175 305 105 323 q 314 287 246 287 q 345 288 326 287 q 380 294 363 289 q 408 309 396 299 q 419 339 419 320 q 411 361 419 352 q 390 376 403 370 q 361 384 377 381 q 329 389 345 387 q 300 390 314 390 q 278 390 286 390 q 172 411 220 390 q 90 467 124 431 q 37 553 56 503 q 18 661 18 603 q 50 805 18 741 q 136 913 82 868 q 260 981 190 957 q 404 1005 330 1005 q 473 1002 438 1005 q 543 994 508 1000 q 611 978 578 988 q 674 954 644 969 l 649 679 q 552 705 602 695 q 453 716 501 716 q 431 715 444 716 q 401 713 417 715 q 370 708 386 712 q 343 699 355 705 q 323 684 330 693 q 316 661 316 674 q 327 637 317 647 q 355 623 338 628 q 391 616 371 618 q 431 614 411 614 q 467 614 451 613 q 495 613 484 614 q 593 590 550 609 q 667 537 636 570 q 713 460 697 505 q 729 360 729 415 "},"/":{"x_min":27.8125,"x_max":673.46875,"ha":701,"o":"m 673 922 q 471 441 564 685 q 299 -52 379 196 l 27 52 q 126 298 77 175 q 228 541 176 420 q 336 781 280 662 q 456 1017 392 901 l 673 922 "},"į":{"x_min":27.8125,"x_max":388.625,"ha":409,"o":"m 340 -188 q 273 -238 310 -217 q 193 -259 236 -259 q 135 -248 162 -259 q 87 -219 107 -238 q 54 -174 66 -200 q 42 -116 42 -148 q 60 -43 42 -77 q 103 18 78 -9 l 54 16 l 27 935 l 388 954 l 341 31 l 263 27 q 238 -4 251 12 q 214 -37 225 -21 q 197 -69 204 -54 q 189 -96 189 -85 q 198 -116 189 -108 q 219 -124 207 -124 q 249 -114 233 -124 q 274 -92 265 -103 l 340 -188 "},"Ŧ":{"x_min":4.0625,"x_max":751.46875,"ha":754,"o":"m 583 316 l 514 316 l 491 31 l 204 16 l 205 320 l 154 321 l 142 482 l 205 483 l 206 659 l 4 648 l 12 968 l 751 969 l 744 682 l 542 674 l 527 489 l 585 491 l 583 316 "},"y":{"x_min":-27.125,"x_max":870.84375,"ha":841,"o":"m 870 918 l 552 397 l 561 13 l 212 13 l 221 394 l -27 897 l 318 941 l 427 648 l 545 941 l 870 918 "},"≈":{"x_min":40.015625,"x_max":794.203125,"ha":835,"o":"m 794 314 q 755 234 779 272 q 698 167 731 196 q 624 121 666 138 q 532 104 582 104 q 476 112 501 104 q 431 131 451 120 q 393 155 411 142 q 360 180 376 169 q 330 199 345 191 q 299 207 315 207 q 275 205 288 207 q 248 194 262 203 q 221 169 235 186 q 194 123 207 152 l 40 314 q 79 366 57 340 q 128 413 100 392 q 194 447 157 434 q 280 461 231 461 q 362 448 328 461 q 423 419 397 435 q 470 391 449 404 q 512 378 491 378 q 537 380 522 378 q 568 390 552 383 q 598 411 584 398 q 619 447 611 425 l 794 314 m 794 666 q 755 585 779 623 q 698 518 731 547 q 624 472 666 489 q 532 455 582 455 q 476 463 501 455 q 431 482 451 471 q 393 507 411 493 q 360 532 376 520 q 330 551 345 543 q 299 558 315 558 q 275 556 288 558 q 248 546 262 554 q 221 520 235 537 q 194 474 207 503 l 40 666 q 79 717 57 691 q 128 765 100 744 q 194 799 157 786 q 280 812 231 812 q 362 799 328 812 q 423 771 397 786 q 470 742 449 755 q 512 729 491 729 q 537 732 522 729 q 568 741 552 734 q 598 763 584 749 q 619 798 611 776 l 794 666 "},"ǿ":{"x_min":10.859375,"x_max":872.1875,"ha":886,"o":"m 771 933 q 752 892 762 912 q 733 850 743 872 q 835 709 799 792 q 872 519 872 626 q 857 400 872 457 q 816 292 843 343 q 751 201 790 242 q 665 129 713 159 q 561 83 617 99 q 442 66 505 66 l 436 66 l 397 -42 l 126 63 l 165 164 q 101 231 129 193 q 52 311 72 268 q 21 402 32 354 q 10 501 10 450 q 25 617 10 560 q 66 724 39 674 q 130 816 92 774 q 216 889 168 858 q 318 936 263 919 q 434 953 373 953 q 474 951 454 953 q 514 948 494 950 l 554 1028 l 771 933 m 571 501 q 556 573 571 539 l 454 349 q 503 367 481 354 q 540 402 524 381 q 563 448 555 423 q 571 501 571 474 m 305 508 q 308 469 305 489 q 320 431 312 449 l 416 652 q 369 635 390 648 q 335 603 349 622 q 313 559 320 583 q 305 508 305 535 m 783 1176 q 626 1087 702 1132 q 472 989 549 1042 l 385 1084 q 418 1120 399 1100 q 458 1161 437 1140 q 503 1204 480 1182 q 548 1245 526 1225 q 655 1339 599 1292 l 783 1176 "},"g":{"x_min":6.78125,"x_max":854.5625,"ha":872,"o":"m 854 151 q 775 82 822 111 q 675 32 729 52 q 565 3 621 12 q 458 -6 509 -6 q 277 26 360 -6 q 134 119 194 59 q 40 260 74 178 q 6 439 6 342 q 23 583 6 513 q 72 714 40 653 q 149 826 103 775 q 252 913 194 876 q 378 970 309 950 q 524 990 447 990 q 587 987 554 990 q 653 979 620 985 q 717 963 686 973 q 774 938 748 953 l 755 679 q 677 698 717 693 q 598 704 636 704 q 496 689 543 704 q 414 646 449 674 q 359 575 379 617 q 339 476 339 532 q 348 407 339 440 q 377 349 358 375 q 425 308 396 324 q 492 293 454 293 q 545 299 518 293 q 592 322 573 306 l 595 375 l 432 378 l 440 581 q 642 587 541 585 q 846 594 744 590 l 854 151 "},"ĸ":{"x_min":29.84375,"x_max":868.125,"ha":837,"o":"m 868 876 l 568 519 l 843 52 l 529 -2 l 322 276 l 311 10 l 29 0 l 51 971 l 367 953 l 343 674 l 539 957 l 868 876 "},"²":{"x_min":28.484375,"x_max":373.015625,"ha":397,"o":"m 373 678 q 362 636 373 656 q 336 599 352 617 q 298 568 319 582 q 255 542 276 553 l 366 542 l 358 430 l 28 438 l 28 537 q 88 555 56 543 q 145 584 119 567 q 189 622 172 600 q 206 670 206 643 q 188 702 206 691 q 145 713 170 713 q 102 706 123 713 q 65 686 80 698 l 35 793 q 64 810 48 803 q 100 821 81 817 q 138 827 118 825 q 176 828 158 828 q 253 817 217 828 q 316 785 289 805 q 357 737 342 765 q 373 678 373 710 "},"–":{"x_min":45.4375,"x_max":601.578125,"ha":650,"o":"m 48 347 l 45 564 l 598 584 l 601 339 l 48 347 "},"ë":{"x_min":11.53125,"x_max":791.484375,"ha":801,"o":"m 791 548 q 783 430 791 489 q 552 405 667 422 q 323 373 438 389 q 378 295 341 324 q 468 265 416 265 q 528 276 495 265 q 592 301 560 286 q 653 334 623 316 q 703 366 682 352 l 670 58 q 613 23 644 37 q 549 0 582 9 q 482 -12 516 -8 q 415 -16 448 -16 q 292 2 348 -16 q 192 53 237 20 q 113 130 147 86 q 56 228 79 175 q 23 340 34 281 q 11 459 11 399 q 23 585 11 522 q 57 707 34 649 q 116 815 81 765 q 200 902 152 865 q 307 961 247 940 q 440 982 367 982 q 550 965 500 982 q 639 919 600 948 q 707 849 678 889 q 754 759 735 808 q 782 657 773 711 q 791 548 791 603 m 520 583 q 516 622 520 602 q 502 658 512 642 q 478 685 493 674 q 441 695 463 695 q 393 681 414 695 q 358 644 373 666 q 333 596 343 622 q 319 549 324 571 l 520 568 l 520 583 m 640 1112 q 633 1073 640 1091 q 611 1042 625 1055 q 579 1021 598 1029 q 540 1013 561 1013 q 502 1021 520 1013 q 471 1042 484 1029 q 450 1073 458 1055 q 442 1112 442 1091 q 450 1150 442 1132 q 471 1182 458 1168 q 502 1203 484 1195 q 540 1211 520 1211 q 579 1203 561 1211 q 611 1182 598 1195 q 633 1150 625 1168 q 640 1112 640 1132 m 376 1097 q 367 1055 376 1075 q 344 1020 359 1035 q 310 997 330 1006 q 269 989 290 989 q 227 997 246 989 q 193 1020 207 1006 q 170 1055 178 1035 q 162 1097 162 1075 q 170 1137 162 1118 q 193 1171 178 1156 q 227 1194 207 1185 q 269 1203 246 1203 q 310 1194 290 1203 q 344 1171 330 1185 q 367 1137 359 1156 q 376 1097 376 1118 "},"J":{"x_min":-9.5,"x_max":682.296875,"ha":708,"o":"m 682 558 q 682 479 682 518 q 678 400 682 440 q 641 239 670 315 q 562 107 612 164 q 441 16 512 50 q 278 -16 370 -16 q 203 -10 242 -16 q 125 8 164 -4 q 52 38 87 20 q -9 80 17 56 l 32 360 q 121 298 72 322 q 227 274 170 274 q 290 284 265 274 q 333 314 316 295 q 360 359 350 333 q 374 413 370 384 q 380 472 379 442 q 381 533 381 503 q 370 747 381 640 q 351 961 359 854 l 661 982 q 682 558 682 770 "},"Ã":{"x_min":-21.703125,"x_max":889.828125,"ha":869,"o":"m 889 58 l 553 14 l 512 168 l 358 168 l 324 14 l -21 48 l 248 952 l 625 971 l 889 58 m 488 375 l 436 611 l 386 375 l 488 375 m 705 1188 q 691 1114 705 1148 q 652 1055 677 1080 q 594 1016 627 1030 q 522 1002 560 1002 q 471 1013 492 1002 q 435 1040 450 1023 q 410 1075 421 1056 q 391 1110 400 1094 q 373 1137 382 1126 q 352 1148 364 1148 q 340 1144 345 1148 q 331 1133 334 1139 q 327 1120 328 1127 q 325 1106 325 1112 q 330 1066 325 1086 q 343 1029 335 1047 l 177 1015 q 166 1073 169 1044 q 163 1129 163 1101 q 173 1207 163 1171 q 206 1269 184 1242 q 258 1311 227 1295 q 332 1326 290 1326 q 394 1314 369 1326 q 434 1286 418 1303 q 460 1249 451 1269 q 477 1211 469 1228 q 491 1183 484 1194 q 508 1171 498 1171 q 529 1183 522 1171 q 537 1208 537 1196 q 529 1248 537 1228 q 511 1282 521 1267 l 679 1310 q 698 1250 691 1280 q 705 1188 705 1219 "},"ŷ":{"x_min":-27.125,"x_max":870.84375,"ha":841,"o":"m 870 918 l 552 397 l 561 13 l 212 13 l 221 394 l -27 897 l 318 941 l 427 648 l 545 941 l 870 918 m 517 951 l 411 1090 l 329 958 l 180 1022 q 211 1071 192 1043 q 251 1130 230 1099 q 294 1190 272 1160 q 335 1246 316 1220 l 475 1247 l 661 1040 l 517 951 "},"ŕ":{"x_min":29.15625,"x_max":836.4375,"ha":842,"o":"m 829 653 q 820 557 829 600 q 791 478 811 514 q 740 412 771 442 q 665 354 709 381 l 826 66 l 521 6 l 417 295 l 333 293 l 320 10 l 29 10 q 35 318 32 165 q 42 626 38 472 q 45 781 44 704 q 50 935 46 857 q 144 965 98 953 q 237 983 190 976 q 331 991 283 989 q 429 994 379 994 q 578 972 506 994 q 706 908 651 951 q 795 802 762 866 q 829 653 829 738 m 525 632 q 517 684 525 660 q 494 725 510 708 q 456 752 479 742 q 403 762 434 762 q 377 760 389 762 q 352 755 364 758 l 341 503 l 357 503 q 416 510 386 503 q 471 533 446 518 q 510 573 495 549 q 525 632 525 598 m 836 1189 q 679 1100 755 1145 q 525 1002 602 1055 l 439 1097 q 471 1133 452 1113 q 511 1174 490 1153 q 556 1217 533 1195 q 601 1258 579 1238 q 708 1352 652 1304 l 836 1189 "},"©":{"x_min":40.015625,"x_max":756.21875,"ha":798,"o":"m 756 477 q 729 332 756 400 q 655 212 703 263 q 542 130 608 160 q 398 100 476 100 q 256 128 322 100 q 143 206 191 157 q 67 321 94 255 q 40 462 40 387 q 51 558 40 511 q 86 647 63 605 q 140 724 108 689 q 210 784 171 758 q 295 824 249 809 q 391 838 341 838 q 540 812 473 838 q 656 740 608 787 q 730 626 704 693 q 756 477 756 559 m 677 476 q 657 592 677 539 q 599 681 636 644 q 509 738 562 718 q 392 758 457 758 q 283 734 333 758 q 196 669 233 710 q 139 575 160 628 q 118 465 118 522 q 140 354 118 406 q 199 265 161 303 q 287 205 236 227 q 398 183 339 183 q 511 206 459 183 q 599 269 562 229 q 656 363 636 309 q 677 476 677 416 m 516 550 q 478 554 497 554 q 432 548 454 554 q 393 530 410 542 q 366 498 376 518 q 356 453 356 479 q 377 396 356 415 q 436 378 399 378 q 487 387 460 378 q 536 409 514 397 l 531 250 q 471 229 504 237 q 407 221 437 221 q 320 239 359 221 q 252 287 280 257 q 208 360 224 318 q 193 447 193 401 q 209 551 193 503 q 255 635 225 599 q 331 690 286 670 q 434 710 376 710 q 482 707 458 710 q 528 693 506 703 l 516 550 "},"˘":{"x_min":-0.671875,"x_max":402.1875,"ha":403,"o":"m 402 1147 q 386 1067 402 1104 q 342 1003 370 1030 q 278 960 315 975 q 198 945 240 945 q 112 960 149 945 q 50 1002 75 975 q 12 1069 25 1030 q 0 1158 0 1108 q 0 1174 0 1165 q 0 1189 0 1182 l 158 1169 q 158 1144 157 1158 q 165 1118 160 1130 q 179 1096 170 1105 q 204 1087 188 1087 q 220 1092 213 1087 q 230 1106 226 1098 q 236 1123 234 1114 q 238 1140 238 1132 q 233 1178 238 1160 q 223 1214 229 1195 l 387 1243 q 397 1196 393 1221 q 402 1147 402 1171 "},"Ă":{"x_min":-21.703125,"x_max":889.828125,"ha":869,"o":"m 889 58 l 553 14 l 512 168 l 358 168 l 324 14 l -21 48 l 248 952 l 625 971 l 889 58 m 488 375 l 436 611 l 386 375 l 488 375 m 636 1197 q 620 1117 636 1154 q 576 1053 604 1080 q 512 1010 549 1025 q 432 995 474 995 q 346 1010 383 995 q 284 1052 309 1025 q 246 1119 259 1080 q 233 1208 233 1158 q 233 1224 233 1215 q 234 1239 233 1232 l 392 1219 q 392 1194 391 1208 q 399 1168 394 1180 q 413 1146 404 1155 q 438 1137 422 1137 q 454 1142 447 1137 q 464 1156 460 1148 q 470 1173 468 1164 q 472 1190 472 1182 q 467 1228 472 1210 q 457 1264 463 1245 l 621 1293 q 631 1246 627 1271 q 636 1197 636 1221 "},"D":{"x_min":29.84375,"x_max":803.015625,"ha":809,"o":"m 803 538 q 778 367 803 443 q 710 231 754 290 q 606 129 666 172 q 474 59 545 86 q 321 18 402 31 q 154 5 240 5 q 92 7 122 5 q 29 12 61 8 l 48 922 q 202 955 123 946 q 359 965 281 965 q 537 936 456 965 q 678 852 619 907 q 770 718 737 797 q 803 538 803 638 m 524 495 q 517 565 525 531 q 489 625 508 599 q 440 667 470 651 q 368 685 410 683 l 341 264 q 415 291 382 270 q 473 342 448 311 q 510 409 497 372 q 524 485 523 446 l 524 495 "},"ł":{"x_min":-18.984375,"x_max":633.453125,"ha":632,"o":"m 633 359 l 604 58 l 33 13 l 42 419 l -16 401 l -18 495 l 44 518 l 55 982 l 408 982 l 379 640 l 459 668 l 462 546 l 370 518 l 358 359 l 633 359 "},"ÿ":{"x_min":-27.125,"x_max":870.84375,"ha":841,"o":"m 870 918 l 552 397 l 561 13 l 212 13 l 221 394 l -27 897 l 318 941 l 427 648 l 545 941 l 870 918 m 660 1100 q 653 1061 660 1079 q 631 1030 645 1043 q 599 1009 618 1017 q 560 1001 581 1001 q 522 1009 540 1001 q 491 1030 504 1017 q 470 1061 478 1043 q 462 1100 462 1079 q 470 1138 462 1120 q 491 1170 478 1156 q 522 1191 504 1183 q 560 1199 540 1199 q 599 1191 581 1199 q 631 1170 618 1183 q 653 1138 645 1156 q 660 1100 660 1120 m 396 1085 q 387 1043 396 1063 q 364 1008 379 1023 q 330 985 350 994 q 289 977 310 977 q 247 985 266 977 q 213 1008 227 994 q 190 1043 198 1023 q 182 1085 182 1063 q 190 1125 182 1106 q 213 1159 198 1144 q 247 1182 227 1173 q 289 1191 266 1191 q 330 1182 310 1191 q 364 1159 350 1173 q 387 1125 379 1144 q 396 1085 396 1106 "},"ĺ":{"x_min":29.84375,"x_max":629.390625,"ha":627,"o":"m 629 359 l 600 58 l 29 13 l 51 982 l 404 982 l 354 359 l 629 359 m 623 1205 q 466 1116 542 1161 q 312 1018 389 1071 l 226 1113 q 258 1149 239 1129 q 298 1190 277 1169 q 343 1233 320 1211 q 388 1274 366 1254 q 495 1368 439 1320 l 623 1205 "},"Ł":{"x_min":-17.640625,"x_max":634.8125,"ha":632,"o":"m 366 516 q 362 451 364 484 q 359 386 360 419 q 422 385 391 385 q 485 385 453 385 q 560 385 523 385 q 634 386 596 386 l 606 85 l 35 40 q 38 229 36 135 q 42 419 40 324 l -14 401 l -17 495 l 44 516 q 49 749 46 633 q 56 982 52 865 l 409 982 q 391 810 400 895 q 375 637 383 724 l 461 668 l 463 546 l 366 516 "},"$":{"x_min":41.375,"x_max":578.53125,"ha":606,"o":"m 198 -93 l 205 173 q 161 183 183 177 q 117 195 139 189 q 76 208 96 202 q 41 222 56 215 l 64 389 q 160 356 107 367 q 265 345 212 345 q 288 346 274 345 q 315 350 302 347 q 337 360 328 353 q 346 378 346 366 q 333 397 346 390 q 302 406 320 403 q 265 410 284 409 q 238 411 247 411 q 158 422 193 411 q 95 455 122 434 q 55 506 69 476 q 41 573 41 536 q 53 638 41 608 q 86 692 65 668 q 137 735 107 716 q 201 766 166 754 l 190 1052 l 263 1045 l 263 782 q 282 785 273 784 q 300 788 290 786 l 299 1052 l 372 1051 l 362 788 q 453 779 407 786 q 536 756 498 772 l 518 584 q 444 600 482 594 q 372 607 406 607 q 343 607 361 607 q 308 602 325 606 q 278 592 290 599 q 266 573 265 585 q 275 558 267 563 q 296 551 283 553 q 324 548 308 548 q 354 549 339 548 q 381 550 368 550 q 402 550 394 551 q 475 536 442 548 q 531 503 507 524 q 566 454 554 482 q 578 392 578 425 q 562 307 578 344 q 518 244 546 271 q 450 200 489 217 q 362 174 410 183 l 373 -92 l 307 -99 l 304 168 q 285 166 295 166 q 266 166 276 166 l 263 166 l 265 -97 l 198 -93 "},"w":{"x_min":4.75,"x_max":1259.453125,"ha":1264,"o":"m 1259 941 l 1100 28 l 715 20 l 632 480 l 550 55 l 164 42 l 4 914 l 341 944 l 408 408 l 499 903 l 764 903 l 870 401 l 924 971 l 1259 941 "},"\\":{"x_min":29.15625,"x_max":674.828125,"ha":702,"o":"m 457 -52 q 337 181 394 62 q 229 422 281 301 q 128 666 177 543 q 29 911 78 788 l 300 1017 q 473 523 380 767 q 674 42 565 278 l 457 -52 "},"Ì":{"x_min":-121,"x_max":400.828125,"ha":413,"o":"m 400 954 l 326 31 l 40 16 l 40 935 l 400 954 m 181 983 q 32 1087 106 1039 q -121 1182 -42 1136 l 13 1341 q 117 1242 67 1290 q 160 1199 138 1221 q 202 1154 182 1176 q 241 1111 223 1132 q 272 1074 259 1091 l 181 983 "},"Ç":{"x_min":9.5,"x_max":706.703125,"ha":716,"o":"m 562 -158 q 550 -225 562 -198 q 515 -269 537 -252 q 462 -294 493 -286 q 396 -302 432 -302 q 366 -300 383 -302 q 334 -295 350 -299 q 301 -285 317 -291 q 275 -271 286 -280 l 335 -164 q 354 -170 343 -168 q 374 -173 364 -173 q 398 -166 386 -173 q 411 -145 411 -159 q 404 -128 411 -134 q 389 -118 398 -122 q 370 -112 380 -113 q 352 -111 360 -111 q 325 -112 339 -111 q 298 -118 311 -114 l 305 24 q 185 79 240 42 q 92 168 131 116 q 31 285 52 221 q 9 423 9 350 q 42 641 9 539 q 140 822 75 744 q 300 944 204 899 q 519 988 395 988 q 615 981 566 988 q 706 953 664 973 l 668 667 q 629 674 649 672 q 590 676 609 676 q 494 663 539 676 q 414 623 448 650 q 358 555 379 596 q 337 459 337 514 q 348 398 337 424 q 380 356 360 373 q 428 330 400 339 q 489 322 456 322 q 541 328 514 322 q 595 342 569 333 q 647 362 621 351 q 693 386 672 374 l 666 67 q 610 43 640 54 q 548 25 579 33 q 484 14 516 18 q 423 9 452 10 l 423 -24 q 478 -35 453 -25 q 523 -62 504 -44 q 552 -103 541 -79 q 562 -158 562 -128 "},"Ŝ":{"x_min":18.3125,"x_max":729.09375,"ha":737,"o":"m 729 360 q 696 198 729 267 q 608 82 664 128 q 477 13 552 36 q 316 -9 402 -9 q 243 0 283 -9 q 163 21 204 8 q 85 49 122 34 q 18 78 47 65 l 48 358 q 175 305 105 323 q 314 287 246 287 q 345 288 326 287 q 380 294 363 289 q 408 309 396 299 q 419 339 419 320 q 411 361 419 352 q 390 376 403 370 q 361 384 377 381 q 329 389 345 387 q 300 390 314 390 q 278 390 286 390 q 172 411 220 390 q 90 467 124 431 q 37 553 56 503 q 18 661 18 603 q 50 805 18 741 q 136 913 82 868 q 260 981 190 957 q 404 1005 330 1005 q 473 1002 438 1005 q 543 994 508 1000 q 611 978 578 988 q 674 954 644 969 l 649 679 q 552 705 602 695 q 453 716 501 716 q 431 715 444 716 q 401 713 417 715 q 370 708 386 712 q 343 699 355 705 q 323 684 330 693 q 316 661 316 674 q 327 637 317 647 q 355 623 338 628 q 391 616 371 618 q 431 614 411 614 q 467 614 451 613 q 495 613 484 614 q 593 590 550 609 q 667 537 636 570 q 713 460 697 505 q 729 360 729 415 m 471 1018 l 365 1157 l 283 1025 l 134 1089 q 165 1138 146 1110 q 205 1197 184 1166 q 248 1257 226 1227 q 289 1313 270 1287 l 429 1314 l 615 1107 l 471 1018 "},"C":{"x_min":9.5,"x_max":706.703125,"ha":715,"o":"m 706 953 l 668 667 q 629 674 649 672 q 590 676 609 676 q 494 663 539 676 q 414 623 448 650 q 358 555 379 596 q 337 459 337 514 q 348 398 337 424 q 380 356 360 373 q 428 330 400 339 q 489 322 456 322 q 541 328 514 322 q 595 342 569 333 q 647 362 621 351 q 693 386 672 374 l 666 67 q 608 43 639 54 q 545 25 577 33 q 480 13 512 17 q 417 9 447 9 q 257 41 331 9 q 127 128 182 73 q 41 260 72 184 q 9 423 9 335 q 42 641 9 539 q 140 822 75 744 q 300 944 204 899 q 519 988 395 988 q 615 981 566 988 q 706 953 664 973 "},"Ē":{"x_min":29.84375,"x_max":676.859375,"ha":665,"o":"m 676 978 q 669 851 672 914 q 660 725 666 789 l 373 710 l 366 625 l 568 625 l 553 415 l 349 408 l 343 309 l 511 309 l 630 309 q 622 161 626 234 q 614 13 617 87 l 29 0 l 51 978 l 676 978 m 551 1027 l 123 1033 l 111 1194 l 554 1202 l 551 1027 "},"!":{"x_min":34.59375,"x_max":366.921875,"ha":388,"o":"m 366 1007 l 311 294 l 60 294 l 34 1007 l 366 1007 m 322 85 q 310 29 322 55 q 279 -15 299 4 q 234 -45 260 -34 q 179 -56 208 -56 q 124 -45 149 -56 q 79 -15 98 -34 q 48 29 59 4 q 37 85 37 55 q 48 141 37 114 q 79 186 59 167 q 124 217 98 206 q 179 229 149 229 q 234 217 208 229 q 279 186 260 206 q 310 141 299 167 q 322 85 322 114 "},"ç":{"x_min":10.859375,"x_max":697.21875,"ha":713,"o":"m 573 -198 q 561 -264 573 -237 q 526 -308 548 -291 q 473 -334 503 -326 q 406 -341 442 -341 q 377 -340 394 -341 q 344 -334 361 -338 q 312 -325 328 -330 q 286 -310 297 -319 l 345 -203 q 364 -210 354 -207 q 385 -212 375 -212 q 409 -205 397 -212 q 421 -184 421 -198 q 415 -167 421 -174 q 400 -157 409 -161 q 381 -151 391 -153 q 363 -150 370 -150 q 336 -152 349 -150 q 309 -157 322 -153 l 316 0 q 189 62 246 20 q 93 161 133 103 q 32 288 54 218 q 10 435 10 358 q 42 642 10 546 q 135 810 73 739 q 287 921 196 881 q 495 961 377 961 q 590 954 541 961 q 682 926 638 946 l 657 640 q 619 647 638 645 q 580 649 600 649 q 488 637 532 649 q 411 600 444 625 q 357 536 377 575 q 337 446 337 498 q 348 380 337 408 q 380 333 360 352 q 431 305 401 314 q 496 295 460 295 q 548 300 521 295 q 600 314 574 305 q 651 335 627 323 q 697 359 676 346 l 686 40 q 629 16 659 27 q 566 -1 598 6 q 502 -13 534 -9 q 440 -17 470 -17 l 434 -17 l 434 -63 q 489 -74 463 -65 q 534 -101 515 -84 q 563 -143 552 -118 q 573 -198 573 -167 "},"Ĵ":{"x_min":-9.5,"x_max":723.53125,"ha":708,"o":"m 682 558 q 682 479 682 518 q 678 400 682 440 q 641 239 670 315 q 562 107 612 164 q 441 16 512 50 q 278 -16 370 -16 q 203 -10 242 -16 q 125 8 164 -4 q 52 38 87 20 q -9 80 17 56 l 32 360 q 121 298 72 322 q 227 274 170 274 q 290 284 265 274 q 333 314 316 295 q 360 359 350 333 q 374 413 370 384 q 380 472 379 442 q 381 533 381 503 q 370 747 381 640 q 351 961 359 854 l 661 982 q 682 558 682 770 m 579 998 l 473 1137 l 391 1005 l 242 1069 q 273 1118 254 1090 q 313 1177 292 1146 q 356 1237 334 1207 q 397 1293 378 1267 l 537 1294 l 723 1087 l 579 998 "},"È":{"x_min":29.84375,"x_max":676.859375,"ha":665,"o":"m 676 978 q 669 851 672 914 q 660 725 666 789 l 373 710 l 366 625 l 568 625 l 553 415 l 349 408 l 343 309 l 511 309 l 630 309 q 622 161 626 234 q 614 13 617 87 l 29 0 l 51 978 l 676 978 m 375 1002 q 226 1106 300 1058 q 73 1201 151 1155 l 207 1360 q 311 1261 261 1309 q 354 1218 332 1240 q 396 1173 376 1195 q 435 1130 417 1151 q 466 1093 453 1110 l 375 1002 "},"ﬁ":{"x_min":29.15625,"x_max":1036.625,"ha":1057,"o":"m 676 964 q 668 838 672 900 q 659 712 665 775 l 372 697 l 372 611 l 621 611 l 608 401 l 370 394 l 372 20 l 29 13 l 50 964 l 676 964 m 1036 954 l 989 31 l 702 16 l 675 935 l 1036 954 "},"X":{"x_min":-30.515625,"x_max":851.171875,"ha":817,"o":"m 851 950 l 586 491 l 811 90 l 528 2 l 406 279 l 262 1 l -30 107 l 219 500 l -8 914 l 301 988 l 413 716 l 531 988 l 851 950 "},"ô":{"x_min":11.53125,"x_max":872.875,"ha":886,"o":"m 872 519 q 858 400 872 457 q 817 292 844 343 q 752 201 790 242 q 666 129 714 159 q 562 83 618 99 q 442 66 505 66 q 326 82 381 66 q 223 125 271 97 q 135 193 174 153 q 69 281 96 233 q 26 385 42 330 q 11 501 11 441 q 25 617 11 560 q 66 724 40 674 q 131 816 93 774 q 216 889 169 858 q 318 936 263 919 q 434 953 373 953 q 614 923 533 953 q 752 835 695 892 q 841 698 809 779 q 872 519 872 618 m 571 501 q 563 558 571 531 q 538 607 554 585 q 498 641 522 628 q 442 655 474 655 q 385 643 411 655 q 342 612 360 632 q 315 565 324 592 q 305 508 305 538 q 314 451 305 480 q 338 400 322 423 q 378 362 354 377 q 434 348 402 348 q 492 361 466 348 q 535 395 517 373 q 562 444 552 416 q 571 501 571 472 m 538 973 l 432 1112 l 350 980 l 201 1044 q 232 1093 213 1065 q 272 1152 251 1121 q 315 1212 293 1182 q 356 1268 337 1242 l 496 1269 l 682 1062 l 538 973 "},"Ė":{"x_min":29.84375,"x_max":676.859375,"ha":665,"o":"m 676 978 q 669 851 672 914 q 660 725 666 789 l 373 710 l 366 625 l 568 625 l 553 415 l 349 408 l 343 309 l 511 309 l 630 309 q 622 161 626 234 q 614 13 617 87 l 29 0 l 51 978 l 676 978 m 481 1139 q 470 1087 481 1111 q 441 1046 460 1064 q 399 1018 423 1028 q 347 1007 374 1007 q 292 1018 317 1007 q 248 1046 266 1028 q 220 1087 230 1064 q 210 1139 210 1111 q 220 1191 210 1166 q 248 1233 230 1215 q 290 1261 266 1251 q 342 1272 315 1272 q 397 1261 372 1272 q 441 1233 422 1251 q 470 1191 460 1215 q 481 1139 481 1166 "},"Ā":{"x_min":-21.703125,"x_max":889.828125,"ha":869,"o":"m 889 58 l 553 14 l 512 168 l 358 168 l 324 14 l -21 48 l 248 952 l 625 971 l 889 58 m 488 375 l 436 611 l 386 375 l 488 375 m 653 1014 l 225 1020 l 213 1181 l 656 1189 l 653 1014 "},"ċ":{"x_min":10.171875,"x_max":696.53125,"ha":712,"o":"m 681 926 l 657 640 q 618 647 637 645 q 579 649 599 649 q 487 637 531 649 q 410 600 444 625 q 357 536 377 575 q 337 446 337 498 q 348 380 337 408 q 380 333 359 352 q 430 305 400 314 q 495 295 459 295 q 547 300 520 295 q 600 314 573 305 q 651 335 626 323 q 696 359 675 346 l 685 40 q 628 16 659 27 q 565 -1 598 6 q 501 -13 533 -9 q 440 -17 469 -17 q 264 18 343 -17 q 129 116 185 54 q 41 260 72 178 q 10 435 10 342 q 41 642 10 546 q 134 810 73 739 q 286 921 196 881 q 494 961 377 961 q 589 954 541 961 q 681 926 637 946 m 493 1110 q 482 1058 493 1082 q 453 1017 472 1035 q 411 989 435 999 q 359 978 386 978 q 304 989 329 978 q 260 1017 278 999 q 232 1058 242 1035 q 222 1110 222 1082 q 232 1162 222 1137 q 260 1204 242 1186 q 302 1232 278 1222 q 354 1243 327 1243 q 409 1232 384 1243 q 453 1204 434 1222 q 482 1162 472 1186 q 493 1110 493 1137 "},"đ":{"x_min":-19.671875,"x_max":849.8125,"ha":856,"o":"m 86 526 l 95 922 q 249 955 170 946 q 406 965 328 965 q 584 936 503 965 q 725 852 666 907 q 816 718 784 797 q 849 538 849 638 q 825 367 849 443 q 757 231 800 290 q 653 129 713 172 q 520 59 592 86 q 367 18 448 31 q 201 5 286 5 q 139 7 169 5 q 76 12 108 8 l 84 409 l -16 405 l -19 529 l 86 526 m 571 495 q 563 565 572 531 q 536 625 555 599 q 486 667 516 651 q 415 685 457 683 l 404 522 l 472 520 l 475 425 l 400 421 l 388 264 q 462 291 429 270 q 519 342 495 311 q 557 409 543 372 q 571 485 570 446 l 571 495 "},"Ẃ":{"x_min":3.390625,"x_max":1258.109375,"ha":1261,"o":"m 1258 941 l 1099 1 l 714 -6 l 631 480 l 548 28 l 163 14 l 3 941 l 339 971 l 407 408 l 498 971 l 763 971 l 868 401 l 923 971 l 1258 941 m 1002 1179 q 845 1090 921 1135 q 691 992 768 1045 l 605 1087 q 637 1123 618 1103 q 677 1164 656 1143 q 722 1207 699 1185 q 767 1248 745 1228 q 874 1342 818 1294 l 1002 1179 "},"Ŀ":{"x_min":31.203125,"x_max":721.78125,"ha":722,"o":"m 630 386 l 602 85 l 31 40 q 40 511 35 277 q 52 982 45 745 l 405 982 q 375 685 389 833 q 355 386 361 537 q 418 385 387 385 q 481 385 449 385 q 556 385 519 385 q 630 386 592 386 m 721 605 q 710 549 721 575 q 679 504 698 523 q 634 473 660 485 q 579 462 608 462 q 523 473 549 462 q 478 504 497 485 q 448 549 459 523 q 436 605 436 575 q 448 660 436 634 q 478 706 459 687 q 523 737 497 725 q 579 748 549 748 q 634 737 608 748 q 679 706 660 725 q 710 660 698 687 q 721 605 721 634 "},"ŋ":{"x_min":18.984375,"x_max":876.265625,"ha":905,"o":"m 876 343 q 870 202 872 261 q 867 104 868 144 q 865 40 866 64 q 863 0 864 15 q 862 -22 862 -14 q 860 -35 861 -29 q 824 -196 853 -120 q 745 -328 794 -271 q 623 -419 695 -385 q 460 -452 552 -452 q 385 -446 424 -452 q 308 -427 346 -440 q 235 -397 269 -415 q 172 -356 200 -379 l 215 -75 q 303 -138 255 -113 q 410 -162 352 -162 q 482 -144 458 -162 q 516 -96 506 -126 q 526 -30 526 -67 q 529 46 527 7 l 529 529 q 528 557 529 537 q 525 601 527 577 q 519 652 523 626 q 509 700 516 678 q 494 736 503 722 q 472 750 484 750 q 433 736 448 750 q 406 701 417 722 q 389 653 396 680 q 380 600 383 627 q 376 551 377 574 q 375 512 375 527 q 370 274 372 392 q 364 35 368 155 l 18 20 q 45 496 32 259 q 65 972 57 733 l 385 988 l 382 880 q 423 923 401 903 q 470 958 445 944 q 523 981 495 973 q 583 990 552 990 q 684 971 640 990 q 758 919 727 952 q 811 842 790 887 q 845 748 832 798 q 864 643 857 697 q 873 535 871 588 q 876 433 876 482 q 876 343 876 383 "},"}":{"x_min":-46.125,"x_max":564.28125,"ha":559,"o":"m 556 373 q 543 373 550 373 q 530 374 536 374 q 478 367 502 374 q 437 349 455 361 q 408 321 419 337 q 398 283 398 304 q 406 232 398 257 q 422 183 413 208 q 438 134 431 159 q 446 82 446 109 q 421 1 446 38 q 355 -62 396 -35 q 260 -105 314 -90 q 151 -120 207 -120 q 48 -107 99 -120 q -46 -74 -2 -94 l 27 107 q 65 95 45 99 q 104 90 84 90 q 166 106 145 90 q 188 153 188 122 q 181 197 188 175 q 166 240 174 219 q 150 283 158 261 q 143 328 143 305 q 183 411 143 382 q 298 438 223 439 q 230 461 261 444 q 178 501 200 478 q 144 550 156 523 q 132 604 132 577 q 141 651 132 628 q 158 695 149 673 q 176 739 168 716 q 184 785 184 761 q 170 823 184 807 q 133 852 155 840 q 84 871 111 864 q 32 881 57 878 l 131 1071 q 242 1053 189 1072 q 338 1003 296 1034 q 404 932 379 972 q 430 850 430 891 q 421 803 430 826 q 404 757 413 780 q 386 711 394 734 q 378 663 378 687 q 395 617 378 637 q 440 583 413 597 q 500 563 467 570 q 564 560 533 557 l 556 373 "},"â":{"x_min":-21.703125,"x_max":889.828125,"ha":869,"o":"m 889 58 l 553 14 l 512 168 l 358 168 l 324 14 l -21 48 l 248 952 l 625 971 l 889 58 m 488 375 l 436 611 l 386 375 l 488 375 m 530 985 l 424 1124 l 342 992 l 193 1056 q 224 1105 205 1077 q 264 1164 243 1133 q 307 1224 285 1194 q 348 1280 329 1254 l 488 1281 l 674 1074 l 530 985 "},"ø":{"x_min":10.859375,"x_max":872.1875,"ha":883,"o":"m 771 933 q 752 892 762 912 q 733 850 743 872 q 835 709 799 792 q 872 519 872 626 q 857 400 872 457 q 816 292 843 343 q 751 201 790 242 q 665 129 713 159 q 561 83 617 99 q 442 66 505 66 l 436 66 l 397 -42 l 126 63 l 165 164 q 101 231 129 193 q 52 311 72 268 q 21 402 32 354 q 10 501 10 450 q 25 617 10 560 q 66 724 39 674 q 130 816 92 774 q 216 889 168 858 q 318 936 263 919 q 434 953 373 953 q 474 951 454 953 q 514 948 494 950 l 554 1028 l 771 933 m 571 501 q 556 573 571 539 l 454 349 q 503 367 481 354 q 540 402 524 381 q 563 448 555 423 q 571 501 571 474 m 305 508 q 308 469 305 489 q 320 431 312 449 l 416 652 q 369 635 390 648 q 335 603 349 622 q 313 559 320 583 q 305 508 305 535 "},"‰":{"x_min":27.8125,"x_max":1439.859375,"ha":1468,"o":"m 978 288 q 963 218 978 252 q 920 155 948 183 q 851 110 891 128 q 760 93 811 93 q 669 110 710 93 q 601 155 629 128 q 558 218 573 183 q 543 288 543 252 q 558 359 543 324 q 601 422 573 394 q 669 466 629 449 q 760 484 710 484 q 851 466 811 484 q 920 422 891 449 q 963 359 948 394 q 978 288 978 324 m 825 290 q 821 313 825 301 q 809 337 817 326 q 789 356 801 348 q 758 363 776 363 q 728 356 741 363 q 707 337 715 348 q 695 313 699 326 q 691 290 691 301 q 695 266 691 279 q 707 243 699 254 q 728 224 715 231 q 758 217 741 217 q 789 224 776 217 q 809 243 801 231 q 821 266 817 254 q 825 290 825 279 m 463 625 q 448 554 463 589 q 404 492 433 519 q 336 447 376 464 q 244 430 295 430 q 154 447 194 430 q 85 492 113 464 q 42 554 57 519 q 27 625 27 589 q 42 695 27 660 q 85 758 57 731 q 154 803 113 786 q 244 820 194 820 q 336 803 295 820 q 404 758 376 786 q 448 695 433 731 q 463 625 463 660 m 309 626 q 306 650 309 637 q 294 673 302 662 q 273 692 286 685 q 243 699 261 699 q 212 692 225 699 q 191 673 200 685 q 179 650 183 662 q 175 626 175 637 q 179 603 175 615 q 191 579 183 590 q 212 560 200 568 q 243 553 225 553 q 273 560 261 553 q 294 579 286 568 q 306 603 302 590 q 309 626 309 615 m 734 843 q 573 458 647 654 q 434 63 499 263 l 293 115 q 373 311 333 213 q 454 506 413 409 q 541 698 496 603 q 636 887 585 794 l 734 843 m 1439 288 q 1424 218 1439 252 q 1381 155 1410 183 q 1312 110 1353 128 q 1221 93 1272 93 q 1130 110 1171 93 q 1062 155 1090 128 q 1019 218 1034 183 q 1004 288 1004 252 q 1019 359 1004 324 q 1062 422 1034 394 q 1130 466 1090 449 q 1221 484 1171 484 q 1312 466 1272 484 q 1381 422 1353 449 q 1424 359 1410 394 q 1439 288 1439 324 m 1286 290 q 1282 313 1286 301 q 1270 337 1279 326 q 1250 356 1262 348 q 1220 363 1237 363 q 1189 356 1202 363 q 1168 337 1176 348 q 1156 313 1160 326 q 1152 290 1152 301 q 1156 266 1152 279 q 1168 243 1160 254 q 1189 224 1176 231 q 1220 217 1202 217 q 1250 224 1237 217 q 1270 243 1262 231 q 1282 266 1279 254 q 1286 290 1286 279 "},"Ä":{"x_min":-21.703125,"x_max":889.828125,"ha":869,"o":"m 889 58 l 553 14 l 512 168 l 358 168 l 324 14 l -21 48 l 248 952 l 625 971 l 889 58 m 488 375 l 436 611 l 386 375 l 488 375 m 672 1109 q 665 1070 672 1088 q 643 1039 657 1052 q 611 1018 630 1026 q 572 1010 593 1010 q 534 1018 552 1010 q 503 1039 516 1026 q 482 1070 490 1052 q 474 1109 474 1088 q 482 1147 474 1129 q 503 1179 490 1165 q 534 1200 516 1192 q 572 1208 552 1208 q 611 1200 593 1208 q 643 1179 630 1192 q 665 1147 657 1165 q 672 1109 672 1129 m 408 1094 q 399 1052 408 1072 q 376 1017 391 1032 q 342 994 362 1003 q 301 986 322 986 q 259 994 278 986 q 225 1017 239 1003 q 202 1052 210 1032 q 194 1094 194 1072 q 202 1134 194 1115 q 225 1168 210 1153 q 259 1191 239 1182 q 301 1200 278 1200 q 342 1191 322 1200 q 376 1168 362 1182 q 399 1134 391 1153 q 408 1094 408 1115 "},"ř":{"x_min":29.15625,"x_max":829.46875,"ha":842,"o":"m 829 653 q 820 557 829 600 q 791 478 811 514 q 740 412 771 442 q 665 354 709 381 l 826 66 l 521 6 l 417 295 l 333 293 l 320 10 l 29 10 q 35 318 32 165 q 42 626 38 472 q 45 781 44 704 q 50 935 46 857 q 144 965 98 953 q 237 983 190 976 q 331 991 283 989 q 429 994 379 994 q 578 972 506 994 q 706 908 651 951 q 795 802 762 866 q 829 653 829 738 m 525 632 q 517 684 525 660 q 494 725 510 708 q 456 752 479 742 q 403 762 434 762 q 377 760 389 762 q 352 755 364 758 l 341 503 l 357 503 q 416 510 386 503 q 471 533 446 518 q 510 573 495 549 q 525 632 525 598 m 661 1253 q 630 1205 648 1232 q 591 1149 612 1178 q 549 1090 571 1120 q 509 1036 528 1061 l 376 1017 l 180 1232 l 323 1323 l 429 1185 l 512 1318 l 661 1253 "},"—":{"x_min":45.4375,"x_max":1156.375,"ha":1205,"o":"m 48 347 l 45 564 l 1153 591 l 1156 345 l 48 347 "},"N":{"x_min":27.8125,"x_max":956.96875,"ha":977,"o":"m 956 972 l 908 52 l 552 20 l 362 512 l 333 10 l 27 10 l 52 972 l 391 988 l 626 500 l 636 961 l 956 972 "},"⁄":{"x_min":-17.640625,"x_max":421.859375,"ha":403,"o":"m 421 843 q 261 458 335 654 q 123 63 187 263 l -17 115 q 61 311 21 213 q 142 506 100 409 q 228 698 183 603 q 324 887 273 794 l 421 843 "},"2":{"x_min":18.984375,"x_max":683.65625,"ha":707,"o":"m 683 638 q 663 535 683 584 q 612 443 644 486 q 538 363 579 400 q 455 298 497 327 l 670 298 l 653 16 l 18 37 l 18 284 q 94 314 54 297 q 172 354 134 331 q 245 404 210 376 q 305 464 279 432 q 346 536 331 497 q 362 619 362 575 q 353 665 362 645 q 327 698 343 685 q 289 717 311 711 q 244 724 268 724 q 202 719 223 724 q 161 707 181 715 q 123 687 141 699 q 90 660 105 675 l 31 926 q 88 968 56 951 q 157 995 121 985 q 230 1011 193 1006 q 303 1015 267 1015 q 453 987 383 1015 q 573 907 522 958 q 654 788 624 857 q 683 638 683 718 "},"ü":{"x_min":23.734375,"x_max":843.03125,"ha":849,"o":"m 843 954 q 790 479 812 716 q 749 4 769 243 l 471 -16 l 483 88 q 452 61 470 72 q 413 42 434 49 q 371 32 393 35 q 330 29 349 29 q 243 47 284 30 q 168 93 202 65 q 107 161 134 122 q 62 241 80 199 q 33 328 43 284 q 23 413 23 372 q 26 540 23 474 q 34 671 28 605 q 50 801 40 737 q 75 925 60 866 q 241 917 158 921 q 407 915 324 914 q 376 797 392 856 q 349 677 361 737 q 329 557 337 617 q 322 435 322 497 q 323 394 322 421 q 330 342 324 368 q 348 297 336 316 q 381 278 360 278 q 427 300 407 278 q 463 359 448 322 q 490 445 479 396 q 509 547 501 494 q 522 655 517 600 q 529 757 526 709 q 532 843 531 805 q 533 902 533 881 q 533 928 533 915 q 531 954 532 941 q 618 952 575 953 q 706 952 661 952 q 774 952 739 952 q 843 954 808 952 m 671 1091 q 664 1052 671 1070 q 642 1021 656 1034 q 610 1000 629 1008 q 571 992 592 992 q 533 1000 551 992 q 502 1021 515 1008 q 481 1052 489 1034 q 473 1091 473 1070 q 481 1129 473 1111 q 502 1161 489 1147 q 533 1182 515 1174 q 571 1190 551 1190 q 610 1182 592 1190 q 642 1161 629 1174 q 664 1129 656 1147 q 671 1091 671 1111 m 407 1076 q 398 1034 407 1054 q 375 999 390 1014 q 341 976 361 985 q 300 968 321 968 q 258 976 277 968 q 224 999 238 985 q 201 1034 209 1014 q 193 1076 193 1054 q 201 1116 193 1097 q 224 1150 209 1135 q 258 1173 238 1164 q 300 1182 277 1182 q 341 1173 321 1182 q 375 1150 361 1164 q 398 1116 390 1135 q 407 1076 407 1097 "},"˜":{"x_min":0,"x_max":542.578125,"ha":543,"o":"m 542 1077 q 528 1003 542 1037 q 489 944 514 969 q 431 905 464 919 q 359 891 397 891 q 308 902 329 891 q 272 929 287 912 q 247 964 258 945 q 228 999 237 983 q 210 1026 219 1015 q 189 1037 201 1037 q 177 1033 182 1037 q 168 1022 171 1028 q 164 1009 165 1016 q 162 995 162 1001 q 167 955 162 975 q 180 918 172 936 l 14 904 q 3 962 6 933 q 0 1018 0 990 q 10 1096 0 1060 q 43 1158 21 1131 q 95 1200 64 1184 q 169 1215 127 1215 q 231 1203 206 1215 q 271 1175 255 1192 q 297 1138 288 1158 q 314 1100 306 1117 q 328 1072 321 1083 q 345 1060 335 1060 q 366 1072 359 1060 q 374 1097 374 1085 q 366 1137 374 1117 q 348 1171 358 1156 l 516 1199 q 535 1139 528 1169 q 542 1077 542 1108 "},"Ó":{"x_min":11.53125,"x_max":872.875,"ha":886,"o":"m 872 478 q 858 359 872 417 q 817 252 844 302 q 752 160 790 202 q 666 88 714 118 q 562 42 618 59 q 442 25 505 25 q 326 41 381 25 q 223 85 271 56 q 135 152 174 113 q 69 241 96 192 q 26 345 42 289 q 11 461 11 400 q 25 576 11 520 q 66 683 40 633 q 131 775 93 733 q 216 848 169 817 q 318 895 263 878 q 434 912 373 912 q 614 882 533 912 q 752 795 695 851 q 841 658 809 738 q 872 478 872 577 m 571 461 q 563 517 571 490 q 538 566 554 545 q 498 601 522 588 q 442 614 474 614 q 385 602 411 614 q 342 571 360 591 q 315 524 324 551 q 305 467 305 497 q 314 411 305 439 q 338 359 322 382 q 378 322 354 336 q 434 307 402 307 q 492 320 466 307 q 535 354 517 333 q 562 403 552 375 q 571 461 571 431 m 795 1125 q 638 1036 714 1081 q 484 938 561 991 l 398 1033 q 430 1069 411 1049 q 470 1110 449 1089 q 515 1153 492 1131 q 560 1194 538 1174 q 667 1288 611 1240 l 795 1125 "},"ˇ":{"x_min":0,"x_max":481.53125,"ha":482,"o":"m 481 1203 q 450 1155 468 1182 q 411 1099 432 1128 q 369 1040 391 1070 q 329 986 348 1011 l 196 967 l 0 1182 l 143 1273 l 249 1135 l 332 1268 l 481 1203 "},"Ÿ":{"x_min":8.140625,"x_max":906.109375,"ha":843,"o":"m 906 918 l 533 397 l 515 -27 l 193 -27 l 202 394 l 8 897 l 354 941 l 408 648 l 580 941 l 906 918 m 695 1102 q 688 1063 695 1081 q 666 1032 680 1045 q 634 1011 653 1019 q 595 1003 616 1003 q 557 1011 575 1003 q 526 1032 539 1019 q 505 1063 513 1045 q 497 1102 497 1081 q 505 1140 497 1122 q 526 1172 513 1158 q 557 1193 539 1185 q 595 1201 575 1201 q 634 1193 616 1201 q 666 1172 653 1185 q 688 1140 680 1158 q 695 1102 695 1122 m 431 1087 q 422 1045 431 1065 q 399 1010 414 1025 q 365 987 385 996 q 324 979 345 979 q 282 987 301 979 q 248 1010 262 996 q 225 1045 233 1025 q 217 1087 217 1065 q 225 1127 217 1108 q 248 1161 233 1146 q 282 1184 262 1175 q 324 1193 301 1193 q 365 1184 345 1193 q 399 1161 385 1175 q 422 1127 414 1146 q 431 1087 431 1108 "},"ų":{"x_min":23.734375,"x_max":843.03125,"ha":849,"o":"m 776 -191 q 709 -240 746 -219 q 630 -261 672 -261 q 571 -251 598 -261 q 523 -222 543 -240 q 490 -177 502 -203 q 478 -119 478 -151 q 488 -63 478 -89 q 516 -12 499 -36 l 471 -16 l 483 88 q 452 61 470 72 q 413 42 434 49 q 371 32 393 35 q 330 29 349 29 q 243 47 284 30 q 168 93 202 65 q 107 161 134 122 q 62 241 80 199 q 33 328 43 284 q 23 413 23 372 q 26 540 23 474 q 34 671 28 605 q 50 801 40 737 q 75 925 60 866 q 241 917 158 921 q 407 915 324 914 q 376 797 392 856 q 349 677 361 737 q 329 557 337 617 q 322 435 322 497 q 323 394 322 421 q 330 342 324 368 q 348 297 336 316 q 381 278 360 278 q 427 300 407 278 q 463 359 448 322 q 490 445 479 396 q 509 547 501 494 q 522 655 517 600 q 529 757 526 709 q 532 843 531 805 q 533 902 533 881 q 533 928 533 915 q 531 954 532 941 q 618 952 575 953 q 706 952 661 952 q 774 952 739 952 q 843 954 808 952 q 790 479 812 716 q 749 4 769 243 l 678 0 q 659 -27 669 -13 q 642 -54 650 -41 q 630 -78 635 -67 q 626 -99 626 -90 q 634 -119 626 -111 q 655 -127 643 -127 q 685 -116 669 -127 q 710 -94 701 -106 l 776 -191 "},"€":{"x_min":27.8125,"x_max":657.203125,"ha":711,"o":"m 468 392 l 410 387 q 505 359 440 359 q 584 371 543 359 q 657 398 625 383 l 649 198 q 605 183 629 189 q 558 171 582 176 q 509 164 533 166 q 461 161 484 161 q 350 177 401 161 q 258 221 299 193 q 189 287 217 249 q 148 371 161 326 l 27 363 l 53 454 l 137 453 q 137 466 137 460 q 139 480 137 472 l 60 480 l 82 567 l 155 561 q 202 649 171 609 q 276 718 232 689 q 377 762 320 746 q 503 778 434 778 q 574 774 538 778 q 644 756 611 770 l 626 576 q 597 580 611 579 q 567 581 583 581 q 491 572 527 581 q 429 542 455 562 l 468 539 l 468 482 l 388 481 q 386 467 387 475 q 385 453 385 460 l 385 448 l 468 448 l 468 392 "},"Ŭ":{"x_min":22.375,"x_max":845.75,"ha":865,"o":"m 845 754 q 841 643 845 704 q 825 518 836 583 q 797 388 814 454 q 754 261 779 322 q 694 146 728 200 q 615 53 659 93 q 516 -8 571 14 q 394 -31 461 -31 q 257 -5 315 -31 q 158 62 199 19 q 90 163 116 105 q 48 284 63 220 q 28 415 33 348 q 22 543 22 482 q 31 733 22 638 q 59 922 41 828 l 376 910 q 344 696 358 803 q 331 480 331 588 q 332 445 331 468 q 336 395 333 423 q 344 337 339 366 q 358 283 349 307 q 379 243 366 259 q 408 227 392 227 q 444 246 428 227 q 471 296 459 265 q 492 368 483 327 q 507 453 501 408 q 517 541 513 497 q 523 623 520 585 q 526 690 525 661 q 526 733 526 719 q 525 839 526 786 q 520 944 523 891 l 837 944 q 845 754 845 850 m 634 1163 q 618 1083 634 1120 q 574 1019 602 1046 q 510 976 547 991 q 430 961 472 961 q 344 976 381 961 q 282 1018 307 991 q 244 1085 257 1046 q 231 1174 231 1124 q 231 1190 231 1181 q 232 1205 231 1198 l 390 1185 q 390 1160 389 1174 q 397 1134 392 1146 q 411 1112 402 1121 q 436 1103 420 1103 q 452 1108 445 1103 q 462 1122 458 1114 q 468 1139 466 1130 q 470 1156 470 1148 q 465 1194 470 1176 q 455 1230 461 1211 l 619 1259 q 629 1212 625 1237 q 634 1163 634 1187 "},"ĝ":{"x_min":6.78125,"x_max":854.5625,"ha":872,"o":"m 854 151 q 775 82 822 111 q 675 32 729 52 q 565 3 621 12 q 458 -6 509 -6 q 277 26 360 -6 q 134 119 194 59 q 40 260 74 178 q 6 439 6 342 q 23 583 6 513 q 72 714 40 653 q 149 826 103 775 q 252 913 194 876 q 378 970 309 950 q 524 990 447 990 q 587 987 554 990 q 653 979 620 985 q 717 963 686 973 q 774 938 748 953 l 755 679 q 677 698 717 693 q 598 704 636 704 q 496 689 543 704 q 414 646 449 674 q 359 575 379 617 q 339 476 339 532 q 348 407 339 440 q 377 349 358 375 q 425 308 396 324 q 492 293 454 293 q 545 299 518 293 q 592 322 573 306 l 595 375 l 432 378 l 440 581 q 642 587 541 585 q 846 594 744 590 l 854 151 m 551 1010 l 445 1149 l 363 1017 l 214 1081 q 245 1130 226 1102 q 285 1189 264 1158 q 328 1249 306 1219 q 369 1305 350 1279 l 509 1306 l 695 1099 l 551 1010 "},"ß":{"x_min":18.984375,"x_max":1440.546875,"ha":1449,"o":"m 729 347 q 697 186 729 254 q 609 75 665 119 q 478 11 553 31 q 317 -9 403 -9 q 244 0 284 -9 q 164 21 204 8 q 85 49 123 34 q 18 78 48 65 l 48 344 q 176 291 106 309 q 314 274 246 274 q 345 275 327 274 q 380 281 364 276 q 408 296 397 286 q 420 325 420 306 q 412 347 420 338 q 391 362 404 356 q 362 371 378 368 q 330 375 345 374 q 301 377 314 377 q 279 377 287 377 q 173 395 221 377 q 91 447 125 413 q 37 528 56 480 q 18 634 18 576 q 51 778 18 714 q 137 886 83 841 q 261 954 191 930 q 405 978 330 978 q 474 975 438 978 q 544 967 509 973 q 612 951 579 961 q 675 927 645 942 l 649 652 q 553 678 603 668 q 454 689 502 689 q 431 688 445 689 q 402 686 417 688 q 371 681 387 685 q 343 672 356 678 q 324 657 331 666 q 317 634 316 647 q 328 611 318 619 q 355 599 339 603 q 392 596 372 596 q 432 597 412 596 q 468 599 451 598 q 496 599 485 600 q 594 576 550 596 q 667 524 637 556 q 713 446 697 491 q 729 347 729 401 m 1440 347 q 1408 186 1440 254 q 1320 75 1376 119 q 1189 11 1264 31 q 1028 -9 1114 -9 q 955 0 994 -9 q 874 21 915 8 q 796 49 834 34 q 729 78 758 65 l 759 344 q 887 291 817 309 q 1025 274 957 274 q 1056 275 1038 274 q 1091 281 1074 276 q 1119 296 1108 286 q 1131 325 1131 306 q 1123 347 1131 338 q 1102 362 1115 356 q 1072 371 1089 368 q 1041 375 1056 374 q 1011 377 1025 377 q 990 377 998 377 q 884 395 931 377 q 802 447 836 413 q 748 528 767 480 q 729 634 729 576 q 761 778 729 714 q 848 886 794 841 q 971 954 902 930 q 1116 978 1041 978 q 1184 975 1149 978 q 1255 967 1220 973 q 1323 951 1289 961 q 1386 927 1356 942 l 1360 652 q 1263 678 1314 668 q 1165 689 1213 689 q 1142 688 1156 689 q 1113 686 1128 688 q 1082 681 1098 685 q 1054 672 1066 678 q 1034 657 1042 666 q 1028 634 1027 647 q 1039 611 1028 619 q 1066 599 1049 603 q 1103 596 1083 596 q 1142 597 1123 596 q 1179 599 1162 598 q 1207 599 1196 600 q 1304 576 1261 596 q 1378 524 1348 556 q 1424 446 1408 491 q 1440 347 1440 401 "},"s":{"x_min":18.984375,"x_max":729.765625,"ha":739,"o":"m 729 347 q 697 186 729 254 q 609 75 665 119 q 478 11 553 31 q 317 -9 403 -9 q 244 0 284 -9 q 164 21 204 8 q 85 49 123 34 q 18 78 48 65 l 48 344 q 176 291 106 309 q 314 274 246 274 q 345 275 327 274 q 380 281 364 276 q 408 296 397 286 q 420 325 420 306 q 412 347 420 338 q 391 362 404 356 q 362 371 378 368 q 330 375 345 374 q 301 377 314 377 q 279 377 287 377 q 173 395 221 377 q 91 447 125 413 q 37 528 56 480 q 18 634 18 576 q 51 778 18 714 q 137 886 83 841 q 261 954 191 930 q 405 978 330 978 q 474 975 438 978 q 544 967 509 973 q 612 951 579 961 q 675 927 645 942 l 649 652 q 553 678 603 668 q 454 689 502 689 q 431 688 445 689 q 402 686 417 688 q 371 681 387 685 q 343 672 356 678 q 324 657 331 666 q 317 634 316 647 q 328 611 318 619 q 355 599 339 603 q 392 596 372 596 q 432 597 412 596 q 468 599 451 598 q 496 599 485 600 q 594 576 550 596 q 667 524 637 556 q 713 446 697 491 q 729 347 729 401 "},"Ű":{"x_min":22.375,"x_max":882.25,"ha":865,"o":"m 845 754 q 841 643 845 704 q 825 518 836 583 q 797 388 814 454 q 754 261 779 322 q 694 146 728 200 q 615 53 659 93 q 516 -8 571 14 q 394 -31 461 -31 q 257 -5 315 -31 q 158 62 199 19 q 90 163 116 105 q 48 284 63 220 q 28 415 33 348 q 22 543 22 482 q 31 733 22 638 q 59 922 41 828 l 376 910 q 344 696 358 803 q 331 480 331 588 q 332 445 331 468 q 336 395 333 423 q 344 337 339 366 q 358 283 349 307 q 379 243 366 259 q 408 227 392 227 q 444 246 428 227 q 471 296 459 265 q 492 368 483 327 q 507 453 501 408 q 517 541 513 497 q 523 623 520 585 q 526 690 525 661 q 526 733 526 719 q 525 839 526 786 q 520 944 523 891 l 837 944 q 845 754 845 850 m 882 1188 q 737 1081 808 1135 q 596 967 666 1027 l 501 1050 q 528 1090 512 1068 q 564 1135 545 1111 q 603 1183 583 1159 q 642 1229 623 1207 q 738 1337 688 1282 l 882 1188 m 624 1234 q 479 1127 550 1181 q 339 1012 408 1072 l 242 1096 q 270 1136 253 1114 q 305 1182 286 1158 q 344 1230 324 1206 q 384 1276 364 1254 q 480 1383 429 1328 l 624 1234 "},"?":{"x_min":27.8125,"x_max":741.296875,"ha":770,"o":"m 438 264 l 209 264 q 217 384 204 336 q 252 465 230 433 q 302 517 274 497 q 355 552 329 537 q 401 580 381 567 q 429 614 421 594 q 432 642 434 626 q 418 672 430 658 q 382 696 406 687 q 322 706 359 706 q 264 702 297 706 q 193 688 230 697 q 121 666 157 679 q 57 636 86 653 l 27 902 q 84 932 52 916 q 153 961 115 948 q 236 982 191 973 q 333 990 281 990 q 490 967 416 990 q 620 899 564 944 q 708 789 676 854 q 741 638 741 723 q 722 535 741 574 q 676 471 704 496 q 612 429 647 446 q 543 392 577 412 q 481 343 510 372 q 438 264 453 314 m 472 85 q 461 29 472 55 q 430 -15 449 4 q 385 -45 411 -34 q 330 -56 359 -56 q 274 -45 300 -56 q 229 -15 248 -34 q 199 29 210 4 q 187 85 187 55 q 199 141 187 114 q 229 186 210 167 q 274 217 248 206 q 330 229 300 229 q 385 217 359 229 q 430 186 411 206 q 461 141 449 167 q 472 85 472 114 "},"Ņ":{"x_min":27.8125,"x_max":956.96875,"ha":977,"o":"m 956 972 l 908 52 l 552 20 l 362 512 l 333 10 l 27 10 l 52 972 l 391 988 l 626 500 l 636 961 l 956 972 m 578 -129 q 569 -178 578 -151 q 542 -231 559 -205 q 501 -281 525 -258 q 448 -320 477 -305 q 447 -309 448 -320 q 446 -283 447 -299 q 444 -250 445 -268 q 443 -219 443 -233 q 396 -183 413 -208 q 379 -126 379 -157 q 387 -87 379 -105 q 408 -56 395 -69 q 440 -34 422 -42 q 479 -26 458 -26 q 517 -34 499 -26 q 549 -56 536 -42 q 571 -87 563 -69 q 578 -126 578 -105 l 578 -129 "},"c":{"x_min":10.171875,"x_max":696.53125,"ha":712,"o":"m 681 926 l 657 640 q 618 647 637 645 q 579 649 599 649 q 487 637 531 649 q 410 600 444 625 q 357 536 377 575 q 337 446 337 498 q 348 380 337 408 q 380 333 359 352 q 430 305 400 314 q 495 295 459 295 q 547 300 520 295 q 600 314 573 305 q 651 335 626 323 q 696 359 675 346 l 685 40 q 628 16 659 27 q 565 -1 598 6 q 501 -13 533 -9 q 440 -17 469 -17 q 264 18 343 -17 q 129 116 185 54 q 41 260 72 178 q 10 435 10 342 q 41 642 10 546 q 134 810 73 739 q 286 921 196 881 q 494 961 377 961 q 589 954 541 961 q 681 926 637 946 "},"¶":{"x_min":28.484375,"x_max":1112.28125,"ha":1163,"o":"m 1077 13 l 782 12 l 782 629 l 732 632 q 734 318 734 473 q 735 4 733 162 l 419 -1 l 419 272 q 314 269 364 267 q 221 282 264 271 q 142 314 177 293 q 81 370 106 336 q 42 453 56 404 q 28 568 28 502 q 58 730 28 658 q 142 852 88 802 q 269 929 196 902 q 430 956 343 956 q 719 950 593 956 q 933 937 845 944 q 1112 919 1035 929 l 1077 13 "},"Ī":{"x_min":-8,"x_max":435.5625,"ha":413,"o":"m 400 954 l 326 31 l 40 16 l 40 935 l 400 954 m 432 993 l 4 999 l -8 1160 l 435 1168 l 432 993 "},"•":{"x_min":13.5625,"x_max":332.328125,"ha":346,"o":"m 332 530 q 319 467 332 497 q 285 417 307 438 q 234 382 263 395 q 172 370 205 370 q 110 382 139 370 q 60 417 82 395 q 26 467 38 438 q 13 530 13 497 q 26 592 13 563 q 60 643 38 621 q 110 677 82 665 q 172 690 139 690 q 234 677 205 690 q 285 643 263 665 q 319 592 307 621 q 332 530 332 563 "},"(":{"x_min":18.3125,"x_max":571.734375,"ha":541,"o":"m 571 952 q 455 858 505 913 q 373 740 406 803 q 324 611 341 677 q 308 484 308 545 q 321 355 308 423 q 360 221 334 287 q 427 94 387 155 q 522 -13 467 33 l 280 -112 q 191 -36 230 -80 q 124 58 153 7 q 74 166 94 109 q 42 278 54 222 q 24 388 29 334 q 18 489 18 442 q 38 643 18 563 q 98 799 59 722 q 197 942 138 875 q 334 1058 256 1009 l 571 952 "},"­":{"x_min":44.078125,"x_max":484.921875,"ha":531,"o":"m 46 374 l 44 577 l 482 598 l 484 366 l 46 374 "},"Ħ":{"x_min":28.484375,"x_max":839.640625,"ha":869,"o":"m 839 0 l 500 -16 l 497 297 l 341 297 l 332 0 l 28 0 l 54 953 l 377 938 l 366 696 l 507 699 l 508 975 l 817 967 l 839 0 m 507 451 l 507 528 l 360 530 l 356 451 l 507 451 "},":":{"x_min":29.84375,"x_max":314.703125,"ha":345,"o":"m 314 139 q 303 84 314 109 q 272 39 291 58 q 227 8 252 19 q 172 -2 201 -2 q 116 8 142 -2 q 71 39 90 19 q 41 84 52 58 q 29 139 29 109 q 41 195 29 168 q 71 241 52 221 q 116 271 90 260 q 172 283 142 283 q 227 271 201 283 q 272 241 252 260 q 303 195 291 221 q 314 139 314 168 m 314 573 q 303 518 314 543 q 272 473 291 492 q 227 442 252 453 q 172 431 201 431 q 116 442 142 431 q 71 473 90 453 q 41 518 52 492 q 29 573 29 543 q 41 629 29 602 q 71 675 52 655 q 116 706 90 694 q 172 717 142 717 q 227 706 201 717 q 272 675 252 694 q 303 629 291 655 q 314 573 314 602 "},"Û":{"x_min":22.375,"x_max":845.75,"ha":865,"o":"m 845 754 q 841 643 845 704 q 825 518 836 583 q 797 388 814 454 q 754 261 779 322 q 694 146 728 200 q 615 53 659 93 q 516 -8 571 14 q 394 -31 461 -31 q 257 -5 315 -31 q 158 62 199 19 q 90 163 116 105 q 48 284 63 220 q 28 415 33 348 q 22 543 22 482 q 31 733 22 638 q 59 922 41 828 l 376 910 q 344 696 358 803 q 331 480 331 588 q 332 445 331 468 q 336 395 333 423 q 344 337 339 366 q 358 283 349 307 q 379 243 366 259 q 408 227 392 227 q 444 246 428 227 q 471 296 459 265 q 492 368 483 327 q 507 453 501 408 q 517 541 513 497 q 523 623 520 585 q 526 690 525 661 q 526 733 526 719 q 525 839 526 786 q 520 944 523 891 l 837 944 q 845 754 845 850 m 530 961 l 424 1100 l 342 968 l 193 1032 q 224 1081 205 1053 q 264 1140 243 1109 q 307 1200 285 1170 q 348 1256 329 1230 l 488 1257 l 674 1050 l 530 961 "},"ś":{"x_min":18.984375,"x_max":729.765625,"ha":739,"o":"m 729 347 q 697 186 729 254 q 609 75 665 119 q 478 11 553 31 q 317 -9 403 -9 q 244 0 284 -9 q 164 21 204 8 q 85 49 123 34 q 18 78 48 65 l 48 344 q 176 291 106 309 q 314 274 246 274 q 345 275 327 274 q 380 281 364 276 q 408 296 397 286 q 420 325 420 306 q 412 347 420 338 q 391 362 404 356 q 362 371 378 368 q 330 375 345 374 q 301 377 314 377 q 279 377 287 377 q 173 395 221 377 q 91 447 125 413 q 37 528 56 480 q 18 634 18 576 q 51 778 18 714 q 137 886 83 841 q 261 954 191 930 q 405 978 330 978 q 474 975 438 978 q 544 967 509 973 q 612 951 579 961 q 675 927 645 942 l 649 652 q 553 678 603 668 q 454 689 502 689 q 431 688 445 689 q 402 686 417 688 q 371 681 387 685 q 343 672 356 678 q 324 657 331 666 q 317 634 316 647 q 328 611 318 619 q 355 599 339 603 q 392 596 372 596 q 432 597 412 596 q 468 599 451 598 q 496 599 485 600 q 594 576 550 596 q 667 524 637 556 q 713 446 697 491 q 729 347 729 401 m 617 1186 q 460 1097 536 1142 q 306 999 383 1052 l 220 1094 q 252 1130 233 1110 q 292 1171 271 1150 q 337 1214 314 1192 q 382 1255 360 1235 q 489 1349 433 1301 l 617 1186 "},"V":{"x_min":-25.765625,"x_max":864.0625,"ha":851,"o":"m 864 950 l 615 6 l 279 -12 l -25 941 l 295 971 l 425 415 l 552 971 l 864 950 "},"Ŗ":{"x_min":29.15625,"x_max":829.46875,"ha":842,"o":"m 829 653 q 820 557 829 600 q 791 478 811 514 q 740 412 771 442 q 665 354 709 381 l 826 66 l 521 6 l 417 295 l 333 293 l 320 10 l 29 10 q 35 318 32 165 q 42 626 38 472 q 45 781 44 704 q 50 935 46 857 q 144 965 98 953 q 237 983 190 976 q 331 991 283 989 q 429 994 379 994 q 578 972 506 994 q 706 908 651 951 q 795 802 762 866 q 829 653 829 738 m 525 632 q 517 684 525 660 q 494 725 510 708 q 456 752 479 742 q 403 762 434 762 q 377 760 389 762 q 352 755 364 758 l 341 503 l 357 503 q 416 510 386 503 q 471 533 446 518 q 510 573 495 549 q 525 632 525 598 m 517 -143 q 508 -192 517 -165 q 481 -245 498 -219 q 440 -295 464 -272 q 387 -334 416 -319 q 386 -323 387 -334 q 385 -297 386 -313 q 383 -264 384 -282 q 382 -233 382 -247 q 335 -197 352 -222 q 318 -140 318 -171 q 326 -101 318 -119 q 347 -70 334 -83 q 379 -48 361 -56 q 418 -40 397 -40 q 456 -48 438 -40 q 488 -70 475 -56 q 510 -101 502 -83 q 517 -140 517 -119 l 517 -143 "}," ":{"x_min":0,"x_max":0,"ha":271},"@":{"x_min":44.765625,"x_max":892.546875,"ha":923,"o":"m 892 520 q 838 323 892 390 q 679 255 784 256 q 609 260 639 253 q 559 276 579 266 q 528 297 539 286 q 514 318 516 309 q 477 288 499 296 q 432 280 454 280 q 368 290 398 280 q 316 319 338 299 q 280 370 293 339 q 267 443 267 401 q 279 511 267 482 q 314 559 292 539 q 367 588 337 578 q 432 598 397 598 q 484 584 459 598 q 524 539 509 571 l 524 609 l 668 610 l 664 364 l 682 367 q 700 382 692 370 q 713 414 707 392 q 718 474 718 436 q 701 577 718 535 q 650 647 683 620 q 569 687 617 674 q 459 699 520 699 q 341 674 393 699 q 297 646 318 663 q 259 603 276 629 q 232 543 242 578 q 222 461 222 507 q 235 362 222 403 q 267 294 247 322 q 314 251 288 267 q 368 227 340 235 q 514 223 432 208 l 514 94 q 330 90 416 74 q 181 153 245 105 q 81 277 118 200 q 44 455 44 354 q 71 626 44 555 q 139 744 97 696 q 232 818 181 791 q 333 860 283 846 q 426 878 383 874 q 495 883 470 883 q 660 854 586 883 q 785 777 733 826 q 864 662 836 728 q 892 520 892 596 m 416 448 q 426 406 416 423 q 459 389 437 389 q 496 406 482 389 q 511 448 511 423 q 496 483 511 472 q 459 495 482 495 q 416 448 416 495 "},"¾":{"x_min":30.515625,"x_max":867.453125,"ha":898,"o":"m 689 843 q 527 458 601 654 q 389 63 453 263 l 248 115 q 327 311 288 213 q 409 506 367 409 q 496 698 451 603 q 592 887 541 794 l 689 843 m 867 225 l 836 223 l 830 107 l 670 96 l 678 222 l 490 218 l 543 455 l 676 455 l 636 290 l 684 291 l 696 497 l 849 497 l 840 295 l 867 297 l 867 225 m 392 554 q 377 492 392 518 q 336 447 362 465 q 272 422 309 430 q 190 413 235 413 q 107 424 149 413 q 30 451 65 435 l 44 561 q 73 548 56 554 q 108 536 90 541 q 144 529 126 531 q 179 526 162 526 q 200 527 189 526 q 219 531 210 528 q 232 540 227 534 q 238 556 238 546 q 230 567 238 562 q 213 575 223 572 q 193 581 204 579 q 175 583 182 583 q 164 582 170 583 q 150 581 157 582 q 136 579 143 580 q 125 575 129 577 l 128 653 q 139 652 134 652 q 151 652 145 652 q 178 654 164 652 q 205 660 193 655 q 225 673 217 665 q 233 693 233 680 q 227 707 233 701 q 211 715 221 712 q 191 720 202 718 q 171 721 180 721 q 115 713 143 721 q 65 691 87 706 l 37 790 q 110 821 69 811 q 194 831 151 831 q 267 823 232 831 q 329 798 303 814 q 372 757 356 781 q 388 699 388 732 q 375 663 388 682 q 343 633 362 644 q 368 619 358 628 q 383 600 377 611 q 390 578 388 590 q 392 554 392 566 "},"ŉ":{"x_min":1.4375,"x_max":1094.265625,"ha":1123,"o":"m 1094 343 q 1092 191 1094 266 q 1087 40 1090 116 l 696 47 q 732 287 717 167 q 747 529 747 406 q 746 557 747 537 q 743 601 745 577 q 737 652 741 626 q 727 700 734 678 q 712 736 721 722 q 690 750 702 750 q 651 736 666 750 q 624 701 635 722 q 607 653 614 680 q 598 600 601 627 q 594 551 595 574 q 593 512 593 527 q 588 274 590 392 q 582 35 586 155 l 236 20 q 263 496 250 259 q 283 972 275 733 l 603 988 l 600 880 q 641 923 619 903 q 688 958 663 944 q 741 981 713 973 q 801 990 770 990 q 902 971 858 990 q 976 919 945 952 q 1029 842 1008 887 q 1063 748 1050 798 q 1082 643 1075 697 q 1091 535 1089 588 q 1094 433 1094 482 q 1094 343 1094 383 m 229 925 q 218 868 229 899 q 188 807 207 837 q 141 750 168 777 q 79 705 113 723 q 79 718 79 706 q 77 748 78 730 q 75 785 76 765 q 74 821 74 806 q 20 863 40 834 q 1 928 1 893 q 10 972 1 951 q 34 1008 19 993 q 70 1033 50 1024 q 115 1042 91 1042 q 159 1033 138 1042 q 196 1008 180 1024 q 220 972 211 993 q 229 928 230 951 l 229 925 "},"i":{"x_min":27.8125,"x_max":388.625,"ha":409,"o":"m 388 954 l 341 31 l 54 16 l 27 935 l 388 954 "},"Ģ":{"x_min":5.421875,"x_max":853.203125,"ha":870,"o":"m 853 138 q 774 68 821 98 q 674 18 727 38 q 564 -10 620 0 q 457 -20 507 -20 q 276 14 358 -20 q 133 112 193 50 q 39 258 73 174 q 5 439 5 342 q 22 584 5 513 q 70 717 39 655 q 147 833 102 780 q 250 923 193 885 q 377 982 308 961 q 523 1003 445 1003 q 585 1001 552 1003 q 652 993 619 999 q 716 977 685 987 q 773 952 747 967 l 754 693 q 675 712 716 707 q 596 717 635 717 q 495 700 542 717 q 413 653 448 684 q 358 577 378 621 q 337 476 337 532 q 347 407 337 440 q 376 349 356 375 q 424 308 395 324 q 491 293 453 293 q 544 299 516 293 q 591 322 571 306 l 594 375 l 431 378 l 439 581 q 641 587 540 585 q 845 594 742 590 l 853 138 m 564 -163 q 555 -212 564 -185 q 528 -265 545 -239 q 487 -315 511 -292 q 434 -354 463 -339 q 433 -343 434 -354 q 432 -317 433 -333 q 430 -284 431 -302 q 429 -253 429 -267 q 382 -217 399 -242 q 365 -160 365 -191 q 373 -121 365 -139 q 394 -90 381 -103 q 426 -68 408 -76 q 465 -60 444 -60 q 503 -68 485 -60 q 535 -90 522 -76 q 557 -121 549 -103 q 564 -160 564 -139 l 564 -163 "},"m":{"x_min":11.53125,"x_max":1220.125,"ha":1247,"o":"m 1220 459 q 1214 266 1220 362 q 1199 73 1207 170 l 851 56 q 879 293 866 174 q 891 530 891 411 q 891 556 891 537 q 888 598 890 575 q 884 648 887 622 q 875 694 881 673 q 863 729 870 716 q 845 743 855 743 q 808 725 822 743 q 788 682 794 707 q 780 631 781 657 q 779 588 779 604 q 780 531 779 560 q 781 473 781 503 q 776 263 781 368 q 764 54 771 159 l 442 42 q 470 277 458 160 q 482 514 482 395 q 481 541 482 521 q 479 585 480 560 q 474 636 477 609 q 465 684 470 662 q 453 720 460 706 q 434 735 445 735 q 406 721 417 735 q 387 687 394 708 q 376 641 380 666 q 371 591 373 615 q 369 546 369 567 q 368 515 368 525 l 353 20 l 11 20 q 33 250 22 134 q 53 480 44 365 q 67 710 61 595 q 72 941 72 826 l 395 954 l 394 876 q 427 914 408 895 q 468 949 446 933 q 513 973 489 964 q 563 983 537 983 q 623 978 596 983 q 671 961 649 973 q 708 927 692 948 q 737 873 725 906 q 780 917 758 897 q 827 952 803 937 q 880 975 851 967 q 943 983 908 983 q 1055 957 1009 983 q 1132 890 1101 932 q 1180 794 1163 848 q 1206 681 1197 739 q 1217 565 1215 623 q 1220 459 1220 507 "},"ĕ":{"x_min":11.53125,"x_max":791.484375,"ha":801,"o":"m 791 548 q 783 430 791 489 q 552 405 667 422 q 323 373 438 389 q 378 295 341 324 q 468 265 416 265 q 528 276 495 265 q 592 301 560 286 q 653 334 623 316 q 703 366 682 352 l 670 58 q 613 23 644 37 q 549 0 582 9 q 482 -12 516 -8 q 415 -16 448 -16 q 292 2 348 -16 q 192 53 237 20 q 113 130 147 86 q 56 228 79 175 q 23 340 34 281 q 11 459 11 399 q 23 585 11 522 q 57 707 34 649 q 116 815 81 765 q 200 902 152 865 q 307 961 247 940 q 440 982 367 982 q 550 965 500 982 q 639 919 600 948 q 707 849 678 889 q 754 759 735 808 q 782 657 773 711 q 791 548 791 603 m 520 583 q 516 622 520 602 q 502 658 512 642 q 478 685 493 674 q 441 695 463 695 q 393 681 414 695 q 358 644 373 666 q 333 596 343 622 q 319 549 324 571 l 520 568 l 520 583 m 604 1216 q 588 1136 604 1173 q 544 1072 572 1099 q 480 1029 517 1044 q 400 1014 442 1014 q 314 1029 351 1014 q 252 1071 277 1044 q 214 1138 227 1099 q 201 1227 201 1177 q 201 1243 201 1234 q 202 1258 201 1251 l 360 1238 q 360 1213 359 1227 q 367 1187 362 1199 q 381 1165 372 1174 q 406 1156 390 1156 q 422 1161 415 1156 q 432 1175 428 1167 q 438 1192 436 1183 q 440 1209 440 1201 q 435 1247 440 1229 q 425 1283 431 1264 l 589 1312 q 599 1265 595 1290 q 604 1216 604 1240 "},"ż":{"x_min":23.734375,"x_max":670.765625,"ha":688,"o":"m 670 717 l 360 325 l 646 325 l 655 37 l 50 13 l 23 279 l 377 713 l 26 689 l 23 961 l 658 961 l 670 717 m 470 1126 q 459 1074 470 1098 q 430 1033 449 1051 q 388 1005 412 1015 q 336 994 363 994 q 281 1005 306 994 q 237 1033 255 1015 q 209 1074 219 1051 q 199 1126 199 1098 q 209 1178 199 1153 q 237 1220 219 1202 q 279 1248 255 1238 q 331 1259 304 1259 q 386 1248 361 1259 q 430 1220 411 1238 q 459 1178 449 1202 q 470 1126 470 1153 "},"ő":{"x_min":11.53125,"x_max":895.25,"ha":886,"o":"m 872 519 q 858 400 872 457 q 817 292 844 343 q 752 201 790 242 q 666 129 714 159 q 562 83 618 99 q 442 66 505 66 q 326 82 381 66 q 223 125 271 97 q 135 193 174 153 q 69 281 96 233 q 26 385 42 330 q 11 501 11 441 q 25 617 11 560 q 66 724 40 674 q 131 816 93 774 q 216 889 169 858 q 318 936 263 919 q 434 953 373 953 q 614 923 533 953 q 752 835 695 892 q 841 698 809 779 q 872 519 872 618 m 571 501 q 563 558 571 531 q 538 607 554 585 q 498 641 522 628 q 442 655 474 655 q 385 643 411 655 q 342 612 360 632 q 315 565 324 592 q 305 508 305 538 q 314 451 305 480 q 338 400 322 423 q 378 362 354 377 q 434 348 402 348 q 492 361 466 348 q 535 395 517 373 q 562 444 552 416 q 571 501 571 472 m 895 1160 q 750 1053 821 1107 q 609 939 679 999 l 514 1022 q 541 1062 525 1040 q 577 1107 558 1083 q 616 1155 596 1131 q 655 1201 636 1179 q 751 1309 701 1254 l 895 1160 m 637 1206 q 492 1099 563 1153 q 352 984 421 1044 l 255 1068 q 283 1108 266 1086 q 318 1154 299 1130 q 357 1202 337 1178 q 397 1248 377 1226 q 493 1355 442 1300 l 637 1206 "},"ž":{"x_min":23.734375,"x_max":670.765625,"ha":688,"o":"m 670 717 l 360 325 l 646 325 l 655 37 l 50 13 l 23 279 l 377 713 l 26 689 l 23 961 l 658 961 l 670 717 m 587 1237 q 556 1189 574 1216 q 517 1133 538 1162 q 475 1074 497 1104 q 435 1020 454 1045 l 302 1001 l 106 1216 l 249 1307 l 355 1169 l 438 1302 l 587 1237 "},"Ŏ":{"x_min":11.53125,"x_max":872.875,"ha":886,"o":"m 872 478 q 858 359 872 417 q 817 252 844 302 q 752 160 790 202 q 666 88 714 118 q 562 42 618 59 q 442 25 505 25 q 326 41 381 25 q 223 85 271 56 q 135 152 174 113 q 69 241 96 192 q 26 345 42 289 q 11 461 11 400 q 25 576 11 520 q 66 683 40 633 q 131 775 93 733 q 216 848 169 817 q 318 895 263 878 q 434 912 373 912 q 614 882 533 912 q 752 795 695 851 q 841 658 809 738 q 872 478 872 577 m 571 461 q 563 517 571 490 q 538 566 554 545 q 498 601 522 588 q 442 614 474 614 q 385 602 411 614 q 342 571 360 591 q 315 524 324 551 q 305 467 305 497 q 314 411 305 439 q 338 359 322 382 q 378 322 354 336 q 434 307 402 307 q 492 320 466 307 q 535 354 517 333 q 562 403 552 375 q 571 461 571 431 m 631 1148 q 615 1068 631 1105 q 571 1004 599 1031 q 507 961 544 976 q 427 946 469 946 q 341 961 378 946 q 279 1003 304 976 q 241 1070 254 1031 q 228 1159 228 1109 q 228 1175 228 1166 q 229 1190 228 1183 l 387 1170 q 387 1145 386 1159 q 394 1119 389 1131 q 408 1097 399 1106 q 433 1088 417 1088 q 449 1093 442 1088 q 459 1107 455 1099 q 465 1124 463 1115 q 467 1141 467 1133 q 462 1179 467 1161 q 452 1215 458 1196 l 616 1244 q 626 1197 622 1222 q 631 1148 631 1172 "},"á":{"x_min":-21.703125,"x_max":889.828125,"ha":869,"o":"m 889 58 l 553 14 l 512 168 l 358 168 l 324 14 l -21 48 l 248 952 l 625 971 l 889 58 m 488 375 l 436 611 l 386 375 l 488 375 m 805 1179 q 648 1090 724 1135 q 494 992 571 1045 l 408 1087 q 440 1123 421 1103 q 480 1164 459 1143 q 525 1207 502 1185 q 570 1248 548 1228 q 677 1342 621 1294 l 805 1179 "},"×":{"x_min":29.84375,"x_max":590.046875,"ha":619,"o":"m 29 313 l 154 439 l 36 561 l 179 708 l 302 591 l 416 704 l 580 571 l 459 447 l 590 325 l 427 160 l 303 287 l 180 160 l 29 313 "},"İ":{"x_min":40.015625,"x_max":400.828125,"ha":413,"o":"m 400 954 l 326 31 l 40 16 l 40 935 l 400 954 m 357 1117 q 346 1065 357 1089 q 317 1024 336 1042 q 275 996 299 1006 q 223 985 250 985 q 168 996 193 985 q 124 1024 142 1006 q 96 1065 106 1042 q 86 1117 86 1089 q 96 1169 86 1144 q 124 1211 106 1193 q 166 1239 142 1229 q 218 1250 191 1250 q 273 1239 248 1250 q 317 1211 298 1229 q 346 1169 336 1193 q 357 1117 357 1144 "},"Ě":{"x_min":29.84375,"x_max":676.859375,"ha":665,"o":"m 676 978 q 669 851 672 914 q 660 725 666 789 l 373 710 l 366 625 l 568 625 l 553 415 l 349 408 l 343 309 l 511 309 l 630 309 q 622 161 626 234 q 614 13 617 87 l 29 0 l 51 978 l 676 978 m 563 1238 q 532 1190 550 1217 q 493 1134 514 1163 q 451 1075 473 1105 q 411 1021 430 1046 l 278 1002 l 82 1217 l 225 1308 l 331 1170 l 414 1303 l 563 1238 "},"K":{"x_min":29.15625,"x_max":894.578125,"ha":853,"o":"m 894 971 l 567 519 l 843 39 l 528 -16 l 322 276 l 311 -29 l 29 -40 l 50 998 l 366 980 l 342 674 l 552 998 l 894 971 "},"7":{"x_min":12.203125,"x_max":685,"ha":703,"o":"m 685 746 q 560 398 616 554 q 514 266 537 331 q 471 148 491 202 q 439 59 452 95 q 423 13 426 22 l 67 33 l 381 708 l 12 687 l 12 980 l 685 992 l 685 746 "},"¨":{"x_min":0,"x_max":478.828125,"ha":479,"o":"m 478 1067 q 471 1028 478 1046 q 449 997 463 1010 q 417 976 436 984 q 378 968 399 968 q 340 976 358 968 q 309 997 322 984 q 288 1028 296 1010 q 280 1067 280 1046 q 288 1105 280 1087 q 309 1137 296 1123 q 340 1158 322 1150 q 378 1166 358 1166 q 417 1158 399 1166 q 449 1137 436 1150 q 471 1105 463 1123 q 478 1067 478 1087 m 214 1052 q 205 1010 214 1030 q 182 975 197 990 q 148 952 168 961 q 107 944 128 944 q 65 952 84 944 q 31 975 45 961 q 8 1010 16 990 q 0 1052 0 1030 q 8 1092 0 1073 q 31 1126 16 1111 q 65 1149 45 1140 q 107 1158 84 1158 q 148 1149 128 1158 q 182 1126 168 1140 q 205 1092 197 1111 q 214 1052 214 1073 "},"Y":{"x_min":8.140625,"x_max":906.109375,"ha":843,"o":"m 906 918 l 533 397 l 515 -27 l 193 -27 l 202 394 l 8 897 l 354 941 l 408 648 l 580 941 l 906 918 "},"E":{"x_min":29.84375,"x_max":676.859375,"ha":665,"o":"m 676 978 q 669 851 672 914 q 660 725 666 789 l 373 710 l 366 625 l 568 625 l 553 415 l 349 408 l 343 309 l 511 309 l 630 309 q 622 161 626 234 q 614 13 617 87 l 29 0 l 51 978 l 676 978 "},"Ô":{"x_min":11.53125,"x_max":872.875,"ha":886,"o":"m 872 478 q 858 359 872 417 q 817 252 844 302 q 752 160 790 202 q 666 88 714 118 q 562 42 618 59 q 442 25 505 25 q 326 41 381 25 q 223 85 271 56 q 135 152 174 113 q 69 241 96 192 q 26 345 42 289 q 11 461 11 400 q 25 576 11 520 q 66 683 40 633 q 131 775 93 733 q 216 848 169 817 q 318 895 263 878 q 434 912 373 912 q 614 882 533 912 q 752 795 695 851 q 841 658 809 738 q 872 478 872 577 m 571 461 q 563 517 571 490 q 538 566 554 545 q 498 601 522 588 q 442 614 474 614 q 385 602 411 614 q 342 571 360 591 q 315 524 324 551 q 305 467 305 497 q 314 411 305 439 q 338 359 322 382 q 378 322 354 336 q 434 307 402 307 q 492 320 466 307 q 535 354 517 333 q 562 403 552 375 q 571 461 571 431 m 538 938 l 432 1077 l 350 945 l 201 1009 q 232 1058 213 1030 q 272 1117 251 1086 q 315 1177 293 1147 q 356 1233 337 1207 l 496 1234 l 682 1027 l 538 938 "},"‹":{"x_min":16.28125,"x_max":444.921875,"ha":461,"o":"m 336 157 l 25 366 l 16 615 l 310 830 l 419 625 l 237 500 l 444 379 l 336 157 "},"Ï":{"x_min":-18,"x_max":460.828125,"ha":413,"o":"m 400 954 l 326 31 l 40 16 l 40 935 l 400 954 m 460 1095 q 453 1056 460 1074 q 431 1025 445 1038 q 399 1004 418 1012 q 360 996 381 996 q 322 1004 340 996 q 291 1025 304 1012 q 270 1056 278 1038 q 262 1095 262 1074 q 270 1133 262 1115 q 291 1165 278 1151 q 322 1186 304 1178 q 360 1194 340 1194 q 399 1186 381 1194 q 431 1165 418 1178 q 453 1133 445 1151 q 460 1095 460 1115 m 196 1080 q 187 1038 196 1058 q 164 1003 179 1018 q 130 980 150 989 q 89 972 110 972 q 47 980 66 972 q 13 1003 27 989 q -9 1038 -1 1018 q -18 1080 -18 1058 q -9 1120 -18 1101 q 13 1154 -1 1139 q 47 1177 27 1168 q 89 1186 66 1186 q 130 1177 110 1186 q 164 1154 150 1168 q 187 1120 179 1139 q 196 1080 196 1101 "},"ġ":{"x_min":6.78125,"x_max":854.5625,"ha":872,"o":"m 854 151 q 775 82 822 111 q 675 32 729 52 q 565 3 621 12 q 458 -6 509 -6 q 277 26 360 -6 q 134 119 194 59 q 40 260 74 178 q 6 439 6 342 q 23 583 6 513 q 72 714 40 653 q 149 826 103 775 q 252 913 194 876 q 378 970 309 950 q 524 990 447 990 q 587 987 554 990 q 653 979 620 985 q 717 963 686 973 q 774 938 748 953 l 755 679 q 677 698 717 693 q 598 704 636 704 q 496 689 543 704 q 414 646 449 674 q 359 575 379 617 q 339 476 339 532 q 348 407 339 440 q 377 349 358 375 q 425 308 396 324 q 492 293 454 293 q 545 299 518 293 q 592 322 573 306 l 595 375 l 432 378 l 440 581 q 642 587 541 585 q 846 594 744 590 l 854 151 m 558 1145 q 547 1093 558 1117 q 518 1052 537 1070 q 476 1024 500 1034 q 424 1013 451 1013 q 369 1024 394 1013 q 325 1052 343 1034 q 297 1093 307 1070 q 287 1145 287 1117 q 297 1197 287 1172 q 325 1239 307 1221 q 367 1267 343 1257 q 419 1278 392 1278 q 474 1267 449 1278 q 518 1239 499 1257 q 547 1197 537 1221 q 558 1145 558 1172 "},"ķ":{"x_min":29.84375,"x_max":868.125,"ha":837,"o":"m 868 876 l 568 519 l 843 52 l 529 -2 l 322 276 l 311 10 l 29 0 l 51 971 l 367 953 l 343 674 l 539 957 l 868 876 m 517 -163 q 508 -212 517 -185 q 481 -265 498 -239 q 440 -315 464 -292 q 387 -354 416 -339 q 386 -343 387 -354 q 385 -317 386 -333 q 383 -284 384 -302 q 382 -253 382 -267 q 335 -217 352 -242 q 318 -160 318 -191 q 326 -121 318 -139 q 347 -90 334 -103 q 379 -68 361 -76 q 418 -60 397 -60 q 456 -68 438 -60 q 488 -90 475 -76 q 510 -121 502 -103 q 517 -160 517 -139 l 517 -163 "},"±":{"x_min":41.375,"x_max":604.296875,"ha":652,"o":"m 215 153 l 213 330 l 44 333 l 41 537 l 210 542 l 210 702 l 421 724 l 423 552 l 601 557 l 604 325 l 426 328 l 429 150 l 215 153 m 44 -137 l 41 66 l 601 86 l 604 -145 l 44 -137 "},"ì":{"x_min":-155,"x_max":388.625,"ha":408,"o":"m 388 954 l 341 31 l 54 16 l 27 935 l 388 954 m 147 967 q -1 1071 72 1023 q -155 1166 -76 1120 l -20 1325 q 83 1226 33 1274 q 126 1183 104 1205 q 168 1138 148 1160 q 207 1095 189 1116 q 238 1058 225 1075 l 147 967 "},"|":{"x_min":46.796875,"x_max":350.640625,"ha":399,"o":"m 49 -97 l 46 1052 l 350 1045 l 350 -97 l 49 -97 "},"§":{"x_min":43.40625,"x_max":754.1875,"ha":794,"o":"m 754 238 q 721 78 754 145 q 633 -32 689 10 q 502 -97 577 -76 q 341 -118 427 -118 q 268 -109 308 -118 q 188 -87 229 -100 q 110 -58 147 -73 q 43 -29 72 -43 l 73 236 q 201 183 130 201 q 339 165 271 165 q 370 166 352 165 q 405 172 388 167 q 433 187 421 177 q 444 217 444 198 q 436 239 444 229 q 415 254 428 248 q 386 262 402 259 q 354 267 370 265 q 325 268 339 268 q 303 268 311 268 q 197 286 245 268 q 115 338 149 305 q 62 420 81 372 q 43 526 43 467 q 46 576 43 552 q 56 622 49 600 q 46 667 49 644 q 43 716 43 690 q 75 859 43 796 q 161 967 107 923 q 285 1035 215 1011 q 430 1059 355 1059 q 498 1057 463 1059 q 568 1048 533 1054 q 636 1032 603 1042 q 699 1009 670 1023 l 674 733 q 577 759 628 749 q 478 770 526 770 q 456 770 470 770 q 426 768 442 769 q 396 763 411 766 q 368 753 380 759 q 348 738 356 748 q 341 716 341 729 q 353 693 342 701 q 380 681 363 685 q 416 677 396 677 q 456 678 436 677 q 493 680 476 679 q 520 680 510 681 q 618 657 575 677 q 692 605 661 638 q 738 527 722 573 q 754 428 754 482 q 750 374 754 400 q 741 325 747 349 q 754 238 754 286 m 330 477 q 347 445 328 459 q 396 427 366 431 q 423 426 410 425 q 447 432 436 427 q 464 442 457 436 q 472 458 470 449 q 468 474 473 466 q 455 489 464 482 q 434 501 446 496 q 406 508 421 506 q 355 503 377 512 q 330 477 334 495 "},"q":{"x_min":6.109375,"x_max":946.125,"ha":960,"o":"m 946 504 q 907 307 946 401 q 792 143 869 214 l 886 32 l 638 -127 l 579 32 q 528 24 554 27 q 475 21 501 21 q 350 37 410 21 q 238 83 290 54 q 143 155 186 113 q 70 248 101 197 q 22 360 39 300 q 6 485 6 420 q 22 610 6 550 q 67 725 37 671 q 138 823 96 778 q 231 899 180 867 q 343 949 283 931 q 468 967 402 967 q 661 935 573 967 q 812 843 749 903 q 910 698 875 784 q 946 504 946 612 m 616 485 q 607 546 616 516 q 580 598 598 575 q 536 634 562 621 q 475 648 510 648 q 414 636 441 648 q 367 603 387 624 q 338 554 348 582 q 327 492 327 525 q 336 431 327 461 q 363 376 345 400 q 407 337 381 352 q 468 322 434 322 q 529 336 501 322 q 576 371 556 349 q 605 423 595 394 q 616 485 616 453 "},"b":{"x_min":35.953125,"x_max":824.046875,"ha":825,"o":"m 824 241 q 803 144 824 185 q 748 75 782 103 q 668 28 713 46 q 574 0 623 10 q 476 -12 525 -9 q 384 -16 427 -16 q 297 -13 342 -16 q 207 -2 252 -10 q 119 17 162 4 q 37 48 75 29 l 35 922 q 116 950 73 937 q 203 971 159 963 q 292 984 248 980 q 377 988 336 988 q 475 982 425 988 q 569 962 524 976 q 654 925 615 948 q 723 869 693 902 q 769 792 752 836 q 786 690 786 748 q 775 619 786 652 q 744 559 764 585 q 694 514 723 533 q 628 486 665 495 q 709 453 672 475 q 770 398 745 430 q 810 326 796 366 q 824 241 824 286 m 479 628 q 471 661 479 647 q 451 684 463 675 q 425 697 439 693 q 400 701 411 701 q 374 697 387 701 q 349 687 361 693 l 345 537 q 383 539 360 537 q 428 551 406 542 q 464 578 449 560 q 479 628 479 596 m 383 406 q 345 402 363 406 l 342 248 q 362 244 352 246 q 381 242 372 242 q 413 245 396 242 q 444 258 430 248 q 469 282 459 267 q 479 324 479 298 q 469 366 479 349 q 445 391 459 382 q 414 403 431 400 q 383 406 397 406 "},"ﬂ":{"x_min":29.15625,"x_max":1275.390625,"ha":1273,"o":"m 676 964 q 668 838 672 900 q 659 712 665 775 l 372 697 l 372 611 l 621 611 l 608 401 l 370 394 l 372 20 l 29 13 l 50 964 l 676 964 m 1275 359 l 1246 58 l 675 13 l 697 982 l 1050 982 l 1000 359 l 1275 359 "},"®":{"x_min":40.6875,"x_max":750.109375,"ha":791,"o":"m 750 500 q 724 356 750 424 q 651 238 697 288 q 539 157 604 187 q 396 127 474 127 q 255 155 320 127 q 142 232 190 183 q 67 345 94 280 q 40 485 40 411 q 66 626 40 558 q 139 745 92 693 q 249 827 185 796 q 389 858 313 858 q 536 833 470 858 q 650 761 602 808 q 724 648 697 714 q 750 500 750 582 m 671 499 q 651 614 671 562 q 594 702 631 666 q 505 758 557 739 q 389 778 453 778 q 281 754 330 778 q 194 690 231 730 q 138 597 158 650 q 118 488 118 545 q 144 366 118 421 q 217 272 170 310 q 220 407 218 340 q 223 543 221 475 q 227 698 223 621 q 320 721 274 716 q 416 727 366 727 q 491 716 455 727 q 555 684 527 706 q 600 631 583 663 q 617 557 617 599 q 598 470 617 504 q 534 406 579 435 l 595 297 q 651 388 631 337 q 671 499 671 440 m 274 236 q 396 208 330 208 q 471 218 436 208 q 537 246 506 228 l 462 233 l 411 378 l 368 377 l 362 236 l 274 236 m 465 546 q 450 593 465 575 q 404 611 434 611 q 378 607 390 611 l 373 481 l 381 481 q 411 485 396 481 q 438 496 425 489 q 457 516 450 504 q 465 546 465 529 "},"Ŋ":{"x_min":27.8125,"x_max":956.96875,"ha":977,"o":"m 956 972 q 940 653 947 792 q 927 409 932 514 q 917 231 921 305 q 911 106 914 157 q 907 24 908 55 q 904 -24 905 -6 q 902 -52 903 -42 q 901 -69 902 -61 q 864 -229 893 -153 q 785 -362 835 -305 q 664 -452 735 -419 q 501 -485 593 -485 q 426 -479 465 -485 q 348 -461 387 -473 q 275 -431 310 -448 q 213 -389 240 -413 l 255 -108 q 344 -171 295 -147 q 451 -195 393 -195 q 530 -176 500 -195 q 576 -125 560 -156 q 597 -54 592 -94 q 603 25 602 -15 l 362 512 l 333 10 l 27 10 l 52 972 l 391 988 l 626 500 l 636 961 l 956 972 "},"Ũ":{"x_min":22.375,"x_max":845.75,"ha":865,"o":"m 845 754 q 841 643 845 704 q 825 518 836 583 q 797 388 814 454 q 754 261 779 322 q 694 146 728 200 q 615 53 659 93 q 516 -8 571 14 q 394 -31 461 -31 q 257 -5 315 -31 q 158 62 199 19 q 90 163 116 105 q 48 284 63 220 q 28 415 33 348 q 22 543 22 482 q 31 733 22 638 q 59 922 41 828 l 376 910 q 344 696 358 803 q 331 480 331 588 q 332 445 331 468 q 336 395 333 423 q 344 337 339 366 q 358 283 349 307 q 379 243 366 259 q 408 227 392 227 q 444 246 428 227 q 471 296 459 265 q 492 368 483 327 q 507 453 501 408 q 517 541 513 497 q 523 623 520 585 q 526 690 525 661 q 526 733 526 719 q 525 839 526 786 q 520 944 523 891 l 837 944 q 845 754 845 850 m 703 1153 q 689 1079 703 1113 q 650 1020 675 1045 q 592 981 625 995 q 520 967 558 967 q 469 978 490 967 q 433 1005 448 988 q 408 1040 419 1021 q 389 1075 398 1059 q 371 1102 380 1091 q 350 1113 362 1113 q 338 1109 343 1113 q 329 1098 332 1104 q 325 1085 326 1092 q 323 1071 323 1077 q 328 1031 323 1051 q 341 994 333 1012 l 175 980 q 164 1038 167 1009 q 161 1094 161 1066 q 171 1172 161 1136 q 204 1234 182 1207 q 256 1276 225 1260 q 330 1291 288 1291 q 392 1279 367 1291 q 432 1251 416 1268 q 458 1214 449 1234 q 475 1176 467 1193 q 489 1148 482 1159 q 506 1136 496 1136 q 527 1148 520 1136 q 535 1173 535 1161 q 527 1213 535 1193 q 509 1247 519 1232 l 677 1275 q 696 1215 689 1245 q 703 1153 703 1184 "},"L":{"x_min":31.203125,"x_max":630.75,"ha":628,"o":"m 630 386 l 602 85 l 31 40 q 40 511 35 277 q 52 982 45 745 l 405 982 q 375 685 389 833 q 355 386 361 537 q 418 385 387 385 q 481 385 449 385 q 556 385 519 385 q 630 386 592 386 "},"ď":{"x_min":29.84375,"x_max":803.015625,"ha":809,"o":"m 803 538 q 778 368 803 443 q 710 235 754 293 q 606 136 666 177 q 474 69 545 95 q 321 31 402 43 q 154 18 240 18 q 92 20 122 18 q 29 25 61 22 l 48 908 q 202 942 123 932 q 359 952 281 952 q 537 925 456 952 q 678 845 619 897 q 770 715 737 792 q 803 538 803 638 m 341 278 q 416 302 382 284 q 474 348 449 321 q 511 411 498 376 q 524 485 524 446 q 516 557 524 524 q 490 616 508 591 q 442 655 472 640 q 368 671 412 670 l 341 278 m 629 1218 q 598 1170 616 1197 q 559 1114 580 1143 q 517 1055 539 1085 q 477 1001 496 1026 l 344 982 l 148 1197 l 291 1288 l 397 1150 l 480 1283 l 629 1218 "}," ":{"x_min":0,"x_max":0,"ha":271},"Ĭ":{"x_min":4.328125,"x_max":407.1875,"ha":413,"o":"m 400 954 l 326 31 l 40 16 l 40 935 l 400 954 m 407 1188 q 391 1108 407 1145 q 347 1044 375 1071 q 283 1001 320 1016 q 203 986 245 986 q 117 1001 154 986 q 55 1043 80 1016 q 17 1110 30 1071 q 4 1199 4 1149 q 4 1215 4 1206 q 5 1230 4 1223 l 163 1210 q 163 1185 162 1199 q 170 1159 165 1171 q 184 1137 175 1146 q 209 1128 193 1128 q 225 1133 218 1128 q 235 1147 231 1139 q 241 1164 239 1155 q 243 1181 243 1173 q 238 1219 243 1201 q 228 1255 234 1236 l 392 1284 q 402 1237 398 1262 q 407 1188 407 1212 "},"ŧ":{"x_min":5.421875,"x_max":752.828125,"ha":757,"o":"m 600 289 l 529 290 l 519 31 l 233 16 l 221 294 l 172 295 l 160 456 l 215 457 l 207 645 l 5 634 l 13 954 l 752 956 l 746 668 l 543 660 l 536 463 l 603 464 l 600 289 "},"À":{"x_min":-21.703125,"x_max":889.828125,"ha":869,"o":"m 889 58 l 553 14 l 512 168 l 358 168 l 324 14 l -21 48 l 248 952 l 625 971 l 889 58 m 488 375 l 436 611 l 386 375 l 488 375 m 392 983 q 243 1087 317 1039 q 90 1182 168 1136 l 224 1341 q 328 1242 278 1290 q 371 1199 349 1221 q 413 1154 393 1176 q 452 1111 434 1132 q 483 1074 470 1091 l 392 983 "},"ẃ":{"x_min":4.75,"x_max":1259.453125,"ha":1264,"o":"m 1259 941 l 1100 28 l 715 20 l 632 480 l 550 55 l 164 42 l 4 914 l 341 944 l 408 408 l 499 903 l 764 903 l 870 401 l 924 971 l 1259 941 m 1006 1110 q 849 1021 925 1066 q 695 923 772 976 l 609 1018 q 641 1054 622 1034 q 681 1095 660 1074 q 726 1138 703 1116 q 771 1179 749 1159 q 878 1273 822 1225 l 1006 1110 "},"+":{"x_min":33.90625,"x_max":596.84375,"ha":633,"o":"m 207 153 l 206 330 l 36 333 l 33 537 l 203 542 l 203 702 l 413 724 l 416 552 l 594 557 l 596 325 l 419 328 l 421 150 l 207 153 "},"½":{"x_min":25.765625,"x_max":812.515625,"ha":852,"o":"m 299 803 l 280 417 l 126 423 l 134 678 l 78 649 l 25 741 l 139 808 l 299 803 m 618 843 q 457 458 531 654 q 318 63 383 263 l 177 115 q 257 311 217 213 q 338 506 297 409 q 425 698 380 603 q 520 887 470 794 l 618 843 m 812 329 q 802 288 812 307 q 775 251 792 268 q 737 219 758 233 q 694 193 716 204 l 807 193 l 797 81 l 467 89 l 467 188 q 527 207 496 195 q 585 235 558 219 q 628 273 611 252 q 645 321 645 295 q 628 353 645 343 q 584 363 610 363 q 542 356 564 363 q 504 337 520 349 l 474 444 q 504 461 487 455 q 539 472 520 468 q 577 478 558 476 q 615 480 597 480 q 693 468 657 480 q 755 436 729 457 q 797 388 781 416 q 812 329 812 361 "},"Ë":{"x_min":29.84375,"x_max":676.859375,"ha":665,"o":"m 676 978 q 669 851 672 914 q 660 725 666 789 l 373 710 l 366 625 l 568 625 l 553 415 l 349 408 l 343 309 l 511 309 l 630 309 q 622 161 626 234 q 614 13 617 87 l 29 0 l 51 978 l 676 978 m 592 1129 q 585 1090 592 1108 q 563 1059 577 1072 q 531 1038 550 1046 q 492 1030 513 1030 q 454 1038 472 1030 q 423 1059 436 1046 q 402 1090 410 1072 q 394 1129 394 1108 q 402 1167 394 1149 q 423 1199 410 1185 q 454 1220 436 1212 q 492 1228 472 1228 q 531 1220 513 1228 q 563 1199 550 1212 q 585 1167 577 1185 q 592 1129 592 1149 m 328 1114 q 319 1072 328 1092 q 296 1037 311 1052 q 262 1014 282 1023 q 221 1006 242 1006 q 179 1014 198 1006 q 145 1037 159 1023 q 122 1072 130 1052 q 114 1114 114 1092 q 122 1154 114 1135 q 145 1188 130 1173 q 179 1211 159 1202 q 221 1220 198 1220 q 262 1211 242 1220 q 296 1188 282 1202 q 319 1154 311 1173 q 328 1114 328 1135 "},"'":{"x_min":8.140625,"x_max":335.046875,"ha":323,"o":"m 335 1096 l 259 683 l 50 676 l 8 1089 l 335 1096 "},"Š":{"x_min":18.3125,"x_max":729.09375,"ha":737,"o":"m 729 360 q 696 198 729 267 q 608 82 664 128 q 477 13 552 36 q 316 -9 402 -9 q 243 0 283 -9 q 163 21 204 8 q 85 49 122 34 q 18 78 47 65 l 48 358 q 175 305 105 323 q 314 287 246 287 q 345 288 326 287 q 380 294 363 289 q 408 309 396 299 q 419 339 419 320 q 411 361 419 352 q 390 376 403 370 q 361 384 377 381 q 329 389 345 387 q 300 390 314 390 q 278 390 286 390 q 172 411 220 390 q 90 467 124 431 q 37 553 56 503 q 18 661 18 603 q 50 805 18 741 q 136 913 82 868 q 260 981 190 957 q 404 1005 330 1005 q 473 1002 438 1005 q 543 994 508 1000 q 611 978 578 988 q 674 954 644 969 l 649 679 q 552 705 602 695 q 453 716 501 716 q 431 715 444 716 q 401 713 417 715 q 370 708 386 712 q 343 699 355 705 q 323 684 330 693 q 316 661 316 674 q 327 637 317 647 q 355 623 338 628 q 391 616 371 618 q 431 614 411 614 q 467 614 451 613 q 495 613 484 614 q 593 590 550 609 q 667 537 636 570 q 713 460 697 505 q 729 360 729 415 m 613 1274 q 582 1226 600 1253 q 543 1170 564 1199 q 501 1111 523 1141 q 461 1057 480 1082 l 328 1038 l 132 1253 l 275 1344 l 381 1206 l 464 1339 l 613 1274 "},"ĳ":{"x_min":27.8125,"x_max":1084.296875,"ha":1110,"o":"m 388 954 l 341 31 l 54 16 l 27 935 l 388 954 m 1084 558 q 1084 479 1084 518 q 1080 400 1084 440 q 1043 239 1072 315 q 964 107 1014 164 q 843 16 914 50 q 680 -16 772 -16 q 605 -10 644 -16 q 527 8 566 -4 q 454 38 489 20 q 392 80 419 56 l 434 360 q 523 298 474 322 q 629 274 572 274 q 692 284 667 274 q 735 314 718 295 q 762 359 752 333 q 776 413 772 384 q 782 472 781 442 q 783 533 783 503 q 772 747 783 640 q 753 961 761 854 l 1063 982 q 1084 558 1084 770 "},"˛":{"x_min":0,"x_max":298.421875,"ha":298,"o":"m 298 -200 q 231 -250 268 -229 q 151 -271 193 -271 q 93 -260 120 -271 q 45 -231 65 -250 q 12 -186 24 -212 q 0 -128 0 -160 q 9 -76 0 -101 q 33 -29 18 -51 q 68 12 48 -6 q 107 48 87 32 l 244 43 q 220 13 236 33 q 187 -28 204 -6 q 159 -72 171 -50 q 147 -108 147 -94 q 156 -128 147 -120 q 177 -137 165 -137 q 207 -126 191 -137 q 231 -104 223 -115 l 298 -200 "},"ð":{"x_min":-19.671875,"x_max":849.8125,"ha":856,"o":"m 86 526 l 95 922 q 249 955 170 946 q 406 965 328 965 q 584 936 503 965 q 725 852 666 907 q 816 718 784 797 q 849 538 849 638 q 825 367 849 443 q 757 231 800 290 q 653 129 713 172 q 520 59 592 86 q 367 18 448 31 q 201 5 286 5 q 139 7 169 5 q 76 12 108 8 l 84 409 l -16 405 l -19 529 l 86 526 m 571 495 q 563 565 572 531 q 536 625 555 599 q 486 667 516 651 q 415 685 457 683 l 404 522 l 472 520 l 475 425 l 400 421 l 388 264 q 462 291 429 270 q 519 342 495 311 q 557 409 543 372 q 571 485 570 446 l 571 495 "},"ş":{"x_min":18.984375,"x_max":729.765625,"ha":739,"o":"m 512 -169 q 500 -236 512 -208 q 465 -280 487 -263 q 412 -305 442 -297 q 345 -313 381 -313 q 316 -311 333 -313 q 283 -306 300 -309 q 251 -296 267 -302 q 225 -282 236 -290 l 284 -174 q 303 -181 293 -179 q 324 -184 314 -184 q 348 -177 336 -184 q 360 -155 360 -170 q 354 -139 360 -145 q 339 -128 348 -132 q 320 -123 330 -124 q 302 -122 309 -122 q 275 -123 288 -122 q 248 -128 261 -125 l 254 -2 q 191 12 223 2 q 129 32 160 21 q 69 56 98 44 q 18 78 41 68 l 48 344 q 176 291 106 309 q 314 274 246 274 q 345 275 327 274 q 380 281 364 276 q 408 296 397 286 q 420 325 420 306 q 412 347 420 338 q 391 362 404 356 q 362 371 378 368 q 330 375 345 374 q 301 377 314 377 q 279 377 287 377 q 173 395 221 377 q 91 447 125 413 q 37 528 56 480 q 18 634 18 576 q 51 778 18 714 q 137 886 83 841 q 261 954 191 930 q 405 978 330 978 q 474 975 438 978 q 544 967 509 973 q 612 951 579 961 q 675 927 645 942 l 649 652 q 553 678 603 668 q 454 689 502 689 q 431 688 445 689 q 402 686 417 688 q 371 681 387 685 q 343 672 356 678 q 324 657 331 666 q 317 634 316 647 q 328 611 318 619 q 355 599 339 603 q 392 596 372 596 q 432 597 412 596 q 468 599 451 598 q 496 599 485 600 q 594 576 550 596 q 667 524 637 556 q 713 446 697 491 q 729 347 729 401 q 702 198 729 261 q 627 90 675 134 q 514 23 579 47 q 373 -6 448 0 l 373 -35 q 428 -46 402 -36 q 473 -72 454 -55 q 502 -114 491 -90 q 512 -169 512 -139 "},"ı":{"x_min":27.8125,"x_max":388.625,"ha":409,"o":"m 388 954 l 341 31 l 54 16 l 27 935 l 388 954 "},"Ć":{"x_min":9.5,"x_max":706.703125,"ha":715,"o":"m 706 953 l 668 667 q 629 674 649 672 q 590 676 609 676 q 494 663 539 676 q 414 623 448 650 q 358 555 379 596 q 337 459 337 514 q 348 398 337 424 q 380 356 360 373 q 428 330 400 339 q 489 322 456 322 q 541 328 514 322 q 595 342 569 333 q 647 362 621 351 q 693 386 672 374 l 666 67 q 608 43 639 54 q 545 25 577 33 q 480 13 512 17 q 417 9 447 9 q 257 41 331 9 q 127 128 182 73 q 41 260 72 184 q 9 423 9 335 q 42 641 9 539 q 140 822 75 744 q 300 944 204 899 q 519 988 395 988 q 615 981 566 988 q 706 953 664 973 m 670 1189 q 513 1100 589 1145 q 359 1002 436 1055 l 273 1097 q 305 1133 286 1113 q 345 1174 324 1153 q 390 1217 367 1195 q 435 1258 413 1238 q 542 1352 486 1304 l 670 1189 "},"ä":{"x_min":-21.703125,"x_max":889.828125,"ha":869,"o":"m 889 58 l 553 14 l 512 168 l 358 168 l 324 14 l -21 48 l 248 952 l 625 971 l 889 58 m 488 375 l 436 611 l 386 375 l 488 375 m 672 1109 q 665 1070 672 1088 q 643 1039 657 1052 q 611 1018 630 1026 q 572 1010 593 1010 q 534 1018 552 1010 q 503 1039 516 1026 q 482 1070 490 1052 q 474 1109 474 1088 q 482 1147 474 1129 q 503 1179 490 1165 q 534 1200 516 1192 q 572 1208 552 1208 q 611 1200 593 1208 q 643 1179 630 1192 q 665 1147 657 1165 q 672 1109 672 1129 m 408 1094 q 399 1052 408 1072 q 376 1017 391 1032 q 342 994 362 1003 q 301 986 322 986 q 259 994 278 986 q 225 1017 239 1003 q 202 1052 210 1032 q 194 1094 194 1072 q 202 1134 194 1115 q 225 1168 210 1153 q 259 1191 239 1182 q 301 1200 278 1200 q 342 1191 322 1200 q 376 1168 362 1182 q 399 1134 391 1153 q 408 1094 408 1115 "},"¹":{"x_min":-4.0625,"x_max":271.296875,"ha":304,"o":"m 271 803 l 250 417 l 97 423 l 105 679 l 48 649 l -4 741 l 111 808 l 271 803 "},"£":{"x_min":27.8125,"x_max":540.546875,"ha":587,"o":"m 463 505 l 465 446 l 347 447 l 341 392 l 540 392 l 521 211 l 106 184 l 114 453 l 27 454 l 29 508 l 115 507 q 136 601 120 554 q 183 686 151 648 q 262 747 214 723 q 380 770 310 770 q 451 766 415 770 q 521 748 487 762 l 502 568 q 474 573 488 571 q 444 573 459 575 q 415 568 430 573 q 387 553 400 562 q 364 532 374 544 q 352 504 354 519 l 463 505 "}}}
